SplineFontDB: 3.2
FontName: Nunito-Regular
FullName: Nunito Regular
FamilyName: Nunito
Weight: Book
Copyright: Copyright 2014 The Nunito Project Authors (https://github.com/googlefonts/nunito)
Version: 3.602-ef
ItalicAngle: 0
UnderlinePosition: -94
UnderlineWidth: 28
Ascent: 800
Descent: 200
InvalidEm: 0
sfntRevision: 0x00039a1d
LayerCount: 2
Layer: 0 1 "Back" 1
Layer: 1 1 "Fore" 0
XUID: [1021 965 1680887925 185219]
StyleMap: 0x0040
FSType: 0
OS2Version: 4
OS2_WeightWidthSlopeOnly: 0
OS2_UseTypoMetrics: 1
CreationTime: 1592915285
ModificationTime: 1719073394
PfmFamily: 81
TTFWeight: 400
TTFWidth: 5
LineGap: 0
VLineGap: 0
Panose: 0 0 0 0 0 0 0 0 0 0
OS2TypoAscent: 1011
OS2TypoAOffset: 0
OS2TypoDescent: -353
OS2TypoDOffset: 0
OS2TypoLinegap: 0
OS2WinAscent: 1077
OS2WinAOffset: 0
OS2WinDescent: 300
OS2WinDOffset: 0
HheadAscent: 1011
HheadAOffset: 0
HheadDescent: -353
HheadDOffset: 0
OS2SubXSize: 650
OS2SubYSize: 600
OS2SubXOff: 0
OS2SubYOff: 75
OS2SupXSize: 650
OS2SupYSize: 600
OS2SupXOff: 0
OS2SupYOff: 350
OS2StrikeYSize: 28
OS2StrikeYPos: 290
OS2CapHeight: 705
OS2XHeight: 484
OS2Vendor: 'NONE'
OS2CodePages: 20000197.00000000
OS2UnicodeRanges: a00002ff.5000204b.00000000.00000000
Lookup: 1 0 0 "'aalt' Access All Alternates lookup 0" { "'aalt' Access All Alternates lookup 0 subtable"  } ['aalt' ('DFLT' <'dflt' > 'cyrl' <'BSH ' 'CHU ' 'dflt' > 'latn' <'AZE ' 'CAT ' 'CRT ' 'KAZ ' 'MOL ' 'NLD ' 'ROM ' 'TAT ' 'TRK ' 'dflt' > ) ]
Lookup: 3 0 0 "'aalt' Access All Alternates lookup 1" { "'aalt' Access All Alternates lookup 1 subtable"  } ['aalt' ('DFLT' <'dflt' > 'cyrl' <'BSH ' 'CHU ' 'dflt' > 'latn' <'AZE ' 'CAT ' 'CRT ' 'KAZ ' 'MOL ' 'NLD ' 'ROM ' 'TAT ' 'TRK ' 'dflt' > ) ]

StartChar: .notdef
Encoding: 65536 -1 0
Width: 500
GlyphClass: 1
Flags: W
LayerCount: 2
Fore
SplineSet
50 -180 m 1,0,-1
 50 705 l 1,1,-1
 450 705 l 1,2,-1
 450 -180 l 1,3,-1
 50 -180 l 1,0,-1
100 -130 m 1,4,-1
 400 -130 l 1,5,-1
 400 655 l 1,6,-1
 100 655 l 1,7,-1
 100 -130 l 1,4,-1
EndSplineSet
EndChar

StartChar: A
Encoding: 65 65 1
Width: 729
GlyphClass: 2
Flags: W
AnchorPoint: "Anchor-3" 692 0 basechar 0
AnchorPoint: "Anchor-2" 366 0 basechar 0
AnchorPoint: "Anchor-0" 366 705 basechar 0
LayerCount: 2
Fore
SplineSet
72 -7 m 256,0,1
 56 -7 56 -7 46.5 0.5 c 128,-1,2
 37 8 37 8 35.5 20.5 c 128,-1,3
 34 33 34 33 41 49 c 2,4,-1
 316 675 l 2,5,6
 325 695 325 695 337.5 703.5 c 128,-1,7
 350 712 350 712 365 712 c 256,8,9
 380 712 380 712 392.5 703.5 c 128,-1,10
 405 695 405 695 413 675 c 2,11,-1
 689 49 l 2,12,13
 697 33 697 33 695.5 20 c 128,-1,14
 694 7 694 7 685 0 c 128,-1,15
 676 -7 676 -7 660 -7 c 0,16,17
 642 -7 642 -7 631 2.5 c 128,-1,18
 620 12 620 12 613 30 c 2,19,-1
 539 201 l 1,20,-1
 579 180 l 1,21,-1
 149 180 l 1,22,-1
 190 201 l 1,23,-1
 117 30 l 2,24,25
 108 11 108 11 98 2 c 128,-1,26
 88 -7 88 -7 72 -7 c 256,0,1
364 609 m 1,27,-1
 203 230 l 1,28,-1
 179 249 l 1,29,-1
 549 249 l 1,30,-1
 527 230 l 1,31,-1
 366 609 l 1,32,-1
 364 609 l 1,27,-1
EndSplineSet
Substitution2: "Single Substitution lookup 29 subtable" ordfeminine
Substitution2: "'aalt' Access All Alternates lookup 0 subtable" ordfeminine
EndChar

StartChar: Aogonek
Encoding: 260 260 24
Width: 729
GlyphClass: 1
Flags: W
LayerCount: 2
Fore
SplineSet
673 -192 m 0,0,1
 626 -192 626 -192 597 -166 c 128,-1,2
 568 -140 568 -140 568 -95 c 0,3,4
 568 -63 568 -63 584.5 -34 c 128,-1,5
 601 -5 601 -5 629 17 c 1,6,-1
 631 4 l 1,7,8
 625 8 625 8 621 14.5 c 128,-1,9
 617 21 617 21 613 30 c 2,10,-1
 539 201 l 1,11,-1
 579 180 l 1,12,-1
 149 180 l 1,13,-1
 190 201 l 1,14,-1
 117 30 l 2,15,16
 108 11 108 11 98 2 c 128,-1,17
 88 -7 88 -7 72 -7 c 256,18,19
 56 -7 56 -7 46.5 0.5 c 128,-1,20
 37 8 37 8 35.5 20.5 c 128,-1,21
 34 33 34 33 40 49 c 2,22,-1
 316 675 l 2,23,24
 325 695 325 695 337.5 703.5 c 128,-1,25
 350 712 350 712 365 712 c 256,26,27
 380 712 380 712 392.5 703.5 c 128,-1,28
 405 695 405 695 413 675 c 2,29,-1
 689 49 l 2,30,31
 697 32 697 32 695 18 c 128,-1,32
 693 4 693 4 681 -2 c 0,33,34
 671 -8 671 -8 658 -20 c 128,-1,35
 645 -32 645 -32 635.5 -48.5 c 128,-1,36
 626 -65 626 -65 626 -86 c 0,37,38
 626 -114 626 -114 643 -128 c 128,-1,39
 660 -142 660 -142 684 -142 c 0,40,41
 693 -142 693 -142 701.5 -140.5 c 128,-1,42
 710 -139 710 -139 719 -136 c 0,43,44
 733 -132 733 -132 740.5 -137 c 128,-1,45
 748 -142 748 -142 750 -151.5 c 128,-1,46
 752 -161 752 -161 747.5 -170 c 128,-1,47
 743 -179 743 -179 732 -183 c 0,48,49
 717 -189 717 -189 702 -190.5 c 128,-1,50
 687 -192 687 -192 673 -192 c 0,0,1
364 609 m 1,51,-1
 203 230 l 1,52,-1
 179 249 l 1,53,-1
 549 249 l 1,54,-1
 527 230 l 1,55,-1
 366 609 l 1,56,-1
 364 609 l 1,51,-1
EndSplineSet
EndChar

StartChar: AE
Encoding: 198 198 28
Width: 981
GlyphClass: 2
Flags: W
AnchorPoint: "Anchor-2" 487 0 basechar 0
AnchorPoint: "Anchor-0" 487 705 basechar 0
LayerCount: 2
Fore
SplineSet
42 -7 m 0,0,1
 24 -7 24 -7 14 0.5 c 128,-1,2
 4 8 4 8 4 20 c 128,-1,3
 4 32 4 32 12 45 c 2,4,-1
 397 680 l 2,5,6
 405 693 405 693 416 699 c 128,-1,7
 427 705 427 705 442 705 c 2,8,-1
 900 705 l 2,9,10
 918 705 918 705 927.5 696 c 128,-1,11
 937 687 937 687 937 671 c 0,12,13
 937 654 937 654 927.5 645 c 128,-1,14
 918 636 918 636 900 636 c 2,15,-1
 480 636 l 1,16,-1
 497 665 l 1,17,-1
 560 370 l 1,18,-1
 531 392 l 1,19,-1
 880 392 l 2,20,21
 898 392 898 392 907.5 383.5 c 128,-1,22
 917 375 917 375 917 358 c 256,23,24
 917 341 917 341 907.5 332 c 128,-1,25
 898 323 898 323 880 323 c 2,26,-1
 546 323 l 1,27,-1
 566 345 l 1,28,-1
 630 41 l 1,29,-1
 598 69 l 1,30,-1
 900 69 l 2,31,32
 918 69 918 69 927.5 60 c 128,-1,33
 937 51 937 51 937 35 c 0,34,35
 937 18 937 18 927.5 9 c 128,-1,36
 918 0 918 0 900 0 c 2,37,-1
 598 0 l 2,38,39
 565 0 565 0 557 33 c 2,40,-1
 521 204 l 1,41,-1
 551 180 l 1,42,-1
 161 180 l 1,43,-1
 193 202 l 1,44,-1
 85 20 l 2,45,46
 77 7 77 7 67 0 c 128,-1,47
 57 -7 57 -7 42 -7 c 0,0,1
433 608 m 1,48,-1
 208 229 l 1,49,-1
 199 249 l 1,50,-1
 530 249 l 1,51,-1
 516 227 l 1,52,-1
 435 608 l 1,53,-1
 433 608 l 1,48,-1
EndSplineSet
EndChar

StartChar: B
Encoding: 66 66 30
Width: 676
GlyphClass: 2
Flags: W
AnchorPoint: "Anchor-2" 341 0 basechar 0
AnchorPoint: "Anchor-0" 340 705 basechar 0
LayerCount: 2
Fore
SplineSet
132 0 m 2,0,1
 110 0 110 0 98.5 11.5 c 128,-1,2
 87 23 87 23 87 45 c 2,3,-1
 87 660 l 2,4,5
 87 682 87 682 98.5 693.5 c 128,-1,6
 110 705 110 705 132 705 c 2,7,-1
 369 705 l 2,8,9
 442 705 442 705 492.5 683.5 c 128,-1,10
 543 662 543 662 570 621 c 128,-1,11
 597 580 597 580 597 521 c 0,12,13
 597 455 597 455 558.5 411 c 128,-1,14
 520 367 520 367 454 353 c 1,15,-1
 454 367 l 1,16,17
 529 358 529 358 571.5 313 c 128,-1,18
 614 268 614 268 614 194 c 0,19,20
 614 100 614 100 553 50 c 128,-1,21
 492 0 492 0 381 0 c 2,22,-1
 132 0 l 2,0,1
167 66 m 1,23,-1
 373 66 l 2,24,25
 453 66 453 66 493 98 c 128,-1,26
 533 130 533 130 533 195 c 0,27,28
 533 261 533 261 493 292.5 c 128,-1,29
 453 324 453 324 373 324 c 2,30,-1
 167 324 l 1,31,-1
 167 66 l 1,23,-1
167 390 m 1,32,-1
 357 390 l 2,33,34
 435 390 435 390 475.5 422 c 128,-1,35
 516 454 516 454 516 514 c 0,36,37
 516 576 516 576 475.5 607.5 c 128,-1,38
 435 639 435 639 357 639 c 2,39,-1
 167 639 l 1,40,-1
 167 390 l 1,32,-1
EndSplineSet
EndChar

StartChar: uni0181
Encoding: 385 385 31
Width: 800
GlyphClass: 1
Flags: W
LayerCount: 2
Fore
SplineSet
256 0 m 2,0,1
 234 0 234 0 222.5 11.5 c 128,-1,2
 211 23 211 23 211 45 c 2,3,-1
 211 642 l 1,4,-1
 179 642 l 2,5,6
 124 642 124 642 97 616 c 128,-1,7
 70 590 70 590 70 536 c 2,8,-1
 70 516 l 2,9,10
 70 507 70 507 66.5 499 c 128,-1,11
 63 491 63 491 55 486 c 128,-1,12
 47 481 47 481 36 481 c 0,13,14
 24 481 24 481 16 486 c 128,-1,15
 8 491 8 491 4 499.5 c 128,-1,16
 0 508 0 508 0 517 c 2,17,-1
 0 540 l 2,18,19
 0 621 0 621 46.5 663 c 128,-1,20
 93 705 93 705 188 705 c 2,21,-1
 493 705 l 2,22,23
 566 705 566 705 616.5 683.5 c 128,-1,24
 667 662 667 662 694 621 c 128,-1,25
 721 580 721 580 721 521 c 0,26,27
 721 455 721 455 682.5 411 c 128,-1,28
 644 367 644 367 578 353 c 1,29,-1
 578 367 l 1,30,31
 653 358 653 358 695.5 313 c 128,-1,32
 738 268 738 268 738 194 c 0,33,34
 738 100 738 100 677 50 c 128,-1,35
 616 0 616 0 505 0 c 2,36,-1
 256 0 l 2,0,1
291 66 m 1,37,-1
 497 66 l 2,38,39
 577 66 577 66 617 98 c 128,-1,40
 657 130 657 130 657 195 c 0,41,42
 657 261 657 261 617 292.5 c 128,-1,43
 577 324 577 324 497 324 c 2,44,-1
 291 324 l 1,45,-1
 291 66 l 1,37,-1
291 390 m 1,46,-1
 481 390 l 2,47,48
 559 390 559 390 599.5 422 c 128,-1,49
 640 454 640 454 640 514 c 0,50,51
 640 576 640 576 599.5 607.5 c 128,-1,52
 559 639 559 639 481 639 c 2,53,-1
 291 639 l 1,54,-1
 291 390 l 1,46,-1
EndSplineSet
EndChar

StartChar: C
Encoding: 67 67 32
Width: 673
GlyphClass: 2
Flags: W
AnchorPoint: "Anchor-2" 385 0 basechar 0
AnchorPoint: "Anchor-0" 387 705 basechar 0
LayerCount: 2
Fore
SplineSet
392 -9 m 0,0,1
 288 -9 288 -9 214 35 c 128,-1,2
 140 79 140 79 100.5 160 c 128,-1,3
 61 241 61 241 61 353 c 0,4,5
 61 437 61 437 83.5 503.5 c 128,-1,6
 106 570 106 570 148.5 616.5 c 128,-1,7
 191 663 191 663 253 688.5 c 128,-1,8
 315 714 315 714 392 714 c 0,9,10
 454 714 454 714 510 696.5 c 128,-1,11
 566 679 566 679 607 645 c 0,12,13
 620 635 620 635 624.5 622.5 c 128,-1,14
 629 610 629 610 625.5 598.5 c 128,-1,15
 622 587 622 587 613.5 579.5 c 128,-1,16
 605 572 605 572 593 572 c 128,-1,17
 581 572 581 572 566 582 c 0,18,19
 530 611 530 611 487 625 c 128,-1,20
 444 639 444 639 394 639 c 0,21,22
 315 639 315 639 260 605.5 c 128,-1,23
 205 572 205 572 177 508 c 128,-1,24
 149 444 149 444 149 353 c 256,25,26
 149 262 149 262 177 197.5 c 128,-1,27
 205 133 205 133 260 99.5 c 128,-1,28
 315 66 315 66 394 66 c 0,29,30
 443 66 443 66 487 80.5 c 128,-1,31
 531 95 531 95 568 124 c 0,32,33
 583 134 583 134 595 133.5 c 128,-1,34
 607 133 607 133 615 126 c 128,-1,35
 623 119 623 119 626.5 108 c 128,-1,36
 630 97 630 97 626.5 85 c 128,-1,37
 623 73 623 73 611 64 c 0,38,39
 569 28 569 28 512.5 9.5 c 128,-1,40
 456 -9 456 -9 392 -9 c 0,0,1
EndSplineSet
EndChar

StartChar: D
Encoding: 68 68 39
Width: 742
GlyphClass: 2
Flags: W
AnchorPoint: "Anchor-5" 183 358 basechar 0
AnchorPoint: "Anchor-2" 371 0 basechar 0
AnchorPoint: "Anchor-0" 370 705 basechar 0
LayerCount: 2
Fore
SplineSet
132 0 m 2,0,1
 110 0 110 0 98.5 11.5 c 128,-1,2
 87 23 87 23 87 45 c 2,3,-1
 87 660 l 2,4,5
 87 682 87 682 98.5 693.5 c 128,-1,6
 110 705 110 705 132 705 c 2,7,-1
 325 705 l 2,8,9
 496 705 496 705 589 615 c 128,-1,10
 682 525 682 525 682 353 c 0,11,12
 682 267 682 267 658.5 201.5 c 128,-1,13
 635 136 635 136 589 91 c 128,-1,14
 543 46 543 46 477 23 c 128,-1,15
 411 0 411 0 325 0 c 2,16,-1
 132 0 l 2,0,1
169 70 m 1,17,-1
 319 70 l 2,18,19
 389 70 389 70 440.5 88 c 128,-1,20
 492 106 492 106 526.5 141 c 128,-1,21
 561 176 561 176 578 229.5 c 128,-1,22
 595 283 595 283 595 353 c 0,23,24
 595 494 595 494 526 564.5 c 128,-1,25
 457 635 457 635 319 635 c 2,26,-1
 169 635 l 1,27,-1
 169 70 l 1,17,-1
EndSplineSet
EndChar

StartChar: uni018A
Encoding: 394 394 45
Width: 867
GlyphClass: 1
Flags: W
LayerCount: 2
Fore
SplineSet
256 0 m 2,0,1
 234 0 234 0 222.5 11.5 c 128,-1,2
 211 23 211 23 211 45 c 2,3,-1
 211 642 l 1,4,-1
 179 642 l 2,5,6
 124 642 124 642 97 616 c 128,-1,7
 70 590 70 590 70 536 c 2,8,-1
 70 516 l 2,9,10
 70 507 70 507 66.5 499 c 128,-1,11
 63 491 63 491 55 486 c 128,-1,12
 47 481 47 481 36 481 c 0,13,14
 24 481 24 481 16 486 c 128,-1,15
 8 491 8 491 4 499.5 c 128,-1,16
 0 508 0 508 0 517 c 2,17,-1
 0 540 l 2,18,19
 0 621 0 621 45.5 663 c 128,-1,20
 91 705 91 705 180 705 c 2,21,-1
 449 705 l 2,22,23
 620 705 620 705 713 615 c 128,-1,24
 806 525 806 525 806 353 c 0,25,26
 806 267 806 267 782.5 201.5 c 128,-1,27
 759 136 759 136 713 91 c 128,-1,28
 667 46 667 46 601 23 c 128,-1,29
 535 0 535 0 449 0 c 2,30,-1
 256 0 l 2,0,1
294 70 m 1,31,-1
 443 70 l 2,32,33
 513 70 513 70 564.5 88 c 128,-1,34
 616 106 616 106 650.5 141 c 128,-1,35
 685 176 685 176 702 229.5 c 128,-1,36
 719 283 719 283 719 353 c 0,37,38
 719 494 719 494 650 564.5 c 128,-1,39
 581 635 581 635 443 635 c 2,40,-1
 294 635 l 1,41,-1
 294 70 l 1,31,-1
EndSplineSet
EndChar

StartChar: E
Encoding: 69 69 48
Width: 583
GlyphClass: 2
Flags: W
AnchorPoint: "Anchor-3" 494 0 basechar 0
AnchorPoint: "Anchor-2" 324 0 basechar 0
AnchorPoint: "Anchor-0" 324 705 basechar 0
LayerCount: 2
Fore
SplineSet
132 0 m 2,0,1
 110 0 110 0 98.5 11.5 c 128,-1,2
 87 23 87 23 87 45 c 2,3,-1
 87 660 l 2,4,5
 87 682 87 682 98.5 693.5 c 128,-1,6
 110 705 110 705 132 705 c 2,7,-1
 504 705 l 2,8,9
 521 705 521 705 530 696 c 128,-1,10
 539 687 539 687 539 671 c 0,11,12
 539 654 539 654 530 645 c 128,-1,13
 521 636 521 636 504 636 c 2,14,-1
 167 636 l 1,15,-1
 167 392 l 1,16,-1
 483 392 l 2,17,18
 500 392 500 392 509 383.5 c 128,-1,19
 518 375 518 375 518 358 c 256,20,21
 518 341 518 341 509 332 c 128,-1,22
 500 323 500 323 483 323 c 2,23,-1
 167 323 l 1,24,-1
 167 69 l 1,25,-1
 504 69 l 2,26,27
 521 69 521 69 530 60 c 128,-1,28
 539 51 539 51 539 35 c 0,29,30
 539 18 539 18 530 9 c 128,-1,31
 521 0 521 0 504 0 c 2,32,-1
 132 0 l 2,0,1
EndSplineSet
EndChar

StartChar: uni018F
Encoding: 399 399 72
Width: 767
GlyphClass: 2
Flags: W
AnchorPoint: "Anchor-2" 381 0 basechar 0
AnchorPoint: "Anchor-0" 381 705 basechar 0
LayerCount: 2
Fore
SplineSet
389 -9 m 0,0,1
 308 -9 308 -9 246 17 c 128,-1,2
 184 43 184 43 143 91 c 128,-1,3
 102 139 102 139 81.5 206 c 128,-1,4
 61 273 61 273 61 354 c 0,5,6
 61 373 61 373 68.5 381.5 c 128,-1,7
 76 390 76 390 92 390 c 2,8,-1
 644 390 l 1,9,-1
 644 321 l 1,10,-1
 123 321 l 1,11,-1
 146 354 l 1,12,13
 146 259 146 259 172.5 194 c 128,-1,14
 199 129 199 129 252.5 96 c 128,-1,15
 306 63 306 63 386 63 c 0,16,17
 460 63 460 63 512 97 c 128,-1,18
 564 131 564 131 592 195.5 c 128,-1,19
 620 260 620 260 620 353 c 256,20,21
 620 446 620 446 589 510 c 128,-1,22
 558 574 558 574 499 607.5 c 128,-1,23
 440 641 440 641 354 641 c 0,24,25
 291 641 291 641 241.5 626.5 c 128,-1,26
 192 612 192 612 147 579 c 0,27,28
 133 571 133 571 121.5 572 c 128,-1,29
 110 573 110 573 102.5 580.5 c 128,-1,30
 95 588 95 588 92.5 599 c 128,-1,31
 90 610 90 610 93.5 621 c 128,-1,32
 97 632 97 632 110 641 c 0,33,34
 158 677 158 677 222.5 695.5 c 128,-1,35
 287 714 287 714 362 714 c 0,36,37
 468 714 468 714 545 670 c 128,-1,38
 622 626 622 626 664.5 545.5 c 128,-1,39
 707 465 707 465 707 353 c 0,40,41
 707 269 707 269 684.5 202 c 128,-1,42
 662 135 662 135 620 88.5 c 128,-1,43
 578 42 578 42 519.5 16.5 c 128,-1,44
 461 -9 461 -9 389 -9 c 0,0,1
EndSplineSet
EndChar

StartChar: F
Encoding: 70 70 73
Width: 548
GlyphClass: 2
Flags: W
AnchorPoint: "Anchor-2" 296 0 basechar 0
AnchorPoint: "Anchor-0" 298 705 basechar 0
LayerCount: 2
Fore
SplineSet
131 -7 m 0,0,1
 110 -7 110 -7 98.5 4.5 c 128,-1,2
 87 16 87 16 87 38 c 2,3,-1
 87 660 l 2,4,5
 87 682 87 682 98.5 693.5 c 128,-1,6
 110 705 110 705 132 705 c 2,7,-1
 495 705 l 2,8,9
 512 705 512 705 521 696 c 128,-1,10
 530 687 530 687 530 671 c 0,11,12
 530 654 530 654 521 645 c 128,-1,13
 512 636 512 636 495 636 c 2,14,-1
 169 636 l 1,15,-1
 169 390 l 1,16,-1
 474 390 l 2,17,18
 491 390 491 390 500.5 381 c 128,-1,19
 510 372 510 372 510 356 c 0,20,21
 510 339 510 339 500.5 330 c 128,-1,22
 491 321 491 321 474 321 c 2,23,-1
 169 321 l 1,24,-1
 169 38 l 2,25,26
 169 -7 169 -7 131 -7 c 0,0,1
EndSplineSet
EndChar

StartChar: G
Encoding: 71 71 74
Width: 726
GlyphClass: 2
Flags: W
AnchorPoint: "Anchor-2" 398 0 basechar 0
AnchorPoint: "Anchor-0" 391 705 basechar 0
LayerCount: 2
Fore
SplineSet
409 -9 m 0,0,1
 296 -9 296 -9 218.5 34 c 128,-1,2
 141 77 141 77 101 158 c 128,-1,3
 61 239 61 239 61 352 c 0,4,5
 61 436 61 436 83.5 503 c 128,-1,6
 106 570 106 570 149.5 616.5 c 128,-1,7
 193 663 193 663 255.5 688.5 c 128,-1,8
 318 714 318 714 397 714 c 0,9,10
 460 714 460 714 519 696.5 c 128,-1,11
 578 679 578 679 624 641 c 0,12,13
 636 632 636 632 639 621 c 128,-1,14
 642 610 642 610 638.5 599 c 128,-1,15
 635 588 635 588 627.5 580.5 c 128,-1,16
 620 573 620 573 608.5 572 c 128,-1,17
 597 571 597 571 585 579 c 0,18,19
 544 611 544 611 498 625.5 c 128,-1,20
 452 640 452 640 396 640 c 0,21,22
 316 640 316 640 260.5 606 c 128,-1,23
 205 572 205 572 176.5 508 c 128,-1,24
 148 444 148 444 148 352 c 0,25,26
 148 212 148 212 213.5 138 c 128,-1,27
 279 64 279 64 411 64 c 0,28,29
 459 64 459 64 505 73.5 c 128,-1,30
 551 83 551 83 592 100 c 1,31,-1
 574 53 l 1,32,-1
 574 302 l 1,33,-1
 431 302 l 2,34,35
 413 302 413 302 404 311 c 128,-1,36
 395 320 395 320 395 335 c 0,37,38
 395 351 395 351 404 359 c 128,-1,39
 413 367 413 367 431 367 c 2,40,-1
 610 367 l 2,41,42
 627 367 627 367 636 358 c 128,-1,43
 645 349 645 349 645 332 c 2,44,-1
 645 71 l 2,45,46
 645 56 645 56 640 46 c 128,-1,47
 635 36 635 36 623 31 c 0,48,49
 581 14 581 14 522.5 2.5 c 128,-1,50
 464 -9 464 -9 409 -9 c 0,0,1
EndSplineSet
EndChar

StartChar: H
Encoding: 72 72 81
Width: 761
GlyphClass: 2
Flags: W
AnchorPoint: "Anchor-5" 381 553 basechar 0
AnchorPoint: "Anchor-2" 381 0 basechar 0
AnchorPoint: "Anchor-0" 380 705 basechar 0
LayerCount: 2
Fore
SplineSet
128 -7 m 0,0,1
 108 -7 108 -7 97.5 4.5 c 128,-1,2
 87 16 87 16 87 36 c 2,3,-1
 87 669 l 2,4,5
 87 690 87 690 97.5 701 c 128,-1,6
 108 712 108 712 128 712 c 256,7,8
 148 712 148 712 158.5 701 c 128,-1,9
 169 690 169 690 169 669 c 2,10,-1
 169 393 l 1,11,-1
 592 393 l 1,12,-1
 592 669 l 2,13,14
 592 690 592 690 602.5 701 c 128,-1,15
 613 712 613 712 633 712 c 256,16,17
 653 712 653 712 663.5 701 c 128,-1,18
 674 690 674 690 674 669 c 2,19,-1
 674 36 l 2,20,21
 674 16 674 16 663.5 4.5 c 128,-1,22
 653 -7 653 -7 633 -7 c 256,23,24
 613 -7 613 -7 602.5 4.5 c 128,-1,25
 592 16 592 16 592 36 c 2,26,-1
 592 322 l 1,27,-1
 169 322 l 1,28,-1
 169 36 l 2,29,30
 169 16 169 16 159 4.5 c 128,-1,31
 149 -7 149 -7 128 -7 c 0,0,1
EndSplineSet
EndChar

StartChar: Hbar
Encoding: 294 294 82
Width: 798
GlyphClass: 1
Flags: W
LayerCount: 2
Fore
SplineSet
147 -7 m 0,0,1
 127 -7 127 -7 116 4.5 c 128,-1,2
 105 16 105 16 105 36 c 2,3,-1
 105 531 l 1,4,-1
 128 519 l 1,5,-1
 42 519 l 2,6,7
 8 519 8 519 8 552 c 0,8,9
 8 567 8 567 17 575.5 c 128,-1,10
 26 584 26 584 42 584 c 2,11,-1
 121 584 l 1,12,-1
 105 561 l 1,13,-1
 105 669 l 2,14,15
 105 690 105 690 116 701 c 128,-1,16
 127 712 127 712 147 712 c 256,17,18
 167 712 167 712 177.5 701 c 128,-1,19
 188 690 188 690 188 669 c 2,20,-1
 188 561 l 1,21,-1
 175 584 l 1,22,-1
 623 584 l 1,23,-1
 610 561 l 1,24,-1
 610 669 l 2,25,26
 610 690 610 690 621 701 c 128,-1,27
 632 712 632 712 652 712 c 256,28,29
 672 712 672 712 682.5 701 c 128,-1,30
 693 690 693 690 693 669 c 2,31,-1
 693 561 l 1,32,-1
 675 584 l 1,33,-1
 756 584 l 2,34,35
 791 584 791 584 791 552 c 0,36,37
 791 537 791 537 782 528 c 128,-1,38
 773 519 773 519 756 519 c 2,39,-1
 668 519 l 1,40,-1
 693 533 l 1,41,-1
 693 36 l 2,42,43
 693 16 693 16 682.5 4.5 c 128,-1,44
 672 -7 672 -7 652 -7 c 256,45,46
 632 -7 632 -7 621 4.5 c 128,-1,47
 610 16 610 16 610 36 c 2,48,-1
 610 317 l 1,49,-1
 188 317 l 1,50,-1
 188 36 l 2,51,52
 188 16 188 16 178 4.5 c 128,-1,53
 168 -7 168 -7 147 -7 c 0,0,1
188 388 m 1,54,-1
 610 388 l 1,55,-1
 610 519 l 1,56,-1
 188 519 l 1,57,-1
 188 388 l 1,54,-1
EndSplineSet
EndChar

StartChar: I
Encoding: 73 73 86
Width: 257
GlyphClass: 2
Flags: W
AnchorPoint: "Anchor-3" 157 0 basechar 0
AnchorPoint: "Anchor-2" 128 0 basechar 0
AnchorPoint: "Anchor-0" 128 705 basechar 0
LayerCount: 2
Fore
SplineSet
128 -7 m 0,0,1
 108 -7 108 -7 97.5 4.5 c 128,-1,2
 87 16 87 16 87 36 c 2,3,-1
 87 669 l 2,4,5
 87 690 87 690 97.5 701 c 128,-1,6
 108 712 108 712 128 712 c 256,7,8
 148 712 148 712 158.5 701 c 128,-1,9
 169 690 169 690 169 669 c 2,10,-1
 169 36 l 2,11,12
 169 16 169 16 159 4.5 c 128,-1,13
 149 -7 149 -7 128 -7 c 0,0,1
EndSplineSet
EndChar

StartChar: Iogonek
Encoding: 302 302 100
Width: 257
GlyphClass: 1
Flags: W
LayerCount: 2
Fore
SplineSet
138 -192 m 0,0,1
 90 -192 90 -192 61.5 -166 c 128,-1,2
 33 -140 33 -140 33 -95 c 0,3,4
 33 -63 33 -63 50 -33 c 128,-1,5
 67 -3 67 -3 98 18 c 1,6,-1
 96 8 l 1,7,8
 91 13 91 13 89 20.5 c 128,-1,9
 87 28 87 28 87 36 c 2,10,-1
 87 669 l 2,11,12
 87 690 87 690 97.5 701 c 128,-1,13
 108 712 108 712 128 712 c 256,14,15
 148 712 148 712 158.5 701 c 128,-1,16
 169 690 169 690 169 669 c 2,17,-1
 169 36 l 2,18,19
 169 22 169 22 163.5 11.5 c 128,-1,20
 158 1 158 1 150 -3 c 0,21,22
 127 -15 127 -15 108.5 -36 c 128,-1,23
 90 -57 90 -57 90 -86 c 0,24,25
 90 -114 90 -114 107 -128 c 128,-1,26
 124 -142 124 -142 149 -142 c 0,27,28
 158 -142 158 -142 166.5 -140.5 c 128,-1,29
 175 -139 175 -139 183 -136 c 0,30,31
 197 -132 197 -132 204.5 -137 c 128,-1,32
 212 -142 212 -142 214 -151.5 c 128,-1,33
 216 -161 216 -161 211.5 -170 c 128,-1,34
 207 -179 207 -179 197 -183 c 0,35,36
 182 -189 182 -189 167 -190.5 c 128,-1,37
 152 -192 152 -192 138 -192 c 0,0,1
EndSplineSet
EndChar

StartChar: J
Encoding: 74 74 102
Width: 324
GlyphClass: 2
Flags: W
AnchorPoint: "Anchor-2" 197 0 basechar 0
AnchorPoint: "Anchor-0" 196 705 basechar 0
LayerCount: 2
Fore
SplineSet
28 -6 m 2,0,1
 9 -7 9 -7 -1.5 4 c 128,-1,2
 -12 15 -12 15 -12 31 c 0,3,4
 -12 43 -12 43 -4.5 53 c 128,-1,5
 3 63 3 63 19 64 c 2,6,-1
 50 66 l 2,7,8
 101 70 101 70 128 101.5 c 128,-1,9
 155 133 155 133 155 188 c 2,10,-1
 155 670 l 2,11,12
 155 691 155 691 165.5 701.5 c 128,-1,13
 176 712 176 712 196 712 c 256,14,15
 216 712 216 712 226.5 701.5 c 128,-1,16
 237 691 237 691 237 670 c 2,17,-1
 237 187 l 2,18,19
 237 130 237 130 217 88.5 c 128,-1,20
 197 47 197 47 157.5 24 c 128,-1,21
 118 1 118 1 61 -3 c 2,22,-1
 28 -6 l 2,0,1
EndSplineSet
EndChar

StartChar: K
Encoding: 75 75 104
Width: 625
GlyphClass: 2
Flags: W
AnchorPoint: "Anchor-2" 316 0 basechar 0
AnchorPoint: "Anchor-0" 316 705 basechar 0
LayerCount: 2
Fore
SplineSet
128 -7 m 0,0,1
 108 -7 108 -7 97.5 4.5 c 128,-1,2
 87 16 87 16 87 36 c 2,3,-1
 87 670 l 2,4,5
 87 691 87 691 97.5 701.5 c 128,-1,6
 108 712 108 712 128 712 c 256,7,8
 148 712 148 712 158.5 701.5 c 128,-1,9
 169 691 169 691 169 670 c 2,10,-1
 169 385 l 1,11,-1
 171 385 l 1,12,-1
 497 689 l 2,13,14
 509 701 509 701 521 706.5 c 128,-1,15
 533 712 533 712 547 712 c 0,16,17
 566 712 566 712 574.5 703 c 128,-1,18
 583 694 583 694 581 681 c 128,-1,19
 579 668 579 668 567 656 c 2,20,-1
 226 340 l 1,21,-1
 227 384 l 1,22,-1
 583 55 l 2,23,24
 598 41 598 41 599 26.5 c 128,-1,25
 600 12 600 12 590.5 2.5 c 128,-1,26
 581 -7 581 -7 562 -7 c 0,27,28
 547 -7 547 -7 536.5 -0.5 c 128,-1,29
 526 6 526 6 513 19 c 2,30,-1
 171 332 l 1,31,-1
 169 332 l 1,32,-1
 169 36 l 2,33,34
 169 16 169 16 159 4.5 c 128,-1,35
 149 -7 149 -7 128 -7 c 0,0,1
EndSplineSet
EndChar

StartChar: L
Encoding: 76 76 106
Width: 543
GlyphClass: 2
Flags: W
AnchorPoint: "Anchor-5" 173 387 basechar 0
AnchorPoint: "Anchor-2" 307 0 basechar 0
AnchorPoint: "Anchor-1" 284 705 basechar 0
AnchorPoint: "Anchor-0" 128 705 basechar 0
LayerCount: 2
Fore
SplineSet
129 0 m 2,0,1
 109 0 109 0 98 11.5 c 128,-1,2
 87 23 87 23 87 43 c 2,3,-1
 87 667 l 2,4,5
 87 688 87 688 97.5 699 c 128,-1,6
 108 710 108 710 128 710 c 256,7,8
 148 710 148 710 158.5 699 c 128,-1,9
 169 688 169 688 169 667 c 2,10,-1
 169 72 l 1,11,-1
 497 72 l 2,12,13
 515 72 515 72 525 62.5 c 128,-1,14
 535 53 535 53 535 36 c 256,15,16
 535 19 535 19 525 9.5 c 128,-1,17
 515 0 515 0 497 0 c 2,18,-1
 129 0 l 2,0,1
EndSplineSet
EndChar

StartChar: M
Encoding: 77 77 116
Width: 855
GlyphClass: 2
Flags: W
AnchorPoint: "Anchor-2" 428 0 basechar 0
AnchorPoint: "Anchor-0" 428 705 basechar 0
LayerCount: 2
Fore
SplineSet
127 -7 m 256,0,1
 109 -7 109 -7 99 3.5 c 128,-1,2
 89 14 89 14 89 33 c 2,3,-1
 89 672 l 2,4,5
 89 692 89 692 99 702 c 128,-1,6
 109 712 109 712 127 712 c 0,7,8
 143 712 143 712 152.5 705.5 c 128,-1,9
 162 699 162 699 170 684 c 2,10,-1
 444 168 l 1,11,-1
 414 168 l 1,12,-1
 687 684 l 2,13,14
 695 699 695 699 704 705.5 c 128,-1,15
 713 712 713 712 730 712 c 256,16,17
 747 712 747 712 757 702 c 128,-1,18
 767 692 767 692 767 672 c 2,19,-1
 767 33 l 2,20,21
 767 14 767 14 757.5 3.5 c 128,-1,22
 748 -7 748 -7 729 -7 c 0,23,24
 711 -7 711 -7 701 3.5 c 128,-1,25
 691 14 691 14 691 33 c 2,26,-1
 691 595 l 1,27,-1
 715 595 l 1,28,-1
 465 126 l 2,29,30
 458 113 458 113 450.5 107.5 c 128,-1,31
 443 102 443 102 429 102 c 256,32,33
 415 102 415 102 407 108 c 128,-1,34
 399 114 399 114 393 126 c 2,35,-1
 140 596 l 1,36,-1
 164 596 l 1,37,-1
 164 33 l 2,38,39
 164 14 164 14 154.5 3.5 c 128,-1,40
 145 -7 145 -7 127 -7 c 256,0,1
EndSplineSet
EndChar

StartChar: N
Encoding: 78 78 118
Width: 740
GlyphClass: 2
Flags: W
AnchorPoint: "Anchor-2" 370 0 basechar 0
AnchorPoint: "Anchor-0" 370 705 basechar 0
LayerCount: 2
Fore
SplineSet
126 -7 m 0,0,1
 107 -7 107 -7 97 3.5 c 128,-1,2
 87 14 87 14 87 34 c 2,3,-1
 87 670 l 2,4,5
 87 690 87 690 97 701 c 128,-1,6
 107 712 107 712 123 712 c 256,7,8
 139 712 139 712 146.5 706.5 c 128,-1,9
 154 701 154 701 164 687 c 2,10,-1
 600 106 l 1,11,-1
 576 106 l 1,12,-1
 576 672 l 2,13,14
 576 691 576 691 586 701.5 c 128,-1,15
 596 712 596 712 615 712 c 0,16,17
 633 712 633 712 642.5 701.5 c 128,-1,18
 652 691 652 691 652 672 c 2,19,-1
 652 33 l 2,20,21
 652 14 652 14 643.5 3.5 c 128,-1,22
 635 -7 635 -7 619 -7 c 0,23,24
 604 -7 604 -7 595 -1 c 128,-1,25
 586 5 586 5 576 18 c 2,26,-1
 141 599 l 1,27,-1
 164 599 l 1,28,-1
 164 34 l 2,29,30
 164 14 164 14 154 3.5 c 128,-1,31
 144 -7 144 -7 126 -7 c 0,0,1
EndSplineSet
EndChar

StartChar: Eng
Encoding: 330 330 128
Width: 740
GlyphClass: 2
Flags: W
AnchorPoint: "Anchor-2" 370 0 basechar 0
AnchorPoint: "Anchor-0" 370 705 basechar 0
LayerCount: 2
Fore
SplineSet
475 -191 m 0,0,1
 460 -192 460 -192 450.5 -186 c 128,-1,2
 441 -180 441 -180 437.5 -170.5 c 128,-1,3
 434 -161 434 -161 435.5 -151.5 c 128,-1,4
 437 -142 437 -142 444 -135 c 128,-1,5
 451 -128 451 -128 464 -128 c 0,6,7
 519 -124 519 -124 547.5 -98.5 c 128,-1,8
 576 -73 576 -73 576 -15 c 2,9,-1
 576 37 l 1,10,-1
 590 0 l 1,11,-1
 141 599 l 1,12,-1
 164 599 l 1,13,-1
 164 34 l 2,14,15
 164 14 164 14 154 3.5 c 128,-1,16
 144 -7 144 -7 126 -7 c 0,17,18
 107 -7 107 -7 97 3.5 c 128,-1,19
 87 14 87 14 87 34 c 2,20,-1
 87 670 l 2,21,22
 87 690 87 690 97 701 c 128,-1,23
 107 712 107 712 123 712 c 256,24,25
 139 712 139 712 146.5 706.5 c 128,-1,26
 154 701 154 701 164 687 c 2,27,-1
 600 106 l 1,28,-1
 576 106 l 1,29,-1
 576 672 l 2,30,31
 576 691 576 691 586 701.5 c 128,-1,32
 596 712 596 712 615 712 c 0,33,34
 633 712 633 712 642.5 701.5 c 128,-1,35
 652 691 652 691 652 672 c 2,36,-1
 652 -7 l 2,37,38
 652 -102 652 -102 606 -144.5 c 128,-1,39
 560 -187 560 -187 475 -191 c 0,0,1
EndSplineSet
EndChar

StartChar: O
Encoding: 79 79 129
Width: 767
GlyphClass: 2
Flags: W
AnchorPoint: "Anchor-5" 384 353 basechar 0
AnchorPoint: "Anchor-3" 440 0 basechar 0
AnchorPoint: "Anchor-2" 383 0 basechar 0
AnchorPoint: "Anchor-1" 454 705 basechar 0
AnchorPoint: "Anchor-0" 383 705 basechar 0
LayerCount: 2
Fore
SplineSet
383 -9 m 0,0,1
 285 -9 285 -9 212.5 35.5 c 128,-1,2
 140 80 140 80 100.5 161 c 128,-1,3
 61 242 61 242 61 353 c 0,4,5
 61 437 61 437 83.5 503.5 c 128,-1,6
 106 570 106 570 148 616.5 c 128,-1,7
 190 663 190 663 249.5 688.5 c 128,-1,8
 309 714 309 714 383 714 c 0,9,10
 483 714 483 714 555.5 670 c 128,-1,11
 628 626 628 626 667.5 545.5 c 128,-1,12
 707 465 707 465 707 354 c 0,13,14
 707 270 707 270 684 203 c 128,-1,15
 661 136 661 136 619 89 c 128,-1,16
 577 42 577 42 517.5 16.5 c 128,-1,17
 458 -9 458 -9 383 -9 c 0,0,1
383 64 m 0,18,19
 459 64 459 64 511.5 98 c 128,-1,20
 564 132 564 132 592 197 c 128,-1,21
 620 262 620 262 620 353 c 0,22,23
 620 490 620 490 558.5 565.5 c 128,-1,24
 497 641 497 641 383 641 c 0,25,26
 309 641 309 641 256.5 607 c 128,-1,27
 204 573 204 573 176 508.5 c 128,-1,28
 148 444 148 444 148 353 c 0,29,30
 148 217 148 217 210 140.5 c 128,-1,31
 272 64 272 64 383 64 c 0,18,19
EndSplineSet
Substitution2: "Single Substitution lookup 29 subtable" ordmasculine
Substitution2: "'aalt' Access All Alternates lookup 0 subtable" ordmasculine
EndChar

StartChar: OE
Encoding: 338 338 163
Width: 1046
GlyphClass: 2
Flags: W
AnchorPoint: "Anchor-2" 591 0 basechar 0
AnchorPoint: "Anchor-0" 591 705 basechar 0
LayerCount: 2
Fore
SplineSet
418 0 m 2,0,1
 246 0 246 0 153.5 91 c 128,-1,2
 61 182 61 182 61 353 c 0,3,4
 61 439 61 439 84.5 504.5 c 128,-1,5
 108 570 108 570 154 615 c 128,-1,6
 200 660 200 660 266 682.5 c 128,-1,7
 332 705 332 705 418 705 c 2,8,-1
 967 705 l 2,9,10
 984 705 984 705 993.5 696 c 128,-1,11
 1003 687 1003 687 1003 671 c 0,12,13
 1003 654 1003 654 993.5 645 c 128,-1,14
 984 636 984 636 967 636 c 2,15,-1
 631 636 l 1,16,-1
 631 392 l 1,17,-1
 946 392 l 2,18,19
 964 392 964 392 973 383.5 c 128,-1,20
 982 375 982 375 982 358 c 256,21,22
 982 341 982 341 973 332 c 128,-1,23
 964 323 964 323 946 323 c 2,24,-1
 631 323 l 1,25,-1
 631 69 l 1,26,-1
 967 69 l 2,27,28
 984 69 984 69 993.5 60 c 128,-1,29
 1003 51 1003 51 1003 35 c 0,30,31
 1003 18 1003 18 993.5 9 c 128,-1,32
 984 0 984 0 967 0 c 2,33,-1
 418 0 l 2,0,1
424 70 m 2,34,-1
 551 70 l 1,35,-1
 551 635 l 1,36,-1
 424 635 l 2,37,38
 355 635 355 635 303 617.5 c 128,-1,39
 251 600 251 600 216.5 564.5 c 128,-1,40
 182 529 182 529 165 476 c 128,-1,41
 148 423 148 423 148 353 c 0,42,43
 148 212 148 212 216.5 141 c 128,-1,44
 285 70 285 70 424 70 c 2,34,-1
EndSplineSet
EndChar

StartChar: P
Encoding: 80 80 164
Width: 633
GlyphClass: 2
Flags: W
AnchorPoint: "Anchor-2" 324 0 basechar 0
AnchorPoint: "Anchor-0" 324 705 basechar 0
LayerCount: 2
Fore
SplineSet
128 -7 m 0,0,1
 108 -7 108 -7 97.5 4.5 c 128,-1,2
 87 16 87 16 87 36 c 2,3,-1
 87 663 l 2,4,5
 87 684 87 684 98 694.5 c 128,-1,6
 109 705 109 705 129 705 c 2,7,-1
 366 705 l 2,8,9
 479 705 479 705 540 649.5 c 128,-1,10
 601 594 601 594 601 493 c 0,11,12
 601 393 601 393 540 337 c 128,-1,13
 479 281 479 281 366 281 c 2,14,-1
 169 281 l 1,15,-1
 169 36 l 2,16,17
 169 16 169 16 159 4.5 c 128,-1,18
 149 -7 149 -7 128 -7 c 0,0,1
169 350 m 1,19,-1
 356 350 l 2,20,21
 437 350 437 350 478.5 386.5 c 128,-1,22
 520 423 520 423 520 493 c 0,23,24
 520 564 520 564 478.5 600.5 c 128,-1,25
 437 637 437 637 356 637 c 2,26,-1
 169 637 l 1,27,-1
 169 350 l 1,19,-1
EndSplineSet
EndChar

StartChar: Thorn
Encoding: 222 222 165
Width: 634
GlyphClass: 2
Flags: W
AnchorPoint: "Anchor-2" 324 0 basechar 0
AnchorPoint: "Anchor-0" 324 705 basechar 0
LayerCount: 2
Fore
SplineSet
128 -5 m 0,0,1
 108 -5 108 -5 97.5 6.5 c 128,-1,2
 87 18 87 18 87 38 c 2,3,-1
 87 667 l 2,4,5
 87 688 87 688 98 699 c 128,-1,6
 109 710 109 710 129 710 c 256,7,8
 149 710 149 710 159 699.5 c 128,-1,9
 169 689 169 689 169 671 c 2,10,-1
 169 577 l 1,11,-1
 367 577 l 2,12,13
 480 577 480 577 541 522 c 128,-1,14
 602 467 602 467 602 366 c 256,15,16
 602 265 602 265 541 209.5 c 128,-1,17
 480 154 480 154 367 154 c 2,18,-1
 169 154 l 1,19,-1
 169 38 l 2,20,21
 169 18 169 18 159 6.5 c 128,-1,22
 149 -5 149 -5 128 -5 c 0,0,1
169 222 m 1,23,-1
 357 222 l 2,24,25
 438 222 438 222 479 258.5 c 128,-1,26
 520 295 520 295 520 366 c 256,27,28
 520 437 520 437 479 473 c 128,-1,29
 438 509 438 509 357 509 c 2,30,-1
 169 509 l 1,31,-1
 169 222 l 1,23,-1
EndSplineSet
EndChar

StartChar: Q
Encoding: 81 81 166
Width: 767
GlyphClass: 2
Flags: W
AnchorPoint: "Anchor-5" 384 353 basechar 0
AnchorPoint: "Anchor-3" 440 0 basechar 0
AnchorPoint: "Anchor-2" 377 0 basechar 0
AnchorPoint: "Anchor-1" 454 705 basechar 0
AnchorPoint: "Anchor-0" 377 705 basechar 0
LayerCount: 2
Fore
SplineSet
627 -133 m 2,0,1
 637 -148 637 -148 635.5 -160.5 c 128,-1,2
 634 -173 634 -173 625.5 -181.5 c 128,-1,3
 617 -190 617 -190 605 -192.5 c 128,-1,4
 593 -195 593 -195 580.5 -189.5 c 128,-1,5
 568 -184 568 -184 559 -169 c 2,6,-1
 494 -66 l 2,7,8
 478 -38 478 -38 450 -23.5 c 128,-1,9
 422 -9 422 -9 383 -9 c 1,10,-1
 451 20 l 1,11,12
 498 20 498 20 525.5 3.5 c 128,-1,13
 553 -13 553 -13 580 -57 c 2,14,-1
 627 -133 l 2,0,1
383 -9 m 0,15,16
 285 -9 285 -9 212.5 35.5 c 128,-1,17
 140 80 140 80 100.5 161 c 128,-1,18
 61 242 61 242 61 353 c 0,19,20
 61 437 61 437 83.5 503.5 c 128,-1,21
 106 570 106 570 148 616.5 c 128,-1,22
 190 663 190 663 249.5 688.5 c 128,-1,23
 309 714 309 714 383 714 c 0,24,25
 483 714 483 714 555.5 670 c 128,-1,26
 628 626 628 626 667.5 545.5 c 128,-1,27
 707 465 707 465 707 354 c 0,28,29
 707 270 707 270 684 203 c 128,-1,30
 661 136 661 136 619 89 c 128,-1,31
 577 42 577 42 517.5 16.5 c 128,-1,32
 458 -9 458 -9 383 -9 c 0,15,16
383 64 m 0,33,34
 459 64 459 64 511.5 98 c 128,-1,35
 564 132 564 132 592 197 c 128,-1,36
 620 262 620 262 620 353 c 0,37,38
 620 490 620 490 558.5 565.5 c 128,-1,39
 497 641 497 641 383 641 c 0,40,41
 309 641 309 641 256.5 607 c 128,-1,42
 204 573 204 573 176 508.5 c 128,-1,43
 148 444 148 444 148 353 c 0,44,45
 148 217 148 217 210 140.5 c 128,-1,46
 272 64 272 64 383 64 c 0,33,34
EndSplineSet
EndChar

StartChar: R
Encoding: 82 82 167
Width: 669
GlyphClass: 2
Flags: W
AnchorPoint: "Anchor-2" 341 0 basechar 0
AnchorPoint: "Anchor-0" 341 705 basechar 0
LayerCount: 2
Fore
SplineSet
128 -7 m 0,0,1
 108 -7 108 -7 97.5 4.5 c 128,-1,2
 87 16 87 16 87 36 c 2,3,-1
 87 663 l 2,4,5
 87 684 87 684 98 694.5 c 128,-1,6
 109 705 109 705 129 705 c 2,7,-1
 366 705 l 2,8,9
 479 705 479 705 540 652 c 128,-1,10
 601 599 601 599 601 501 c 0,11,12
 601 439 601 439 573.5 393.5 c 128,-1,13
 546 348 546 348 493 324.5 c 128,-1,14
 440 301 440 301 366 301 c 1,15,-1
 376 314 l 1,16,-1
 396 314 l 2,17,18
 435 314 435 314 464 294 c 128,-1,19
 493 274 493 274 517 230 c 2,20,-1
 613 51 l 2,21,22
 621 37 621 37 620.5 23.5 c 128,-1,23
 620 10 620 10 611 1.5 c 128,-1,24
 602 -7 602 -7 585 -7 c 256,25,26
 568 -7 568 -7 557 1 c 128,-1,27
 546 9 546 9 538 24 c 2,28,-1
 429 226 l 2,29,30
 406 269 406 269 376 283.5 c 128,-1,31
 346 298 346 298 297 298 c 2,32,-1
 169 298 l 1,33,-1
 169 36 l 2,34,35
 169 16 169 16 159 4.5 c 128,-1,36
 149 -7 149 -7 128 -7 c 0,0,1
169 363 m 1,37,-1
 354 363 l 2,38,39
 436 363 436 363 478 397.5 c 128,-1,40
 520 432 520 432 520 501 c 0,41,42
 520 568 520 568 478 602.5 c 128,-1,43
 436 637 436 637 354 637 c 2,44,-1
 169 637 l 1,45,-1
 169 363 l 1,37,-1
EndSplineSet
EndChar

StartChar: S
Encoding: 83 83 175
Width: 615
GlyphClass: 2
Flags: W
AnchorPoint: "Anchor-2" 316 0 basechar 0
AnchorPoint: "Anchor-0" 314 705 basechar 0
LayerCount: 2
Fore
SplineSet
315 -9 m 0,0,1
 268 -9 268 -9 223 -1 c 128,-1,2
 178 7 178 7 139.5 22 c 128,-1,3
 101 37 101 37 70 60 c 0,4,5
 58 69 58 69 53.5 80.5 c 128,-1,6
 49 92 49 92 51.5 103.5 c 128,-1,7
 54 115 54 115 61.5 123 c 128,-1,8
 69 131 69 131 80 132 c 128,-1,9
 91 133 91 133 104 125 c 0,10,11
 149 93 149 93 200 78.5 c 128,-1,12
 251 64 251 64 315 64 c 0,13,14
 405 64 405 64 448.5 97.5 c 128,-1,15
 492 131 492 131 492 186 c 0,16,17
 492 231 492 231 460.5 256.5 c 128,-1,18
 429 282 429 282 355 297 c 2,19,-1
 251 318 l 2,20,21
 157 338 157 338 110.5 383.5 c 128,-1,22
 64 429 64 429 64 505 c 0,23,24
 64 552 64 552 83 590.5 c 128,-1,25
 102 629 102 629 136 656.5 c 128,-1,26
 170 684 170 684 217 699 c 128,-1,27
 264 714 264 714 321 714 c 0,28,29
 384 714 384 714 438.5 696.5 c 128,-1,30
 493 679 493 679 537 644 c 0,31,32
 548 635 548 635 552 623.5 c 128,-1,33
 556 612 556 612 553 601.5 c 128,-1,34
 550 591 550 591 542.5 584 c 128,-1,35
 535 577 535 577 523.5 576 c 128,-1,36
 512 575 512 575 498 584 c 0,37,38
 458 614 458 614 415 627.5 c 128,-1,39
 372 641 372 641 320 641 c 0,40,41
 267 641 267 641 228.5 625 c 128,-1,42
 190 609 190 609 168.5 578.5 c 128,-1,43
 147 548 147 548 147 508 c 0,44,45
 147 460 147 460 176.5 432 c 128,-1,46
 206 404 206 404 273 391 c 2,47,-1
 377 369 l 2,48,49
 478 348 478 348 526.5 305.5 c 128,-1,50
 575 263 575 263 575 190 c 0,51,52
 575 146 575 146 557 109 c 128,-1,53
 539 72 539 72 505 45.5 c 128,-1,54
 471 19 471 19 423 5 c 128,-1,55
 375 -9 375 -9 315 -9 c 0,0,1
EndSplineSet
EndChar

StartChar: uni1E9E
Encoding: 7838 7838 186
Width: 713
GlyphClass: 1
Flags: W
LayerCount: 2
Fore
SplineSet
431 -9 m 0,0,1
 379 -9 379 -9 333.5 4 c 128,-1,2
 288 17 288 17 254 41 c 0,3,4
 243 49 243 49 239.5 59.5 c 128,-1,5
 236 70 236 70 238.5 80.5 c 128,-1,6
 241 91 241 91 248 98.5 c 128,-1,7
 255 106 255 106 265 107.5 c 128,-1,8
 275 109 275 109 286 102 c 0,9,10
 318 79 318 79 352.5 70 c 128,-1,11
 387 61 387 61 425 61 c 0,12,13
 496 61 496 61 532.5 96 c 128,-1,14
 569 131 569 131 569 192 c 0,15,16
 569 254 569 254 529.5 287 c 128,-1,17
 490 320 490 320 409 320 c 2,18,-1
 306 320 l 2,19,20
 290 320 290 320 280 329 c 128,-1,21
 270 338 270 338 270 355 c 0,22,23
 270 371 270 371 279.5 379.5 c 128,-1,24
 289 388 289 388 303 388 c 2,25,-1
 386 388 l 2,26,27
 452 388 452 388 491.5 421 c 128,-1,28
 531 454 531 454 531 516 c 0,29,30
 531 579 531 579 489 611.5 c 128,-1,31
 447 644 447 644 368 644 c 0,32,33
 270 644 270 644 219.5 598 c 128,-1,34
 169 552 169 552 169 459 c 2,35,-1
 169 36 l 2,36,37
 169 16 169 16 158.5 4.5 c 128,-1,38
 148 -7 148 -7 128 -7 c 256,39,40
 108 -7 108 -7 97.5 4.5 c 128,-1,41
 87 16 87 16 87 36 c 2,42,-1
 87 461 l 2,43,44
 87 544 87 544 120.5 600.5 c 128,-1,45
 154 657 154 657 217.5 685.5 c 128,-1,46
 281 714 281 714 370 714 c 0,47,48
 444 714 444 714 498.5 691 c 128,-1,49
 553 668 553 668 583 626.5 c 128,-1,50
 613 585 613 585 613 527 c 0,51,52
 613 462 613 462 578.5 415 c 128,-1,53
 544 368 544 368 484 353 c 1,54,-1
 484 369 l 1,55,56
 535 363 535 363 572 339.5 c 128,-1,57
 609 316 609 316 629.5 278 c 128,-1,58
 650 240 650 240 650 188 c 0,59,60
 650 125 650 125 624 81 c 128,-1,61
 598 37 598 37 549 14 c 128,-1,62
 500 -9 500 -9 431 -9 c 0,0,1
EndSplineSet
EndChar

StartChar: T
Encoding: 84 84 187
Width: 602
GlyphClass: 2
Flags: W
AnchorPoint: "Anchor-5" 301 358 basechar 0
AnchorPoint: "Anchor-2" 301 0 basechar 0
AnchorPoint: "Anchor-0" 301 705 basechar 0
LayerCount: 2
Fore
SplineSet
301 -7 m 0,0,1
 282 -7 282 -7 271 4.5 c 128,-1,2
 260 16 260 16 260 36 c 2,3,-1
 260 634 l 1,4,-1
 35 634 l 2,5,6
 17 634 17 634 7 644 c 128,-1,7
 -3 654 -3 654 -3 670 c 0,8,9
 -3 687 -3 687 7 696 c 128,-1,10
 17 705 17 705 35 705 c 2,11,-1
 568 705 l 2,12,13
 586 705 586 705 596 696 c 128,-1,14
 606 687 606 687 606 670 c 256,15,16
 606 653 606 653 596 643.5 c 128,-1,17
 586 634 586 634 568 634 c 2,18,-1
 343 634 l 1,19,-1
 343 36 l 2,20,21
 343 16 343 16 332.5 4.5 c 128,-1,22
 322 -7 322 -7 301 -7 c 0,0,1
EndSplineSet
EndChar

StartChar: U
Encoding: 85 85 194
Width: 728
GlyphClass: 2
Flags: W
AnchorPoint: "Anchor-3" 422 0 basechar 0
AnchorPoint: "Anchor-2" 365 0 basechar 0
AnchorPoint: "Anchor-1" 581 705 basechar 0
AnchorPoint: "Anchor-0" 365 705 basechar 0
LayerCount: 2
Fore
SplineSet
365 -9 m 0,0,1
 295 -9 295 -9 242.5 9.5 c 128,-1,2
 190 28 190 28 154 64.5 c 128,-1,3
 118 101 118 101 100 155 c 128,-1,4
 82 209 82 209 82 279 c 2,5,-1
 82 670 l 2,6,7
 82 691 82 691 92.5 701.5 c 128,-1,8
 103 712 103 712 123 712 c 256,9,10
 143 712 143 712 153.5 701.5 c 128,-1,11
 164 691 164 691 164 670 c 2,12,-1
 164 283 l 2,13,14
 164 173 164 173 215 118.5 c 128,-1,15
 266 64 266 64 365 64 c 256,16,17
 464 64 464 64 514 118.5 c 128,-1,18
 564 173 564 173 564 283 c 2,19,-1
 564 670 l 2,20,21
 564 691 564 691 575 701.5 c 128,-1,22
 586 712 586 712 606 712 c 0,23,24
 625 712 625 712 635.5 701.5 c 128,-1,25
 646 691 646 691 646 670 c 2,26,-1
 646 279 l 2,27,28
 646 186 646 186 614.5 121 c 128,-1,29
 583 56 583 56 520 23.5 c 128,-1,30
 457 -9 457 -9 365 -9 c 0,0,1
EndSplineSet
EndChar

StartChar: V
Encoding: 86 86 217
Width: 689
GlyphClass: 2
Flags: W
AnchorPoint: "Anchor-2" 345 0 basechar 0
AnchorPoint: "Anchor-0" 344 705 basechar 0
LayerCount: 2
Fore
SplineSet
345 -7 m 256,0,1
 326 -7 326 -7 314 2 c 128,-1,2
 302 11 302 11 295 29 c 2,3,-1
 20 658 l 2,4,5
 13 675 13 675 16 686.5 c 128,-1,6
 19 698 19 698 29.5 705 c 128,-1,7
 40 712 40 712 54 712 c 0,8,9
 73 712 73 712 82.5 703.5 c 128,-1,10
 92 695 92 695 98 679 c 2,11,-1
 362 66 l 1,12,-1
 330 66 l 1,13,-1
 593 680 l 2,14,15
 600 695 600 695 610 703.5 c 128,-1,16
 620 712 620 712 638 712 c 0,17,18
 652 712 652 712 661.5 705 c 128,-1,19
 671 698 671 698 673.5 686 c 128,-1,20
 676 674 676 674 669 658 c 2,21,-1
 394 29 l 2,22,23
 387 11 387 11 375.5 2 c 128,-1,24
 364 -7 364 -7 345 -7 c 256,0,1
EndSplineSet
EndChar

StartChar: W
Encoding: 87 87 218
Width: 1101
GlyphClass: 2
Flags: W
AnchorPoint: "Anchor-2" 551 0 basechar 0
AnchorPoint: "Anchor-0" 551 705 basechar 0
LayerCount: 2
Fore
SplineSet
313 -7 m 0,0,1
 295 -7 295 -7 284 2.5 c 128,-1,2
 273 12 273 12 266 31 c 2,3,-1
 45 662 l 2,4,5
 38 683 38 683 48.5 697.5 c 128,-1,6
 59 712 59 712 82 712 c 0,7,8
 99 712 99 712 109 703.5 c 128,-1,9
 119 695 119 695 126 677 c 2,10,-1
 333 70 l 1,11,-1
 298 70 l 1,12,-1
 509 674 l 2,13,14
 516 693 516 693 526 702.5 c 128,-1,15
 536 712 536 712 553 712 c 0,16,17
 569 712 569 712 578.5 702.5 c 128,-1,18
 588 693 588 693 595 674 c 2,19,-1
 803 70 l 1,20,-1
 772 70 l 1,21,-1
 981 677 l 2,22,23
 986 694 986 694 996.5 703 c 128,-1,24
 1007 712 1007 712 1024 712 c 0,25,26
 1045 712 1045 712 1055 698 c 128,-1,27
 1065 684 1065 684 1057 662 c 2,28,-1
 835 31 l 2,29,30
 828 12 828 12 817.5 2.5 c 128,-1,31
 807 -7 807 -7 788 -7 c 0,32,33
 770 -7 770 -7 759.5 2.5 c 128,-1,34
 749 12 749 12 741 31 c 2,35,-1
 540 610 l 1,36,-1
 562 610 l 1,37,-1
 359 31 l 2,38,39
 352 12 352 12 342 2.5 c 128,-1,40
 332 -7 332 -7 313 -7 c 0,0,1
EndSplineSet
EndChar

StartChar: X
Encoding: 88 88 223
Width: 650
GlyphClass: 2
Flags: W
AnchorPoint: "Anchor-2" 326 0 basechar 0
AnchorPoint: "Anchor-0" 325 705 basechar 0
LayerCount: 2
Fore
SplineSet
78 -7 m 0,0,1
 61 -7 61 -7 50.5 2 c 128,-1,2
 40 11 40 11 38.5 24 c 128,-1,3
 37 37 37 37 48 50 c 2,4,-1
 290 376 l 1,5,-1
 290 345 l 1,6,-1
 62 653 l 2,7,8
 51 668 51 668 52 681 c 128,-1,9
 53 694 53 694 63.5 703 c 128,-1,10
 74 712 74 712 89 712 c 0,11,12
 103 712 103 712 113 706 c 128,-1,13
 123 700 123 700 134 685 c 2,14,-1
 339 404 l 1,15,-1
 313 404 l 1,16,-1
 517 685 l 2,17,18
 527 700 527 700 537 706 c 128,-1,19
 547 712 547 712 561 712 c 0,20,21
 577 712 577 712 587.5 703.5 c 128,-1,22
 598 695 598 695 599 681.5 c 128,-1,23
 600 668 600 668 589 653 c 2,24,-1
 361 345 l 1,25,-1
 361 376 l 1,26,-1
 603 50 l 2,27,28
 613 37 613 37 611.5 24 c 128,-1,29
 610 11 610 11 600 2 c 128,-1,30
 590 -7 590 -7 573 -7 c 0,31,32
 560 -7 560 -7 549.5 -0.5 c 128,-1,33
 539 6 539 6 528 20 c 2,34,-1
 309 319 l 1,35,-1
 341 319 l 1,36,-1
 122 20 l 2,37,38
 112 6 112 6 101 -0.5 c 128,-1,39
 90 -7 90 -7 78 -7 c 0,0,1
EndSplineSet
EndChar

StartChar: Y
Encoding: 89 89 224
Width: 596
GlyphClass: 2
Flags: W
AnchorPoint: "Anchor-2" 298 0 basechar 0
AnchorPoint: "Anchor-0" 298 705 basechar 0
LayerCount: 2
Fore
SplineSet
298 -7 m 0,0,1
 278 -7 278 -7 267.5 4.5 c 128,-1,2
 257 16 257 16 257 37 c 2,3,-1
 257 365 l 1,4,-1
 275 308 l 1,5,-1
 24 654 l 2,6,7
 15 667 15 667 15.5 680.5 c 128,-1,8
 16 694 16 694 26 703 c 128,-1,9
 36 712 36 712 52 712 c 0,10,11
 66 712 66 712 77 705.5 c 128,-1,12
 88 699 88 699 97 685 c 2,13,-1
 310 391 l 1,14,-1
 289 391 l 1,15,-1
 502 685 l 2,16,17
 513 700 513 700 523 706 c 128,-1,18
 533 712 533 712 547 712 c 0,19,20
 563 712 563 712 572 703.5 c 128,-1,21
 581 695 581 695 581.5 681.5 c 128,-1,22
 582 668 582 668 572 653 c 2,23,-1
 322 308 l 1,24,-1
 339 365 l 1,25,-1
 339 37 l 2,26,27
 339 -7 339 -7 298 -7 c 0,0,1
EndSplineSet
EndChar

StartChar: uni01B3
Encoding: 435 435 231
Width: 613
GlyphClass: 1
Flags: W
LayerCount: 2
Fore
SplineSet
298 -7 m 0,0,1
 278 -7 278 -7 267.5 4.5 c 128,-1,2
 257 16 257 16 257 38 c 2,3,-1
 257 365 l 1,4,-1
 275 308 l 1,5,-1
 24 654 l 2,6,7
 15 667 15 667 16 680.5 c 128,-1,8
 17 694 17 694 26.5 703 c 128,-1,9
 36 712 36 712 52 712 c 0,10,11
 64 712 64 712 71.5 709.5 c 128,-1,12
 79 707 79 707 85 700.5 c 128,-1,13
 91 694 91 694 100 682 c 2,14,-1
 310 391 l 1,15,-1
 290 391 l 1,16,-1
 459 633 l 2,17,18
 478 660 478 660 500.5 678 c 128,-1,19
 523 696 523 696 549.5 704.5 c 128,-1,20
 576 713 576 713 606 713 c 0,21,22
 637 713 637 713 654.5 706 c 128,-1,23
 672 699 672 699 672 676 c 0,24,25
 672 667 672 667 668.5 660.5 c 128,-1,26
 665 654 665 654 659 651 c 128,-1,27
 653 648 653 648 645 648 c 0,28,29
 640 649 640 649 631.5 649.5 c 128,-1,30
 623 650 623 650 618 650 c 0,31,32
 594 650 594 650 570 638.5 c 128,-1,33
 546 627 546 627 526 600 c 2,34,-1
 322 308 l 1,35,-1
 339 365 l 1,36,-1
 339 38 l 2,37,38
 339 -7 339 -7 298 -7 c 0,0,1
EndSplineSet
EndChar

StartChar: Z
Encoding: 90 90 235
Width: 589
GlyphClass: 2
Flags: W
AnchorPoint: "Anchor-2" 307 0 basechar 0
AnchorPoint: "Anchor-0" 306 705 basechar 0
LayerCount: 2
Fore
SplineSet
86 0 m 2,0,1
 70 0 70 0 60 6.5 c 128,-1,2
 50 13 50 13 46 24.5 c 128,-1,3
 42 36 42 36 45.5 50.5 c 128,-1,4
 49 65 49 65 61 80 c 2,5,-1
 477 666 l 1,6,-1
 477 634 l 1,7,-1
 80 634 l 2,8,9
 61 634 61 634 51 643.5 c 128,-1,10
 41 653 41 653 41 670 c 256,11,12
 41 687 41 687 51 696 c 128,-1,13
 61 705 61 705 80 705 c 2,14,-1
 514 705 l 2,15,16
 530 705 530 705 540.5 698.5 c 128,-1,17
 551 692 551 692 554.5 681 c 128,-1,18
 558 670 558 670 554.5 655 c 128,-1,19
 551 640 551 640 540 625 c 2,20,-1
 124 40 l 1,21,-1
 124 71 l 1,22,-1
 535 71 l 2,23,24
 554 71 554 71 564 62 c 128,-1,25
 574 53 574 53 574 36 c 0,26,27
 574 18 574 18 564 9 c 128,-1,28
 554 0 554 0 535 0 c 2,29,-1
 86 0 l 2,0,1
EndSplineSet
EndChar

StartChar: a
Encoding: 97 97 242
Width: 530
GlyphClass: 2
Flags: W
AnchorPoint: "Anchor-3" 440 0 basechar 0
AnchorPoint: "Anchor-2" 268 0 basechar 0
AnchorPoint: "Anchor-0" 272 484 basechar 0
LayerCount: 2
Fore
SplineSet
229 -9 m 0,0,1
 179 -9 179 -9 139.5 10.5 c 128,-1,2
 100 30 100 30 77 64 c 128,-1,3
 54 98 54 98 54 140 c 0,4,5
 54 194 54 194 81.5 225 c 128,-1,6
 109 256 109 256 172.5 269 c 128,-1,7
 236 282 236 282 346 282 c 2,8,-1
 391 282 l 1,9,-1
 391 229 l 1,10,-1
 347 229 l 2,11,12
 266 229 266 229 219.5 221.5 c 128,-1,13
 173 214 173 214 154.5 196 c 128,-1,14
 136 178 136 178 136 145 c 0,15,16
 136 104 136 104 164.5 78 c 128,-1,17
 193 52 193 52 242 52 c 0,18,19
 282 52 282 52 312.5 71 c 128,-1,20
 343 90 343 90 360.5 123 c 128,-1,21
 378 156 378 156 378 199 c 2,22,-1
 378 313 l 2,23,24
 378 375 378 375 353 402.5 c 128,-1,25
 328 430 328 430 271 430 c 0,26,27
 236 430 236 430 201 421 c 128,-1,28
 166 412 166 412 127 392 c 0,29,30
 113 385 113 385 103 387.5 c 128,-1,31
 93 390 93 390 87 398 c 128,-1,32
 81 406 81 406 80 416.5 c 128,-1,33
 79 427 79 427 84.5 437 c 128,-1,34
 90 447 90 447 102 453 c 0,35,36
 146 475 146 475 189 485 c 128,-1,37
 232 495 232 495 271 495 c 0,38,39
 334 495 334 495 375 474.5 c 128,-1,40
 416 454 416 454 436 412.5 c 128,-1,41
 456 371 456 371 456 306 c 2,42,-1
 456 35 l 2,43,44
 456 15 456 15 446.5 4 c 128,-1,45
 437 -7 437 -7 419 -7 c 0,46,47
 400 -7 400 -7 390 4 c 128,-1,48
 380 15 380 15 380 35 c 2,49,-1
 380 113 l 1,50,-1
 389 113 l 1,51,52
 381 75 381 75 358.5 48 c 128,-1,53
 336 21 336 21 303 6 c 128,-1,54
 270 -9 270 -9 229 -9 c 0,0,1
EndSplineSet
Substitution2: "'ss01' Style Set 1 lookup 35 subtable" a.ss01
Substitution2: "'salt' Stylistic Alternatives lookup 34 subtable" a.ss01
Substitution2: "Single Substitution lookup 29 subtable" ordfeminine
AlternateSubs2: "'aalt' Access All Alternates lookup 1 subtable" a.ss01 ordfeminine
EndChar

StartChar: aogonek
Encoding: 261 261 265
Width: 530
GlyphClass: 1
Flags: W
LayerCount: 2
Fore
SplineSet
421 -192 m 0,0,1
 373 -192 373 -192 344.5 -166 c 128,-1,2
 316 -140 316 -140 316 -95 c 0,3,4
 316 -59 316 -59 337 -26.5 c 128,-1,5
 358 6 358 6 395 27 c 1,6,-1
 388 7 l 1,7,8
 383 13 383 13 381.5 20 c 128,-1,9
 380 27 380 27 380 36 c 2,10,-1
 380 113 l 1,11,-1
 389 113 l 1,12,13
 381 75 381 75 358.5 48 c 128,-1,14
 336 21 336 21 303 6 c 128,-1,15
 270 -9 270 -9 229 -9 c 0,16,17
 179 -9 179 -9 139.5 10.5 c 128,-1,18
 100 30 100 30 77 64 c 128,-1,19
 54 98 54 98 54 140 c 0,20,21
 54 194 54 194 81.5 225 c 128,-1,22
 109 256 109 256 172.5 269 c 128,-1,23
 236 282 236 282 346 282 c 2,24,-1
 391 282 l 1,25,-1
 391 229 l 1,26,-1
 347 229 l 2,27,28
 266 229 266 229 219.5 221.5 c 128,-1,29
 173 214 173 214 154.5 196 c 128,-1,30
 136 178 136 178 136 145 c 0,31,32
 136 104 136 104 164.5 78 c 128,-1,33
 193 52 193 52 242 52 c 0,34,35
 282 52 282 52 312.5 71 c 128,-1,36
 343 90 343 90 360.5 123 c 128,-1,37
 378 156 378 156 378 199 c 2,38,-1
 378 313 l 2,39,40
 378 375 378 375 353 402.5 c 128,-1,41
 328 430 328 430 271 430 c 0,42,43
 236 430 236 430 201 421 c 128,-1,44
 166 412 166 412 127 392 c 0,45,46
 113 385 113 385 103 387.5 c 128,-1,47
 93 390 93 390 87 398 c 128,-1,48
 81 406 81 406 80 416.5 c 128,-1,49
 79 427 79 427 84.5 437 c 128,-1,50
 90 447 90 447 102 453 c 0,51,52
 146 475 146 475 189 485 c 128,-1,53
 232 495 232 495 271 495 c 0,54,55
 334 495 334 495 375 474.5 c 128,-1,56
 416 454 416 454 436 412.5 c 128,-1,57
 456 371 456 371 456 306 c 2,58,-1
 456 35 l 2,59,60
 456 18 456 18 449.5 8.5 c 128,-1,61
 443 -1 443 -1 431 -6 c 0,62,63
 409 -18 409 -18 391.5 -38 c 128,-1,64
 374 -58 374 -58 374 -86 c 256,65,66
 374 -114 374 -114 390.5 -128 c 128,-1,67
 407 -142 407 -142 432 -142 c 0,68,69
 441 -142 441 -142 449.5 -140.5 c 128,-1,70
 458 -139 458 -139 466 -136 c 0,71,72
 480 -132 480 -132 487.5 -137 c 128,-1,73
 495 -142 495 -142 497 -151.5 c 128,-1,74
 499 -161 499 -161 495 -170 c 128,-1,75
 491 -179 491 -179 480 -183 c 0,76,77
 465 -189 465 -189 450 -190.5 c 128,-1,78
 435 -192 435 -192 421 -192 c 0,0,1
EndSplineSet
Substitution2: "'ss01' Style Set 1 lookup 35 subtable" aogonek.ss01
Substitution2: "'salt' Stylistic Alternatives lookup 34 subtable" aogonek.ss01
Substitution2: "'aalt' Access All Alternates lookup 0 subtable" aogonek.ss01
EndChar

StartChar: ae
Encoding: 230 230 269
Width: 861
GlyphClass: 2
Flags: W
AnchorPoint: "Anchor-2" 416 0 basechar 0
AnchorPoint: "Anchor-0" 416 484 basechar 0
LayerCount: 2
Fore
SplineSet
234 -9 m 0,0,1
 182 -9 182 -9 141.5 10.5 c 128,-1,2
 101 30 101 30 77.5 64 c 128,-1,3
 54 98 54 98 54 140 c 0,4,5
 54 194 54 194 82 225 c 128,-1,6
 110 256 110 256 174 269 c 128,-1,7
 238 282 238 282 347 282 c 2,8,-1
 392 282 l 1,9,-1
 392 228 l 1,10,-1
 347 228 l 2,11,12
 266 228 266 228 219.5 221 c 128,-1,13
 173 214 173 214 154.5 196 c 128,-1,14
 136 178 136 178 136 145 c 0,15,16
 136 104 136 104 165 78 c 128,-1,17
 194 52 194 52 244 52 c 0,18,19
 285 52 285 52 316 71.5 c 128,-1,20
 347 91 347 91 364 125.5 c 128,-1,21
 381 160 381 160 381 204 c 2,22,-1
 381 312 l 2,23,24
 381 374 381 374 354.5 402 c 128,-1,25
 328 430 328 430 272 430 c 0,26,27
 237 430 237 430 201.5 421 c 128,-1,28
 166 412 166 412 127 392 c 0,29,30
 114 385 114 385 103.5 387.5 c 128,-1,31
 93 390 93 390 87 398 c 128,-1,32
 81 406 81 406 80.5 416.5 c 128,-1,33
 80 427 80 427 85 437 c 128,-1,34
 90 447 90 447 103 453 c 0,35,36
 146 475 146 475 189.5 485 c 128,-1,37
 233 495 233 495 273 495 c 0,38,39
 346 495 346 495 388 465 c 128,-1,40
 430 435 430 435 444 374 c 1,41,-1
 421 374 l 1,42,43
 446 433 446 433 497.5 464 c 128,-1,44
 549 495 549 495 613 496 c 0,45,46
 661 496 661 496 699 479.5 c 128,-1,47
 737 463 737 463 764 432.5 c 128,-1,48
 791 402 791 402 805 358 c 128,-1,49
 819 314 819 314 819 258 c 2,50,-1
 819 255 l 2,51,52
 819 241 819 241 810.5 234.5 c 128,-1,53
 802 228 802 228 785 228 c 2,54,-1
 451 228 l 1,55,-1
 451 282 l 1,56,-1
 765 282 l 1,57,-1
 750 269 l 1,58,59
 750 321 750 321 734 358 c 128,-1,60
 718 395 718 395 687.5 415 c 128,-1,61
 657 435 657 435 612 435 c 0,62,63
 566 435 566 435 531.5 413 c 128,-1,64
 497 391 497 391 478.5 350.5 c 128,-1,65
 460 310 460 310 460 253 c 2,66,-1
 460 246 l 2,67,68
 460 154 460 154 502 105 c 128,-1,69
 544 56 544 56 626 56 c 0,70,71
 657 56 657 56 691.5 65 c 128,-1,72
 726 74 726 74 758 95 c 0,73,74
 771 104 771 104 782.5 103.5 c 128,-1,75
 794 103 794 103 801.5 96.5 c 128,-1,76
 809 90 809 90 811.5 80.5 c 128,-1,77
 814 71 814 71 809 60 c 128,-1,78
 804 49 804 49 792 41 c 0,79,80
 759 17 759 17 715 4 c 128,-1,81
 671 -9 671 -9 627 -9 c 0,82,83
 542 -9 542 -9 483.5 30 c 128,-1,84
 425 69 425 69 404 145 c 1,85,-1
 424 145 l 1,86,87
 410 74 410 74 360 32.5 c 128,-1,88
 310 -9 310 -9 234 -9 c 0,0,1
EndSplineSet
EndChar

StartChar: b
Encoding: 98 98 271
Width: 583
GlyphClass: 2
Flags: W
AnchorPoint: "Anchor-2" 309 0 basechar 0
AnchorPoint: "Anchor-0" 306 705 basechar 0
LayerCount: 2
Fore
SplineSet
322 -9 m 0,0,1
 256 -9 256 -9 208.5 25 c 128,-1,2
 161 59 161 59 145 116 c 1,3,-1
 156 127 l 1,4,-1
 156 35 l 2,5,6
 156 15 156 15 145.5 4 c 128,-1,7
 135 -7 135 -7 116 -7 c 0,8,9
 96 -7 96 -7 86 4 c 128,-1,10
 76 15 76 15 76 35 c 2,11,-1
 76 671 l 2,12,13
 76 691 76 691 86 701.5 c 128,-1,14
 96 712 96 712 116 712 c 0,15,16
 135 712 135 712 146 701.5 c 128,-1,17
 157 691 157 691 157 671 c 2,18,-1
 157 373 l 1,19,-1
 145 373 l 1,20,21
 162 429 162 429 209 462 c 128,-1,22
 256 495 256 495 322 495 c 256,23,24
 388 495 388 495 436 464.5 c 128,-1,25
 484 434 484 434 510.5 377.5 c 128,-1,26
 537 321 537 321 537 243 c 0,27,28
 537 166 537 166 510.5 109.5 c 128,-1,29
 484 53 484 53 435.5 22 c 128,-1,30
 387 -9 387 -9 322 -9 c 0,0,1
305 56 m 0,31,32
 351 56 351 56 384.5 78 c 128,-1,33
 418 100 418 100 436.5 142 c 128,-1,34
 455 184 455 184 455 243 c 0,35,36
 455 334 455 334 414.5 382 c 128,-1,37
 374 430 374 430 305 430 c 0,38,39
 260 430 260 430 226 408.5 c 128,-1,40
 192 387 192 387 173.5 345.5 c 128,-1,41
 155 304 155 304 155 243 c 0,42,43
 155 153 155 153 196 104.5 c 128,-1,44
 237 56 237 56 305 56 c 0,31,32
EndSplineSet
EndChar

StartChar: uni0253
Encoding: 595 595 272
Width: 583
GlyphClass: 1
Flags: W
LayerCount: 2
Fore
SplineSet
322 -9 m 0,0,1
 256 -9 256 -9 208.5 25 c 128,-1,2
 161 59 161 59 145 116 c 1,3,-1
 156 127 l 1,4,-1
 156 35 l 2,5,6
 156 15 156 15 145.5 4 c 128,-1,7
 135 -7 135 -7 116 -7 c 0,8,9
 96 -7 96 -7 86 4 c 128,-1,10
 76 15 76 15 76 35 c 2,11,-1
 76 543 l 2,12,13
 76 624 76 624 118 668.5 c 128,-1,14
 160 713 160 713 241 713 c 0,15,16
 275 713 275 713 289 704 c 128,-1,17
 303 695 303 695 303 678 c 0,18,19
 303 663 303 663 296 653.5 c 128,-1,20
 289 644 289 644 277 645 c 0,21,22
 271 645 271 645 264.5 646 c 128,-1,23
 258 647 258 647 249 647 c 0,24,25
 204 647 204 647 180.5 621 c 128,-1,26
 157 595 157 595 157 545 c 2,27,-1
 157 373 l 1,28,-1
 145 373 l 1,29,30
 162 429 162 429 209 462 c 128,-1,31
 256 495 256 495 322 495 c 256,32,33
 388 495 388 495 436 464.5 c 128,-1,34
 484 434 484 434 510.5 377.5 c 128,-1,35
 537 321 537 321 537 243 c 0,36,37
 537 166 537 166 510.5 109.5 c 128,-1,38
 484 53 484 53 435.5 22 c 128,-1,39
 387 -9 387 -9 322 -9 c 0,0,1
305 56 m 0,40,41
 351 56 351 56 384.5 78 c 128,-1,42
 418 100 418 100 436.5 142 c 128,-1,43
 455 184 455 184 455 243 c 0,44,45
 455 334 455 334 414.5 382 c 128,-1,46
 374 430 374 430 305 430 c 0,47,48
 260 430 260 430 226 408.5 c 128,-1,49
 192 387 192 387 173.5 345.5 c 128,-1,50
 155 304 155 304 155 243 c 0,51,52
 155 153 155 153 196 104.5 c 128,-1,53
 237 56 237 56 305 56 c 0,40,41
EndSplineSet
EndChar

StartChar: c
Encoding: 99 99 273
Width: 463
GlyphClass: 2
Flags: W
AnchorPoint: "Anchor-2" 278 0 basechar 0
AnchorPoint: "Anchor-0" 278 484 basechar 0
LayerCount: 2
Fore
SplineSet
282 -9 m 0,0,1
 209 -9 209 -9 156 23 c 128,-1,2
 103 55 103 55 74.5 112.5 c 128,-1,3
 46 170 46 170 46 246 c 0,4,5
 46 304 46 304 62 350 c 128,-1,6
 78 396 78 396 109 428.5 c 128,-1,7
 140 461 140 461 183.5 478 c 128,-1,8
 227 495 227 495 282 495 c 0,9,10
 318 495 318 495 357 484 c 128,-1,11
 396 473 396 473 428 446 c 0,12,13
 438 439 438 439 441 429 c 128,-1,14
 444 419 444 419 441 409.5 c 128,-1,15
 438 400 438 400 431 393.5 c 128,-1,16
 424 387 424 387 413.5 386 c 128,-1,17
 403 385 403 385 392 393 c 0,18,19
 366 413 366 413 339 421 c 128,-1,20
 312 429 312 429 287 429 c 0,21,22
 248 429 248 429 219 416.5 c 128,-1,23
 190 404 190 404 170 381 c 128,-1,24
 150 358 150 358 139.5 324 c 128,-1,25
 129 290 129 290 129 245 c 0,26,27
 129 158 129 158 170 107.5 c 128,-1,28
 211 57 211 57 287 57 c 0,29,30
 312 57 312 57 338.5 65 c 128,-1,31
 365 73 365 73 392 93 c 0,32,33
 403 101 403 101 413 100 c 128,-1,34
 423 99 423 99 430 92.5 c 128,-1,35
 437 86 437 86 439.5 76 c 128,-1,36
 442 66 442 66 439 56.5 c 128,-1,37
 436 47 436 47 426 40 c 0,38,39
 394 14 394 14 356 2.5 c 128,-1,40
 318 -9 318 -9 282 -9 c 0,0,1
EndSplineSet
EndChar

StartChar: d
Encoding: 100 100 280
Width: 583
GlyphClass: 2
Flags: W
AnchorPoint: "Anchor-5" 291 245 basechar 0
AnchorPoint: "Anchor-4" 417 584 basechar 0
AnchorPoint: "Anchor-2" 294 0 basechar 0
AnchorPoint: "Anchor-1" 553 705 basechar 0
AnchorPoint: "Anchor-0" 292 705 basechar 0
LayerCount: 2
Fore
SplineSet
261 -9 m 0,0,1
 196 -9 196 -9 147.5 22 c 128,-1,2
 99 53 99 53 72.5 109.5 c 128,-1,3
 46 166 46 166 46 243 c 0,4,5
 46 321 46 321 72.5 377.5 c 128,-1,6
 99 434 99 434 147.5 464.5 c 128,-1,7
 196 495 196 495 261 495 c 0,8,9
 327 495 327 495 374 462 c 128,-1,10
 421 429 421 429 437 373 c 1,11,-1
 426 373 l 1,12,-1
 426 671 l 2,13,14
 426 691 426 691 436.5 701.5 c 128,-1,15
 447 712 447 712 467 712 c 0,16,17
 486 712 486 712 496.5 701.5 c 128,-1,18
 507 691 507 691 507 671 c 2,19,-1
 507 35 l 2,20,21
 507 15 507 15 497 4 c 128,-1,22
 487 -7 487 -7 467 -7 c 0,23,24
 448 -7 448 -7 437.5 4 c 128,-1,25
 427 15 427 15 427 35 c 2,26,-1
 427 130 l 1,27,-1
 438 116 l 1,28,29
 422 59 422 59 374.5 25 c 128,-1,30
 327 -9 327 -9 261 -9 c 0,0,1
278 56 m 0,31,32
 323 56 323 56 357 78 c 128,-1,33
 391 100 391 100 409.5 142 c 128,-1,34
 428 184 428 184 428 243 c 0,35,36
 428 334 428 334 387.5 382 c 128,-1,37
 347 430 347 430 278 430 c 0,38,39
 232 430 232 430 198.5 408.5 c 128,-1,40
 165 387 165 387 146.5 345.5 c 128,-1,41
 128 304 128 304 128 243 c 0,42,43
 128 153 128 153 169 104.5 c 128,-1,44
 210 56 210 56 278 56 c 0,31,32
EndSplineSet
EndChar

StartChar: eth
Encoding: 240 240 281
Width: 560
GlyphClass: 1
Flags: W
LayerCount: 2
Fore
SplineSet
276 -9 m 0,0,1
 207 -9 207 -9 155 20 c 128,-1,2
 103 49 103 49 74.5 101 c 128,-1,3
 46 153 46 153 46 223 c 0,4,5
 46 292 46 292 74.5 343.5 c 128,-1,6
 103 395 103 395 154 423.5 c 128,-1,7
 205 452 205 452 272 452 c 0,8,9
 321 452 321 452 359 435.5 c 128,-1,10
 397 419 397 419 422.5 385.5 c 128,-1,11
 448 352 448 352 459 300 c 1,12,-1
 436 300 l 1,13,14
 437 399 437 399 397 473.5 c 128,-1,15
 357 548 357 548 288 593 c 1,16,-1
 310 593 l 1,17,-1
 159 527 l 2,18,19
 143 521 143 521 131.5 525 c 128,-1,20
 120 529 120 529 115.5 539 c 128,-1,21
 111 549 111 549 115.5 560.5 c 128,-1,22
 120 572 120 572 137 579 c 2,23,-1
 248 627 l 1,24,-1
 250 616 l 1,25,26
 230 626 230 626 209 634.5 c 128,-1,27
 188 643 188 643 165 650 c 0,28,29
 147 655 147 655 141 666 c 128,-1,30
 135 677 135 677 138 688 c 128,-1,31
 141 699 141 699 152 705 c 128,-1,32
 163 711 163 711 181 706 c 0,33,34
 221 696 221 696 254.5 681 c 128,-1,35
 288 666 288 666 319 648 c 1,36,-1
 296 649 l 1,37,-1
 420 703 l 2,38,39
 435 709 435 709 446.5 705 c 128,-1,40
 458 701 458 701 463 691 c 128,-1,41
 468 681 468 681 464 670 c 128,-1,42
 460 659 460 659 444 652 c 2,43,-1
 351 611 l 1,44,-1
 354 623 l 1,45,46
 407 585 407 585 442 533.5 c 128,-1,47
 477 482 477 482 495.5 420 c 128,-1,48
 514 358 514 358 514 284 c 0,49,50
 514 213 514 213 498.5 158.5 c 128,-1,51
 483 104 483 104 452.5 66.5 c 128,-1,52
 422 29 422 29 378 10 c 128,-1,53
 334 -9 334 -9 276 -9 c 0,0,1
277 57 m 0,54,55
 324 57 324 57 358 77 c 128,-1,56
 392 97 392 97 409.5 134.5 c 128,-1,57
 427 172 427 172 427 223 c 0,58,59
 427 299 427 299 387.5 343 c 128,-1,60
 348 387 348 387 277 387 c 0,61,62
 232 387 232 387 198 367 c 128,-1,63
 164 347 164 347 146 310.5 c 128,-1,64
 128 274 128 274 128 223 c 0,65,66
 128 144 128 144 167.5 100.5 c 128,-1,67
 207 57 207 57 277 57 c 0,54,55
EndSplineSet
EndChar

StartChar: dcroat
Encoding: 273 273 283
Width: 583
GlyphClass: 1
Flags: W
LayerCount: 2
Fore
SplineSet
261 -9 m 0,0,1
 197 -9 197 -9 148.5 22 c 128,-1,2
 100 53 100 53 73 109.5 c 128,-1,3
 46 166 46 166 46 243 c 0,4,5
 46 321 46 321 72.5 377.5 c 128,-1,6
 99 434 99 434 147.5 464.5 c 128,-1,7
 196 495 196 495 261 495 c 0,8,9
 327 495 327 495 374.5 462 c 128,-1,10
 422 429 422 429 438 373 c 1,11,-1
 427 373 l 1,12,-1
 427 554 l 1,13,-1
 263 554 l 2,14,15
 247 554 247 554 238 562 c 128,-1,16
 229 570 229 570 229 584 c 256,17,18
 229 598 229 598 238 606 c 128,-1,19
 247 614 247 614 263 614 c 2,20,-1
 459 614 l 1,21,-1
 427 581 l 1,22,-1
 427 675 l 2,23,24
 427 692 427 692 437.5 702 c 128,-1,25
 448 712 448 712 467 712 c 0,26,27
 487 712 487 712 497.5 702 c 128,-1,28
 508 692 508 692 508 675 c 2,29,-1
 508 581 l 1,30,-1
 476 614 l 1,31,-1
 570 614 l 2,32,33
 587 614 587 614 595.5 606 c 128,-1,34
 604 598 604 598 604 584 c 256,35,36
 604 570 604 570 595.5 562 c 128,-1,37
 587 554 587 554 570 554 c 2,38,-1
 508 554 l 1,39,-1
 508 35 l 2,40,41
 508 15 508 15 497.5 4 c 128,-1,42
 487 -7 487 -7 468 -7 c 0,43,44
 448 -7 448 -7 437.5 4 c 128,-1,45
 427 15 427 15 427 35 c 2,46,-1
 427 129 l 1,47,-1
 438 115 l 1,48,49
 422 59 422 59 375 25 c 128,-1,50
 328 -9 328 -9 261 -9 c 0,0,1
278 56 m 0,51,52
 324 56 324 56 358 78 c 128,-1,53
 392 100 392 100 410 142 c 128,-1,54
 428 184 428 184 428 243 c 0,55,56
 428 334 428 334 387.5 382 c 128,-1,57
 347 430 347 430 278 430 c 0,58,59
 233 430 233 430 199 408.5 c 128,-1,60
 165 387 165 387 146.5 345.5 c 128,-1,61
 128 304 128 304 128 243 c 0,62,63
 128 153 128 153 169 104.5 c 128,-1,64
 210 56 210 56 278 56 c 0,51,52
EndSplineSet
EndChar

StartChar: uni0257
Encoding: 599 599 285
Width: 583
GlyphClass: 1
Flags: W
LayerCount: 2
Fore
SplineSet
261 -9 m 0,0,1
 196 -9 196 -9 147.5 22 c 128,-1,2
 99 53 99 53 72.5 109.5 c 128,-1,3
 46 166 46 166 46 243 c 0,4,5
 46 321 46 321 72.5 377.5 c 128,-1,6
 99 434 99 434 147.5 464.5 c 128,-1,7
 196 495 196 495 261 495 c 0,8,9
 327 495 327 495 374 462 c 128,-1,10
 421 429 421 429 437 373 c 1,11,-1
 426 373 l 1,12,-1
 426 543 l 2,13,14
 426 624 426 624 468.5 668.5 c 128,-1,15
 511 713 511 713 592 713 c 0,16,17
 625 713 625 713 639.5 704 c 128,-1,18
 654 695 654 695 654 678 c 0,19,20
 654 663 654 663 647 653.5 c 128,-1,21
 640 644 640 644 628 645 c 0,22,23
 622 645 622 645 615.5 646 c 128,-1,24
 609 647 609 647 600 647 c 0,25,26
 555 647 555 647 531 621 c 128,-1,27
 507 595 507 595 507 545 c 2,28,-1
 507 35 l 2,29,30
 507 15 507 15 497 4 c 128,-1,31
 487 -7 487 -7 467 -7 c 0,32,33
 448 -7 448 -7 437.5 4 c 128,-1,34
 427 15 427 15 427 35 c 2,35,-1
 427 130 l 1,36,-1
 438 116 l 1,37,38
 422 59 422 59 374.5 25 c 128,-1,39
 327 -9 327 -9 261 -9 c 0,0,1
278 57 m 0,40,41
 323 57 323 57 357 78.5 c 128,-1,42
 391 100 391 100 409.5 142 c 128,-1,43
 428 184 428 184 428 243 c 0,44,45
 428 334 428 334 387.5 382 c 128,-1,46
 347 430 347 430 278 430 c 0,47,48
 232 430 232 430 198.5 408.5 c 128,-1,49
 165 387 165 387 146.5 345.5 c 128,-1,50
 128 304 128 304 128 243 c 0,51,52
 128 153 128 153 169 105 c 128,-1,53
 210 57 210 57 278 57 c 0,40,41
EndSplineSet
EndChar

StartChar: e
Encoding: 101 101 288
Width: 532
GlyphClass: 2
Flags: W
AnchorPoint: "Anchor-3" 356 0 basechar 0
AnchorPoint: "Anchor-2" 280 0 basechar 0
AnchorPoint: "Anchor-0" 280 484 basechar 0
LayerCount: 2
Fore
SplineSet
295 -9 m 0,0,1
 218 -9 218 -9 162.5 21.5 c 128,-1,2
 107 52 107 52 76.5 108 c 128,-1,3
 46 164 46 164 46 242 c 0,4,5
 46 318 46 318 76 374.5 c 128,-1,6
 106 431 106 431 158.5 463 c 128,-1,7
 211 495 211 495 280 495 c 0,8,9
 329 495 329 495 368 478.5 c 128,-1,10
 407 462 407 462 434.5 431 c 128,-1,11
 462 400 462 400 476.5 356 c 128,-1,12
 491 312 491 312 491 257 c 0,13,14
 491 241 491 241 482 233.5 c 128,-1,15
 473 226 473 226 456 226 c 2,16,-1
 108 226 l 1,17,-1
 108 279 l 1,18,-1
 437 279 l 1,19,-1
 421 266 l 1,20,21
 421 320 421 320 405 357.5 c 128,-1,22
 389 395 389 395 358.5 415 c 128,-1,23
 328 435 328 435 282 435 c 0,24,25
 231 435 231 435 195.5 411.5 c 128,-1,26
 160 388 160 388 142 346.5 c 128,-1,27
 124 305 124 305 124 250 c 2,28,-1
 124 244 l 2,29,30
 124 152 124 152 168.5 104 c 128,-1,31
 213 56 213 56 295 56 c 0,32,33
 329 56 329 56 362.5 65 c 128,-1,34
 396 74 396 74 428 95 c 0,35,36
 442 104 442 104 453.5 103.5 c 128,-1,37
 465 103 465 103 472 96.5 c 128,-1,38
 479 90 479 90 481.5 80.5 c 128,-1,39
 484 71 484 71 479.5 60 c 128,-1,40
 475 49 475 49 462 41 c 0,41,42
 429 17 429 17 384 4 c 128,-1,43
 339 -9 339 -9 295 -9 c 0,0,1
EndSplineSet
EndChar

StartChar: uni0259
Encoding: 601 601 311
Width: 532
GlyphClass: 1
Flags: W
LayerCount: 2
Fore
SplineSet
257 -9 m 256,0,1
 189 -9 189 -9 141 19 c 128,-1,2
 93 47 93 47 67.5 101.5 c 128,-1,3
 42 156 42 156 42 231 c 0,4,5
 42 246 42 246 51 253.5 c 128,-1,6
 60 261 60 261 76 261 c 2,7,-1
 425 261 l 1,8,-1
 425 207 l 1,9,-1
 95 207 l 1,10,-1
 114 221 l 1,11,12
 115 167 115 167 130.5 129 c 128,-1,13
 146 91 146 91 177.5 71 c 128,-1,14
 209 51 209 51 256 51 c 0,15,16
 304 51 304 51 338 73 c 128,-1,17
 372 95 372 95 390 137 c 128,-1,18
 408 179 408 179 408 236 c 2,19,-1
 408 242 l 2,20,21
 408 334 408 334 364 382 c 128,-1,22
 320 430 320 430 237 430 c 0,23,24
 204 430 204 430 169.5 420.5 c 128,-1,25
 135 411 135 411 103 389 c 0,26,27
 89 381 89 381 78 381.5 c 128,-1,28
 67 382 67 382 60.5 389 c 128,-1,29
 54 396 54 396 52 406 c 128,-1,30
 50 416 50 416 54 426.5 c 128,-1,31
 58 437 58 437 70 445 c 0,32,33
 103 470 103 470 148.5 482.5 c 128,-1,34
 194 495 194 495 237 495 c 0,35,36
 314 495 314 495 370 464.5 c 128,-1,37
 426 434 426 434 456 378 c 128,-1,38
 486 322 486 322 486 245 c 0,39,40
 486 169 486 169 457 111.5 c 128,-1,41
 428 54 428 54 376.5 22.5 c 128,-1,42
 325 -9 325 -9 257 -9 c 256,0,1
EndSplineSet
EndChar

StartChar: f
Encoding: 102 102 314
Width: 333
GlyphClass: 2
Flags: W
AnchorPoint: "Anchor-2" 142 0 basechar 0
AnchorPoint: "Anchor-0" 142 705 basechar 0
LayerCount: 2
Fore
SplineSet
142 -7 m 0,0,1
 123 -7 123 -7 112.5 4 c 128,-1,2
 102 15 102 15 102 35 c 2,3,-1
 102 423 l 1,4,-1
 38 423 l 2,5,6
 22 423 22 423 12.5 431.5 c 128,-1,7
 3 440 3 440 3 455 c 256,8,9
 3 470 3 470 12.5 478 c 128,-1,10
 22 486 22 486 38 486 c 2,11,-1
 124 486 l 1,12,-1
 102 465 l 1,13,-1
 102 503 l 2,14,15
 102 598 102 598 148.5 648 c 128,-1,16
 195 698 195 698 285 706 c 2,17,-1
 314 709 l 2,18,19
 328 710 328 710 336.5 704 c 128,-1,20
 345 698 345 698 347.5 689 c 128,-1,21
 350 680 350 680 348 670.5 c 128,-1,22
 346 661 346 661 339 654 c 128,-1,23
 332 647 332 647 322 646 c 2,24,-1
 299 644 l 2,25,26
 238 639 238 639 210.5 607 c 128,-1,27
 183 575 183 575 183 513 c 2,28,-1
 183 471 l 1,29,-1
 171 486 l 1,30,-1
 291 486 l 2,31,32
 308 486 308 486 317 478 c 128,-1,33
 326 470 326 470 326 455 c 256,34,35
 326 440 326 440 317 431.5 c 128,-1,36
 308 423 308 423 291 423 c 2,37,-1
 183 423 l 1,38,-1
 183 35 l 2,39,40
 183 -7 183 -7 142 -7 c 0,0,1
EndSplineSet
EndChar

StartChar: g
Encoding: 103 103 315
Width: 586
GlyphClass: 2
Flags: W
AnchorPoint: "Anchor-0" 295 484 basechar 0
LayerCount: 2
Fore
SplineSet
291 -189 m 0,0,1
 238 -189 238 -189 187.5 -176.5 c 128,-1,2
 137 -164 137 -164 96 -137 c 0,3,4
 84 -130 84 -130 80.5 -120 c 128,-1,5
 77 -110 77 -110 79 -100.5 c 128,-1,6
 81 -91 81 -91 88 -83.5 c 128,-1,7
 95 -76 95 -76 104.5 -74 c 128,-1,8
 114 -72 114 -72 124 -77 c 0,9,10
 168 -104 168 -104 208 -114 c 128,-1,11
 248 -124 248 -124 287 -124 c 0,12,13
 358 -124 358 -124 394.5 -86 c 128,-1,14
 431 -48 431 -48 431 24 c 2,15,-1
 431 137 l 1,16,-1
 441 137 l 1,17,18
 426 79 426 79 377.5 45 c 128,-1,19
 329 11 329 11 264 11 c 0,20,21
 197 11 197 11 148 41.5 c 128,-1,22
 99 72 99 72 72.5 127 c 128,-1,23
 46 182 46 182 46 254 c 0,24,25
 46 308 46 308 61 352.5 c 128,-1,26
 76 397 76 397 104.5 428.5 c 128,-1,27
 133 460 133 460 173.5 477.5 c 128,-1,28
 214 495 214 495 264 495 c 0,29,30
 330 495 330 495 378 461.5 c 128,-1,31
 426 428 426 428 440 371 c 1,32,-1
 430 359 l 1,33,-1
 430 452 l 2,34,35
 430 472 430 472 440.5 482.5 c 128,-1,36
 451 493 451 493 470 493 c 0,37,38
 490 493 490 493 500 482.5 c 128,-1,39
 510 472 510 472 510 452 c 2,40,-1
 510 35 l 2,41,42
 510 -76 510 -76 454.5 -132.5 c 128,-1,43
 399 -189 399 -189 291 -189 c 0,0,1
279 77 m 0,44,45
 326 77 326 77 360 98.5 c 128,-1,46
 394 120 394 120 412.5 160 c 128,-1,47
 431 200 431 200 431 254 c 0,48,49
 431 335 431 335 390 382.5 c 128,-1,50
 349 430 349 430 279 430 c 0,51,52
 233 430 233 430 199 408.5 c 128,-1,53
 165 387 165 387 146.5 347.5 c 128,-1,54
 128 308 128 308 128 254 c 0,55,56
 128 173 128 173 169 125 c 128,-1,57
 210 77 210 77 279 77 c 0,44,45
EndSplineSet
EndChar

StartChar: uni01E5
Encoding: 485 485 322
Width: 586
GlyphClass: 1
Flags: W
LayerCount: 2
Fore
SplineSet
291 -189 m 0,0,1
 238 -189 238 -189 188 -176.5 c 128,-1,2
 138 -164 138 -164 96 -137 c 0,3,4
 84 -130 84 -130 80.5 -120 c 128,-1,5
 77 -110 77 -110 79.5 -100.5 c 128,-1,6
 82 -91 82 -91 88.5 -83 c 128,-1,7
 95 -75 95 -75 104.5 -73.5 c 128,-1,8
 114 -72 114 -72 124 -77 c 0,9,10
 164 -103 164 -103 206 -113.5 c 128,-1,11
 248 -124 248 -124 287 -124 c 0,12,13
 337 -123 337 -123 369.5 -104.5 c 128,-1,14
 402 -86 402 -86 417 -50 c 1,15,-1
 427 -60 l 1,16,-1
 327 -60 l 2,17,18
 314 -60 314 -60 306 -52 c 128,-1,19
 298 -44 298 -44 298 -32 c 256,20,21
 298 -20 298 -20 306 -12 c 128,-1,22
 314 -4 314 -4 327 -4 c 2,23,-1
 435 -4 l 1,24,-1
 427 -23 l 1,25,26
 429 -12 429 -12 430 0 c 128,-1,27
 431 12 431 12 431 24 c 2,28,-1
 431 159 l 1,29,-1
 440 159 l 1,30,31
 425 101 425 101 378 69 c 128,-1,32
 331 37 331 37 264 37 c 0,33,34
 199 37 199 37 150 66 c 128,-1,35
 101 95 101 95 73.5 147 c 128,-1,36
 46 199 46 199 46 266 c 0,37,38
 46 316 46 316 61.5 358 c 128,-1,39
 77 400 77 400 106 431 c 128,-1,40
 135 462 135 462 175 478.5 c 128,-1,41
 215 495 215 495 264 495 c 0,42,43
 331 495 331 495 378 463 c 128,-1,44
 425 431 425 431 440 374 c 1,45,-1
 430 374 l 1,46,-1
 430 453 l 2,47,48
 430 472 430 472 440.5 482.5 c 128,-1,49
 451 493 451 493 470 493 c 0,50,51
 490 493 490 493 500 482.5 c 128,-1,52
 510 472 510 472 510 453 c 2,53,-1
 510 35 l 2,54,55
 510 18 510 18 508.5 2.5 c 128,-1,56
 507 -13 507 -13 505 -26 c 1,57,-1
 500 -4 l 1,58,-1
 553 -4 l 2,59,60
 566 -4 566 -4 574 -12 c 128,-1,61
 582 -20 582 -20 582 -32 c 256,62,63
 582 -44 582 -44 574 -52 c 128,-1,64
 566 -60 566 -60 553 -60 c 2,65,-1
 479 -60 l 1,66,-1
 500 -50 l 1,67,68
 481 -120 481 -120 428.5 -154.5 c 128,-1,69
 376 -189 376 -189 291 -189 c 0,0,1
279 102 m 0,70,71
 325 102 325 102 359 122 c 128,-1,72
 393 142 393 142 411.5 179.5 c 128,-1,73
 430 217 430 217 430 266 c 0,74,75
 430 341 430 341 389.5 385.5 c 128,-1,76
 349 430 349 430 279 430 c 0,77,78
 234 430 234 430 199.5 410 c 128,-1,79
 165 390 165 390 146.5 353.5 c 128,-1,80
 128 317 128 317 128 266 c 0,81,82
 128 190 128 190 169.5 146 c 128,-1,83
 211 102 211 102 279 102 c 0,70,71
EndSplineSet
EndChar

StartChar: h
Encoding: 104 104 323
Width: 568
GlyphClass: 2
Flags: W
AnchorPoint: "Anchor-5" 285 246 basechar 0
AnchorPoint: "Anchor-4" 167 584 basechar 0
AnchorPoint: "Anchor-2" 285 0 basechar 0
AnchorPoint: "Anchor-1" 193 705 basechar 0
AnchorPoint: "Anchor-0" 286 705 basechar 0
LayerCount: 2
Fore
SplineSet
116 -7 m 0,0,1
 96 -7 96 -7 86 4 c 128,-1,2
 76 15 76 15 76 35 c 2,3,-1
 76 671 l 2,4,5
 76 691 76 691 86 701.5 c 128,-1,6
 96 712 96 712 116 712 c 0,7,8
 135 712 135 712 146 701.5 c 128,-1,9
 157 691 157 691 157 671 c 2,10,-1
 157 378 l 1,11,-1
 144 378 l 1,12,13
 165 436 165 436 212.5 465.5 c 128,-1,14
 260 495 260 495 322 495 c 0,15,16
 380 495 380 495 418.5 474 c 128,-1,17
 457 453 457 453 476 410.5 c 128,-1,18
 495 368 495 368 495 303 c 2,19,-1
 495 35 l 2,20,21
 495 15 495 15 484.5 4 c 128,-1,22
 474 -7 474 -7 455 -7 c 0,23,24
 435 -7 435 -7 424.5 4 c 128,-1,25
 414 15 414 15 414 35 c 2,26,-1
 414 298 l 2,27,28
 414 366 414 366 387.5 397.5 c 128,-1,29
 361 429 361 429 303 429 c 0,30,31
 236 429 236 429 196.5 387.5 c 128,-1,32
 157 346 157 346 157 277 c 2,33,-1
 157 35 l 2,34,35
 157 -7 157 -7 116 -7 c 0,0,1
EndSplineSet
EndChar

StartChar: hbar
Encoding: 295 295 324
Width: 568
GlyphClass: 1
Flags: W
LayerCount: 2
Fore
SplineSet
116 -7 m 0,0,1
 96 -7 96 -7 86 4 c 128,-1,2
 76 15 76 15 76 35 c 2,3,-1
 76 554 l 1,4,-1
 16 554 l 2,5,6
 0 554 0 554 -9 562 c 128,-1,7
 -18 570 -18 570 -18 584 c 0,8,9
 -18 614 -18 614 16 614 c 2,10,-1
 94 614 l 1,11,-1
 76 587 l 1,12,-1
 76 673 l 2,13,14
 76 692 76 692 86 702 c 128,-1,15
 96 712 96 712 116 712 c 0,16,17
 135 712 135 712 146 702 c 128,-1,18
 157 692 157 692 157 673 c 2,19,-1
 157 587 l 1,20,-1
 139 614 l 1,21,-1
 318 614 l 2,22,23
 334 614 334 614 342.5 606 c 128,-1,24
 351 598 351 598 351 584 c 0,25,26
 351 554 351 554 318 554 c 2,27,-1
 157 554 l 1,28,-1
 157 378 l 1,29,-1
 144 378 l 1,30,31
 165 436 165 436 212.5 465.5 c 128,-1,32
 260 495 260 495 322 495 c 0,33,34
 380 495 380 495 418.5 474 c 128,-1,35
 457 453 457 453 476 410.5 c 128,-1,36
 495 368 495 368 495 303 c 2,37,-1
 495 35 l 2,38,39
 495 15 495 15 484.5 4 c 128,-1,40
 474 -7 474 -7 455 -7 c 0,41,42
 435 -7 435 -7 424.5 4 c 128,-1,43
 414 15 414 15 414 35 c 2,44,-1
 414 298 l 2,45,46
 414 366 414 366 387.5 397.5 c 128,-1,47
 361 429 361 429 303 429 c 0,48,49
 236 429 236 429 196.5 387.5 c 128,-1,50
 157 346 157 346 157 277 c 2,51,-1
 157 35 l 2,52,53
 157 -7 157 -7 116 -7 c 0,0,1
EndSplineSet
EndChar

StartChar: i
Encoding: 105 105 329
Width: 232
GlyphClass: 2
Flags: W
AnchorPoint: "Anchor-3" 144 0 basechar 0
AnchorPoint: "Anchor-2" 116 0 basechar 0
LayerCount: 2
Fore
SplineSet
116 -5 m 256,0,1
 96 -5 96 -5 86 6.5 c 128,-1,2
 76 18 76 18 76 39 c 2,3,-1
 76 448 l 2,4,5
 76 469 76 469 86 480 c 128,-1,6
 96 491 96 491 116 491 c 0,7,8
 135 491 135 491 146 480 c 128,-1,9
 157 469 157 469 157 448 c 2,10,-1
 157 39 l 2,11,12
 157 18 157 18 146.5 6.5 c 128,-1,13
 136 -5 136 -5 116 -5 c 256,0,1
116 603 m 0,14,15
 91 603 91 603 77 616.5 c 128,-1,16
 63 630 63 630 63 653 c 0,17,18
 63 677 63 677 77 689.5 c 128,-1,19
 91 702 91 702 116 702 c 0,20,21
 142 702 142 702 155.5 689.5 c 128,-1,22
 169 677 169 677 169 653 c 0,23,24
 169 630 169 630 155.5 616.5 c 128,-1,25
 142 603 142 603 116 603 c 0,14,15
EndSplineSet
Substitution2: "'locl' Localized Forms in Latin lookup 10 subtable" i.loclTRK
Substitution2: "Single Substitution lookup 4 subtable" dotlessi
Substitution2: "Single Substitution lookup 3 subtable" dotlessi
Substitution2: "'aalt' Access All Alternates lookup 0 subtable" i.loclTRK
EndChar

StartChar: dotlessi
Encoding: 305 305 330
Width: 232
GlyphClass: 2
Flags: W
AnchorPoint: "Anchor-3" 144 0 basechar 0
AnchorPoint: "Anchor-2" 116 0 basechar 0
AnchorPoint: "Anchor-0" 116 484 basechar 0
LayerCount: 2
Fore
SplineSet
116 -5 m 256,0,1
 96 -5 96 -5 86 6.5 c 128,-1,2
 76 18 76 18 76 39 c 2,3,-1
 76 448 l 2,4,5
 76 469 76 469 86 480 c 128,-1,6
 96 491 96 491 116 491 c 0,7,8
 135 491 135 491 146 480 c 128,-1,9
 157 469 157 469 157 448 c 2,10,-1
 157 39 l 2,11,12
 157 18 157 18 146.5 6.5 c 128,-1,13
 136 -5 136 -5 116 -5 c 256,0,1
EndSplineSet
EndChar

StartChar: iogonek
Encoding: 303 303 343
Width: 232
GlyphClass: 1
Flags: W
LayerCount: 2
Fore
SplineSet
126 -192 m 0,0,1
 78 -192 78 -192 49 -166 c 128,-1,2
 20 -140 20 -140 20 -95 c 0,3,4
 20 -61 20 -61 39.5 -29.5 c 128,-1,5
 59 2 59 2 93 24 c 1,6,-1
 87 5 l 1,7,8
 82 11 82 11 79 19.5 c 128,-1,9
 76 28 76 28 76 39 c 2,10,-1
 76 448 l 2,11,12
 76 469 76 469 86 480 c 128,-1,13
 96 491 96 491 116 491 c 0,14,15
 135 491 135 491 146 480 c 128,-1,16
 157 469 157 469 157 448 c 2,17,-1
 157 39 l 2,18,19
 157 24 157 24 151 13 c 128,-1,20
 145 2 145 2 135 -3 c 0,21,22
 108 -21 108 -21 93 -41 c 128,-1,23
 78 -61 78 -61 78 -86 c 0,24,25
 78 -114 78 -114 95 -128 c 128,-1,26
 112 -142 112 -142 136 -142 c 0,27,28
 145 -142 145 -142 153.5 -140.5 c 128,-1,29
 162 -139 162 -139 171 -136 c 0,30,31
 185 -132 185 -132 192.5 -137 c 128,-1,32
 200 -142 200 -142 202 -151.5 c 128,-1,33
 204 -161 204 -161 199.5 -170 c 128,-1,34
 195 -179 195 -179 184 -183 c 0,35,36
 169 -189 169 -189 154.5 -190.5 c 128,-1,37
 140 -192 140 -192 126 -192 c 0,0,1
116 603 m 0,38,39
 91 603 91 603 77 616.5 c 128,-1,40
 63 630 63 630 63 653 c 0,41,42
 63 677 63 677 77 689.5 c 128,-1,43
 91 702 91 702 116 702 c 0,44,45
 142 702 142 702 155.5 689.5 c 128,-1,46
 169 677 169 677 169 653 c 0,47,48
 169 630 169 630 155.5 616.5 c 128,-1,49
 142 603 142 603 116 603 c 0,38,39
EndSplineSet
EndChar

StartChar: j
Encoding: 106 106 345
Width: 236
GlyphClass: 1
Flags: W
LayerCount: 2
Fore
SplineSet
-17 -191 m 0,0,1
 -32 -192 -32 -192 -41.5 -186 c 128,-1,2
 -51 -180 -51 -180 -54.5 -170.5 c 128,-1,3
 -58 -161 -58 -161 -56.5 -151.5 c 128,-1,4
 -55 -142 -55 -142 -48 -135 c 128,-1,5
 -41 -128 -41 -128 -29 -128 c 0,6,7
 26 -125 26 -125 52.5 -98.5 c 128,-1,8
 79 -72 79 -72 79 -15 c 2,9,-1
 79 452 l 2,10,11
 79 472 79 472 89.5 482.5 c 128,-1,12
 100 493 100 493 120 493 c 0,13,14
 139 493 139 493 149.5 482.5 c 128,-1,15
 160 472 160 472 160 452 c 2,16,-1
 160 -9 l 2,17,18
 160 -70 160 -70 139.5 -109.5 c 128,-1,19
 119 -149 119 -149 80 -168.5 c 128,-1,20
 41 -188 41 -188 -17 -191 c 0,0,1
119 603 m 0,21,22
 94 603 94 603 80 616.5 c 128,-1,23
 66 630 66 630 66 653 c 0,24,25
 66 677 66 677 80 689.5 c 128,-1,26
 94 702 94 702 119 702 c 0,27,28
 145 702 145 702 159 689.5 c 128,-1,29
 173 677 173 677 173 653 c 0,30,31
 173 630 173 630 159 616.5 c 128,-1,32
 145 603 145 603 119 603 c 0,21,22
EndSplineSet
Substitution2: "Single Substitution lookup 4 subtable" uni0237
Substitution2: "Single Substitution lookup 3 subtable" uni0237
EndChar

StartChar: uni0237
Encoding: 567 567 346
Width: 236
GlyphClass: 2
Flags: W
AnchorPoint: "Anchor-2" 119 0 basechar 0
AnchorPoint: "Anchor-0" 119 484 basechar 0
LayerCount: 2
Fore
SplineSet
-17 -191 m 0,0,1
 -32 -192 -32 -192 -41.5 -186 c 128,-1,2
 -51 -180 -51 -180 -54.5 -170.5 c 128,-1,3
 -58 -161 -58 -161 -56.5 -151.5 c 128,-1,4
 -55 -142 -55 -142 -48 -135 c 128,-1,5
 -41 -128 -41 -128 -29 -128 c 0,6,7
 26 -125 26 -125 52.5 -98.5 c 128,-1,8
 79 -72 79 -72 79 -15 c 2,9,-1
 79 452 l 2,10,11
 79 472 79 472 89.5 482.5 c 128,-1,12
 100 493 100 493 120 493 c 0,13,14
 139 493 139 493 149.5 482.5 c 128,-1,15
 160 472 160 472 160 452 c 2,16,-1
 160 -9 l 2,17,18
 160 -70 160 -70 139.5 -109.5 c 128,-1,19
 119 -149 119 -149 80 -168.5 c 128,-1,20
 41 -188 41 -188 -17 -191 c 0,0,1
EndSplineSet
EndChar

StartChar: k
Encoding: 107 107 348
Width: 500
GlyphClass: 2
Flags: W
AnchorPoint: "Anchor-2" 250 0 basechar 0
AnchorPoint: "Anchor-0" 286 705 basechar 0
LayerCount: 2
Fore
SplineSet
116 -7 m 0,0,1
 96 -7 96 -7 86 4 c 128,-1,2
 76 15 76 15 76 35 c 2,3,-1
 76 671 l 2,4,5
 76 691 76 691 86 701.5 c 128,-1,6
 96 712 96 712 116 712 c 0,7,8
 135 712 135 712 146 701.5 c 128,-1,9
 157 691 157 691 157 671 c 2,10,-1
 157 270 l 1,11,-1
 159 270 l 1,12,-1
 364 466 l 2,13,14
 378 479 378 479 388.5 486 c 128,-1,15
 399 493 399 493 417 493 c 0,16,17
 433 493 433 493 442 484.5 c 128,-1,18
 451 476 451 476 450.5 463.5 c 128,-1,19
 450 451 450 451 438 437 c 2,20,-1
 220 230 l 1,21,-1
 220 274 l 1,22,-1
 457 51 l 2,23,24
 471 37 471 37 471 24 c 128,-1,25
 471 11 471 11 461.5 2 c 128,-1,26
 452 -7 452 -7 437 -7 c 0,27,28
 419 -7 419 -7 408 0.5 c 128,-1,29
 397 8 397 8 381 23 c 2,30,-1
 159 228 l 1,31,-1
 157 228 l 1,32,-1
 157 35 l 2,33,34
 157 -7 157 -7 116 -7 c 0,0,1
EndSplineSet
EndChar

StartChar: kgreenlandic
Encoding: 312 312 351
Width: 500
GlyphClass: 2
Flags: W
AnchorPoint: "Anchor-2" 250 0 basechar 0
AnchorPoint: "Anchor-0" 250 484 basechar 0
LayerCount: 2
Fore
SplineSet
116 -7 m 256,0,1
 96 -7 96 -7 86 4 c 128,-1,2
 76 15 76 15 76 35 c 2,3,-1
 76 452 l 2,4,5
 76 472 76 472 86 482.5 c 128,-1,6
 96 493 96 493 116 493 c 0,7,8
 135 493 135 493 146 482.5 c 128,-1,9
 157 472 157 472 157 452 c 2,10,-1
 157 270 l 1,11,-1
 159 270 l 1,12,-1
 364 466 l 2,13,14
 378 479 378 479 388.5 486 c 128,-1,15
 399 493 399 493 416 493 c 0,16,17
 432 493 432 493 441 484.5 c 128,-1,18
 450 476 450 476 450 463.5 c 128,-1,19
 450 451 450 451 438 437 c 2,20,-1
 220 230 l 1,21,-1
 220 274 l 1,22,-1
 457 51 l 2,23,24
 471 37 471 37 471 24 c 128,-1,25
 471 11 471 11 461.5 2 c 128,-1,26
 452 -7 452 -7 437 -7 c 0,27,28
 419 -7 419 -7 408 0.5 c 128,-1,29
 397 8 397 8 381 23 c 2,30,-1
 159 228 l 1,31,-1
 157 228 l 1,32,-1
 157 35 l 2,33,34
 157 15 157 15 146.5 4 c 128,-1,35
 136 -7 136 -7 116 -7 c 256,0,1
EndSplineSet
EndChar

StartChar: l
Encoding: 108 108 352
Width: 296
GlyphClass: 2
Flags: W
AnchorPoint: "Anchor-5" 126 357 basechar 0
AnchorPoint: "Anchor-2" 186 0 basechar 0
AnchorPoint: "Anchor-1" 202 705 basechar 0
AnchorPoint: "Anchor-0" 116 705 basechar 0
LayerCount: 2
Fore
SplineSet
224 -9 m 0,0,1
 152 -9 152 -9 114 35 c 128,-1,2
 76 79 76 79 76 161 c 2,3,-1
 76 671 l 2,4,5
 76 691 76 691 86 701.5 c 128,-1,6
 96 712 96 712 116 712 c 0,7,8
 135 712 135 712 146 701.5 c 128,-1,9
 157 691 157 691 157 671 c 2,10,-1
 157 167 l 2,11,12
 157 113 157 113 178.5 86.5 c 128,-1,13
 200 60 200 60 242 60 c 0,14,15
 251 60 251 60 258 61 c 128,-1,16
 265 62 265 62 272 62 c 0,17,18
 283 63 283 63 287.5 57 c 128,-1,19
 292 51 292 51 292 33 c 256,20,21
 292 15 292 15 284 6 c 128,-1,22
 276 -3 276 -3 258 -6 c 0,23,24
 250 -7 250 -7 241 -8 c 128,-1,25
 232 -9 232 -9 224 -9 c 0,0,1
EndSplineSet
Substitution2: "'ss02' Style Set 2 lookup 36 subtable" l.ss02
Substitution2: "'aalt' Access All Alternates lookup 0 subtable" l.ss02
EndChar

StartChar: m
Encoding: 109 109 361
Width: 856
GlyphClass: 2
Flags: W
AnchorPoint: "Anchor-2" 429 0 basechar 0
AnchorPoint: "Anchor-0" 429 484 basechar 0
LayerCount: 2
Fore
SplineSet
118 -7 m 0,0,1
 98 -7 98 -7 88 4 c 128,-1,2
 78 15 78 15 78 35 c 2,3,-1
 78 452 l 2,4,5
 78 472 78 472 88 482.5 c 128,-1,6
 98 493 98 493 117 493 c 256,7,8
 136 493 136 493 146.5 482.5 c 128,-1,9
 157 472 157 472 157 452 c 2,10,-1
 157 364 l 1,11,-1
 146 378 l 1,12,13
 165 434 165 434 207.5 464.5 c 128,-1,14
 250 495 250 495 309 495 c 0,15,16
 371 495 371 495 409.5 465.5 c 128,-1,17
 448 436 448 436 461 374 c 1,18,-1
 446 374 l 1,19,20
 464 430 464 430 510.5 462.5 c 128,-1,21
 557 495 557 495 619 495 c 0,22,23
 674 495 674 495 709.5 474 c 128,-1,24
 745 453 745 453 763 410.5 c 128,-1,25
 781 368 781 368 781 303 c 2,26,-1
 781 35 l 2,27,28
 781 15 781 15 770.5 4 c 128,-1,29
 760 -7 760 -7 740 -7 c 0,30,31
 721 -7 721 -7 710.5 4 c 128,-1,32
 700 15 700 15 700 35 c 2,33,-1
 700 299 l 2,34,35
 700 366 700 366 677 397.5 c 128,-1,36
 654 429 654 429 599 429 c 0,37,38
 539 429 539 429 504.5 387.5 c 128,-1,39
 470 346 470 346 470 275 c 2,40,-1
 470 35 l 2,41,42
 470 15 470 15 459.5 4 c 128,-1,43
 449 -7 449 -7 429 -7 c 0,44,45
 410 -7 410 -7 399.5 4 c 128,-1,46
 389 15 389 15 389 35 c 2,47,-1
 389 299 l 2,48,49
 389 366 389 366 365.5 397.5 c 128,-1,50
 342 429 342 429 288 429 c 0,51,52
 228 429 228 429 193.5 387.5 c 128,-1,53
 159 346 159 346 159 275 c 2,54,-1
 159 35 l 2,55,56
 159 -7 159 -7 118 -7 c 0,0,1
EndSplineSet
EndChar

StartChar: n
Encoding: 110 110 363
Width: 568
GlyphClass: 2
Flags: W
AnchorPoint: "Anchor-2" 285 0 basechar 0
AnchorPoint: "Anchor-0" 285 484 basechar 0
LayerCount: 2
Fore
SplineSet
116 -7 m 0,0,1
 96 -7 96 -7 86 4 c 128,-1,2
 76 15 76 15 76 35 c 2,3,-1
 76 452 l 2,4,5
 76 472 76 472 86 482.5 c 128,-1,6
 96 493 96 493 115 493 c 256,7,8
 134 493 134 493 144.5 482.5 c 128,-1,9
 155 472 155 472 155 452 c 2,10,-1
 155 366 l 1,11,-1
 144 378 l 1,12,13
 165 436 165 436 212.5 465.5 c 128,-1,14
 260 495 260 495 322 495 c 0,15,16
 380 495 380 495 418.5 474 c 128,-1,17
 457 453 457 453 476 410.5 c 128,-1,18
 495 368 495 368 495 303 c 2,19,-1
 495 35 l 2,20,21
 495 15 495 15 484.5 4 c 128,-1,22
 474 -7 474 -7 455 -7 c 0,23,24
 435 -7 435 -7 424.5 4 c 128,-1,25
 414 15 414 15 414 35 c 2,26,-1
 414 298 l 2,27,28
 414 366 414 366 387.5 397.5 c 128,-1,29
 361 429 361 429 303 429 c 0,30,31
 236 429 236 429 196.5 387.5 c 128,-1,32
 157 346 157 346 157 277 c 2,33,-1
 157 35 l 2,34,35
 157 -7 157 -7 116 -7 c 0,0,1
EndSplineSet
EndChar

StartChar: eng
Encoding: 331 331 373
Width: 568
GlyphClass: 1
Flags: W
LayerCount: 2
Fore
SplineSet
314 -192 m 0,0,1
 299 -192 299 -192 290 -186.5 c 128,-1,2
 281 -181 281 -181 277 -171.5 c 128,-1,3
 273 -162 273 -162 275 -152.5 c 128,-1,4
 277 -143 277 -143 284.5 -136 c 128,-1,5
 292 -129 292 -129 304 -128 c 0,6,7
 360 -124 360 -124 387 -98.5 c 128,-1,8
 414 -73 414 -73 414 -15 c 2,9,-1
 414 298 l 2,10,11
 414 366 414 366 387.5 397.5 c 128,-1,12
 361 429 361 429 303 429 c 0,13,14
 236 429 236 429 196.5 387.5 c 128,-1,15
 157 346 157 346 157 277 c 2,16,-1
 157 35 l 2,17,18
 157 -7 157 -7 116 -7 c 0,19,20
 96 -7 96 -7 86 4 c 128,-1,21
 76 15 76 15 76 35 c 2,22,-1
 76 452 l 2,23,24
 76 472 76 472 86 482.5 c 128,-1,25
 96 493 96 493 115 493 c 256,26,27
 134 493 134 493 144.5 482.5 c 128,-1,28
 155 472 155 472 155 452 c 2,29,-1
 155 366 l 1,30,-1
 144 378 l 1,31,32
 165 436 165 436 212.5 465.5 c 128,-1,33
 260 495 260 495 322 495 c 0,34,35
 380 495 380 495 418.5 474 c 128,-1,36
 457 453 457 453 476 410.5 c 128,-1,37
 495 368 495 368 495 303 c 2,38,-1
 495 -9 l 2,39,40
 495 -70 495 -70 474.5 -109.5 c 128,-1,41
 454 -149 454 -149 414 -169 c 128,-1,42
 374 -189 374 -189 314 -192 c 0,0,1
EndSplineSet
EndChar

StartChar: o
Encoding: 111 111 374
Width: 556
GlyphClass: 2
Flags: W
AnchorPoint: "Anchor-5" 278 243 basechar 0
AnchorPoint: "Anchor-3" 337 0 basechar 0
AnchorPoint: "Anchor-2" 278 0 basechar 0
AnchorPoint: "Anchor-1" 330 484 basechar 0
AnchorPoint: "Anchor-0" 278 484 basechar 0
LayerCount: 2
Fore
SplineSet
278 -9 m 0,0,1
 207 -9 207 -9 155 22 c 128,-1,2
 103 53 103 53 74.5 109.5 c 128,-1,3
 46 166 46 166 46 243 c 0,4,5
 46 301 46 301 62 347.5 c 128,-1,6
 78 394 78 394 109 427 c 128,-1,7
 140 460 140 460 182.5 477.5 c 128,-1,8
 225 495 225 495 278 495 c 0,9,10
 349 495 349 495 401 464 c 128,-1,11
 453 433 453 433 481.5 376.5 c 128,-1,12
 510 320 510 320 510 243 c 0,13,14
 510 185 510 185 494 139 c 128,-1,15
 478 93 478 93 447 59.5 c 128,-1,16
 416 26 416 26 373.5 8.5 c 128,-1,17
 331 -9 331 -9 278 -9 c 0,0,1
278 56 m 0,18,19
 323 56 323 56 357 78 c 128,-1,20
 391 100 391 100 409.5 142 c 128,-1,21
 428 184 428 184 428 243 c 0,22,23
 428 334 428 334 387.5 382 c 128,-1,24
 347 430 347 430 278 430 c 0,25,26
 232 430 232 430 198.5 408.5 c 128,-1,27
 165 387 165 387 146.5 345.5 c 128,-1,28
 128 304 128 304 128 243 c 0,29,30
 128 153 128 153 169 104.5 c 128,-1,31
 210 56 210 56 278 56 c 0,18,19
EndSplineSet
Substitution2: "Single Substitution lookup 29 subtable" ordmasculine
Substitution2: "'aalt' Access All Alternates lookup 0 subtable" ordmasculine
EndChar

StartChar: oslash
Encoding: 248 248 402
Width: 556
GlyphClass: 2
Flags: W
AnchorPoint: "Anchor-5" 278 243 basechar 0
AnchorPoint: "Anchor-0" 277 484 basechar 0
LayerCount: 2
Fore
SplineSet
278 -9 m 0,0,1
 207 -9 207 -9 155 22 c 128,-1,2
 103 53 103 53 74.5 109.5 c 128,-1,3
 46 166 46 166 46 243 c 0,4,5
 46 301 46 301 62 347.5 c 128,-1,6
 78 394 78 394 109 427 c 128,-1,7
 140 460 140 460 182.5 477.5 c 128,-1,8
 225 495 225 495 278 495 c 0,9,10
 349 495 349 495 401 464 c 128,-1,11
 453 433 453 433 481.5 376.5 c 128,-1,12
 510 320 510 320 510 243 c 0,13,14
 510 185 510 185 494 139 c 128,-1,15
 478 93 478 93 447 59.5 c 128,-1,16
 416 26 416 26 373.5 8.5 c 128,-1,17
 331 -9 331 -9 278 -9 c 0,0,1
278 56 m 0,18,19
 323 56 323 56 357 78 c 128,-1,20
 391 100 391 100 409.5 142 c 128,-1,21
 428 184 428 184 428 243 c 0,22,23
 428 334 428 334 387.5 382 c 128,-1,24
 347 430 347 430 278 430 c 0,25,26
 232 430 232 430 198.5 408.5 c 128,-1,27
 165 387 165 387 146.5 345.5 c 128,-1,28
 128 304 128 304 128 243 c 0,29,30
 128 153 128 153 169 104.5 c 128,-1,31
 210 56 210 56 278 56 c 0,18,19
152 -30 m 2,32,33
 145 -42 145 -42 134 -44 c 128,-1,34
 123 -46 123 -46 113.5 -40.5 c 128,-1,35
 104 -35 104 -35 100.5 -24 c 128,-1,36
 97 -13 97 -13 105 1 c 2,37,-1
 404 517 l 2,38,39
 412 529 412 529 423 530.5 c 128,-1,40
 434 532 434 532 443 526.5 c 128,-1,41
 452 521 452 521 456 510 c 128,-1,42
 460 499 460 499 452 486 c 2,43,-1
 152 -30 l 2,32,33
EndSplineSet
EndChar

StartChar: oe
Encoding: 339 339 408
Width: 910
GlyphClass: 2
Flags: W
AnchorPoint: "Anchor-2" 469 0 basechar 0
AnchorPoint: "Anchor-0" 468 484 basechar 0
LayerCount: 2
Fore
SplineSet
276 -9 m 0,0,1
 206 -9 206 -9 154.5 22 c 128,-1,2
 103 53 103 53 74.5 109.5 c 128,-1,3
 46 166 46 166 46 243 c 0,4,5
 46 301 46 301 62 347.5 c 128,-1,6
 78 394 78 394 108.5 427 c 128,-1,7
 139 460 139 460 181.5 477.5 c 128,-1,8
 224 495 224 495 276 495 c 0,9,10
 351 495 351 495 404 456 c 128,-1,11
 457 417 457 417 480 348 c 1,12,-1
 457 348 l 1,13,14
 479 416 479 416 533.5 455.5 c 128,-1,15
 588 495 588 495 662 495 c 0,16,17
 726 495 726 495 772.5 466 c 128,-1,18
 819 437 819 437 843.5 384 c 128,-1,19
 868 331 868 331 868 257 c 0,20,21
 868 241 868 241 859.5 233.5 c 128,-1,22
 851 226 851 226 834 226 c 2,23,-1
 490 226 l 1,24,-1
 490 279 l 1,25,-1
 815 279 l 1,26,-1
 799 267 l 1,27,28
 799 320 799 320 783 357.5 c 128,-1,29
 767 395 767 395 736.5 415 c 128,-1,30
 706 435 706 435 661 435 c 0,31,32
 611 435 611 435 577.5 411.5 c 128,-1,33
 544 388 544 388 526.5 346.5 c 128,-1,34
 509 305 509 305 509 250 c 2,35,-1
 509 244 l 2,36,37
 509 153 509 153 551.5 104.5 c 128,-1,38
 594 56 594 56 675 56 c 0,39,40
 707 56 707 56 740.5 65 c 128,-1,41
 774 74 774 74 806 95 c 0,42,43
 819 104 819 104 830.5 103.5 c 128,-1,44
 842 103 842 103 849.5 96.5 c 128,-1,45
 857 90 857 90 859.5 80.5 c 128,-1,46
 862 71 862 71 857.5 60 c 128,-1,47
 853 49 853 49 840 41 c 0,48,49
 806 17 806 17 762 4 c 128,-1,50
 718 -9 718 -9 676 -9 c 0,51,52
 592 -9 592 -9 534.5 29 c 128,-1,53
 477 67 477 67 455 139 c 1,54,-1
 479 139 l 1,55,56
 456 70 456 70 403.5 30.5 c 128,-1,57
 351 -9 351 -9 276 -9 c 0,0,1
278 56 m 0,58,59
 323 56 323 56 357 78 c 128,-1,60
 391 100 391 100 409.5 142 c 128,-1,61
 428 184 428 184 428 243 c 0,62,63
 428 334 428 334 387.5 382 c 128,-1,64
 347 430 347 430 278 430 c 0,65,66
 232 430 232 430 198.5 408.5 c 128,-1,67
 165 387 165 387 146.5 345.5 c 128,-1,68
 128 304 128 304 128 243 c 0,69,70
 128 153 128 153 169 104.5 c 128,-1,71
 210 56 210 56 278 56 c 0,58,59
EndSplineSet
EndChar

StartChar: p
Encoding: 112 112 409
Width: 583
GlyphClass: 2
Flags: W
AnchorPoint: "Anchor-2" 290 0 basechar 0
AnchorPoint: "Anchor-0" 290 484 basechar 0
LayerCount: 2
Fore
SplineSet
116 -187 m 0,0,1
 96 -187 96 -187 86 -176.5 c 128,-1,2
 76 -166 76 -166 76 -146 c 2,3,-1
 76 452 l 2,4,5
 76 472 76 472 86 482.5 c 128,-1,6
 96 493 96 493 115 493 c 0,7,8
 135 493 135 493 145.5 482.5 c 128,-1,9
 156 472 156 472 156 452 c 2,10,-1
 156 357 l 1,11,-1
 145 371 l 1,12,13
 161 428 161 428 208.5 461.5 c 128,-1,14
 256 495 256 495 322 495 c 0,15,16
 387 495 387 495 435.5 464.5 c 128,-1,17
 484 434 484 434 510.5 377.5 c 128,-1,18
 537 321 537 321 537 243 c 0,19,20
 537 166 537 166 510.5 109.5 c 128,-1,21
 484 53 484 53 436 22 c 128,-1,22
 388 -9 388 -9 322 -9 c 256,23,24
 256 -9 256 -9 209 24.5 c 128,-1,25
 162 58 162 58 145 114 c 1,26,-1
 157 114 l 1,27,-1
 157 -146 l 2,28,29
 157 -166 157 -166 146 -176.5 c 128,-1,30
 135 -187 135 -187 116 -187 c 0,0,1
305 56 m 0,31,32
 351 56 351 56 384.5 78 c 128,-1,33
 418 100 418 100 436.5 142 c 128,-1,34
 455 184 455 184 455 243 c 0,35,36
 455 334 455 334 414.5 382 c 128,-1,37
 374 430 374 430 305 430 c 0,38,39
 260 430 260 430 226 408.5 c 128,-1,40
 192 387 192 387 173.5 345.5 c 128,-1,41
 155 304 155 304 155 243 c 0,42,43
 155 153 155 153 196 104.5 c 128,-1,44
 237 56 237 56 305 56 c 0,31,32
EndSplineSet
EndChar

StartChar: thorn
Encoding: 254 254 410
Width: 583
GlyphClass: 2
Flags: W
AnchorPoint: "Anchor-2" 290 0 basechar 0
AnchorPoint: "Anchor-0" 290 484 basechar 0
LayerCount: 2
Fore
SplineSet
116 -187 m 0,0,1
 96 -187 96 -187 86 -176.5 c 128,-1,2
 76 -166 76 -166 76 -146 c 2,3,-1
 76 671 l 2,4,5
 76 691 76 691 86.5 701.5 c 128,-1,6
 97 712 97 712 116 712 c 256,7,8
 135 712 135 712 146 701.5 c 128,-1,9
 157 691 157 691 157 671 c 2,10,-1
 157 371 l 1,11,-1
 145 371 l 1,12,13
 161 428 161 428 208.5 461.5 c 128,-1,14
 256 495 256 495 322 495 c 0,15,16
 387 495 387 495 435.5 464.5 c 128,-1,17
 484 434 484 434 510.5 377.5 c 128,-1,18
 537 321 537 321 537 243 c 0,19,20
 537 166 537 166 510.5 109.5 c 128,-1,21
 484 53 484 53 436 22 c 128,-1,22
 388 -9 388 -9 322 -9 c 256,23,24
 256 -9 256 -9 209 24.5 c 128,-1,25
 162 58 162 58 145 114 c 1,26,-1
 157 114 l 1,27,-1
 157 -146 l 2,28,29
 157 -166 157 -166 146 -176.5 c 128,-1,30
 135 -187 135 -187 116 -187 c 0,0,1
305 56 m 0,31,32
 351 56 351 56 384.5 78 c 128,-1,33
 418 100 418 100 436.5 142 c 128,-1,34
 455 184 455 184 455 243 c 0,35,36
 455 334 455 334 414.5 382 c 128,-1,37
 374 430 374 430 305 430 c 0,38,39
 260 430 260 430 226 408.5 c 128,-1,40
 192 387 192 387 173.5 345.5 c 128,-1,41
 155 304 155 304 155 243 c 0,42,43
 155 153 155 153 196 104.5 c 128,-1,44
 237 56 237 56 305 56 c 0,31,32
EndSplineSet
EndChar

StartChar: q
Encoding: 113 113 411
Width: 583
GlyphClass: 2
Flags: W
AnchorPoint: "Anchor-2" 291 0 basechar 0
AnchorPoint: "Anchor-0" 291 484 basechar 0
LayerCount: 2
Fore
SplineSet
467 -187 m 0,0,1
 447 -187 447 -187 436.5 -176.5 c 128,-1,2
 426 -166 426 -166 426 -146 c 2,3,-1
 426 114 l 1,4,-1
 437 114 l 1,5,6
 421 58 421 58 374 24.5 c 128,-1,7
 327 -9 327 -9 261 -9 c 0,8,9
 196 -9 196 -9 147.5 22 c 128,-1,10
 99 53 99 53 72.5 109.5 c 128,-1,11
 46 166 46 166 46 243 c 0,12,13
 46 321 46 321 72.5 377.5 c 128,-1,14
 99 434 99 434 147.5 464.5 c 128,-1,15
 196 495 196 495 261 495 c 0,16,17
 327 495 327 495 374.5 461.5 c 128,-1,18
 422 428 422 428 438 371 c 1,19,-1
 427 357 l 1,20,-1
 427 452 l 2,21,22
 427 472 427 472 437.5 482.5 c 128,-1,23
 448 493 448 493 467 493 c 0,24,25
 487 493 487 493 497 482.5 c 128,-1,26
 507 472 507 472 507 452 c 2,27,-1
 507 -146 l 2,28,29
 507 -166 507 -166 496.5 -176.5 c 128,-1,30
 486 -187 486 -187 467 -187 c 0,0,1
278 56 m 0,31,32
 323 56 323 56 357 78 c 128,-1,33
 391 100 391 100 409.5 142 c 128,-1,34
 428 184 428 184 428 243 c 0,35,36
 428 334 428 334 387.5 382 c 128,-1,37
 347 430 347 430 278 430 c 0,38,39
 232 430 232 430 198.5 408.5 c 128,-1,40
 165 387 165 387 146.5 345.5 c 128,-1,41
 128 304 128 304 128 243 c 0,42,43
 128 153 128 153 169 104.5 c 128,-1,44
 210 56 210 56 278 56 c 0,31,32
EndSplineSet
EndChar

StartChar: r
Encoding: 114 114 412
Width: 358
GlyphClass: 2
Flags: W
AnchorPoint: "Anchor-2" 116 0 basechar 0
AnchorPoint: "Anchor-0" 215 484 basechar 0
LayerCount: 2
Fore
SplineSet
117 -7 m 256,0,1
 97 -7 97 -7 86.5 4 c 128,-1,2
 76 15 76 15 76 35 c 2,3,-1
 76 452 l 2,4,5
 76 472 76 472 86 482.5 c 128,-1,6
 96 493 96 493 115 493 c 256,7,8
 134 493 134 493 144.5 482.5 c 128,-1,9
 155 472 155 472 155 452 c 2,10,-1
 155 371 l 1,11,-1
 145 371 l 1,12,13
 161 430 161 430 206 462 c 128,-1,14
 251 494 251 494 317 496 c 0,15,16
 332 497 332 497 341 489.5 c 128,-1,17
 350 482 350 482 351 464 c 0,18,19
 352 447 352 447 343 437 c 128,-1,20
 334 427 334 427 315 425 c 2,21,-1
 299 423 l 2,22,23
 231 417 231 417 194.5 379.5 c 128,-1,24
 158 342 158 342 158 277 c 2,25,-1
 158 35 l 2,26,27
 158 15 158 15 147.5 4 c 128,-1,28
 137 -7 137 -7 117 -7 c 256,0,1
EndSplineSet
EndChar

StartChar: s
Encoding: 115 115 420
Width: 481
GlyphClass: 2
Flags: W
AnchorPoint: "Anchor-2" 240 0 basechar 0
AnchorPoint: "Anchor-0" 249 484 basechar 0
LayerCount: 2
Fore
SplineSet
240 -9 m 0,0,1
 195 -9 195 -9 149.5 2 c 128,-1,2
 104 13 104 13 65 40 c 0,3,4
 55 47 55 47 51 56.5 c 128,-1,5
 47 66 47 66 48.5 75.5 c 128,-1,6
 50 85 50 85 56.5 92 c 128,-1,7
 63 99 63 99 72.5 100.5 c 128,-1,8
 82 102 82 102 94 96 c 0,9,10
 133 72 133 72 169.5 62.5 c 128,-1,11
 206 53 206 53 242 53 c 0,12,13
 299 53 299 53 328 74 c 128,-1,14
 357 95 357 95 357 131 c 0,15,16
 357 159 357 159 338 175.5 c 128,-1,17
 319 192 319 192 278 201 c 2,18,-1
 187 221 l 2,19,20
 124 234 124 234 93.5 266 c 128,-1,21
 63 298 63 298 63 349 c 0,22,23
 63 394 63 394 86.5 426.5 c 128,-1,24
 110 459 110 459 153 477 c 128,-1,25
 196 495 196 495 253 495 c 0,26,27
 297 495 297 495 336.5 483.5 c 128,-1,28
 376 472 376 472 408 447 c 0,29,30
 418 440 418 440 421.5 430.5 c 128,-1,31
 425 421 425 421 422.5 411.5 c 128,-1,32
 420 402 420 402 413 395.5 c 128,-1,33
 406 389 406 389 396 388 c 128,-1,34
 386 387 386 387 375 394 c 0,35,36
 345 414 345 414 314 423.5 c 128,-1,37
 283 433 283 433 253 433 c 0,38,39
 197 433 197 433 168 411 c 128,-1,40
 139 389 139 389 139 353 c 0,41,42
 139 325 139 325 157 307 c 128,-1,43
 175 289 175 289 213 281 c 2,44,-1
 304 262 l 2,45,46
 369 248 369 248 401.5 217.5 c 128,-1,47
 434 187 434 187 434 135 c 0,48,49
 434 69 434 69 381 30 c 128,-1,50
 328 -9 328 -9 240 -9 c 0,0,1
EndSplineSet
EndChar

StartChar: germandbls
Encoding: 223 223 431
Width: 615
GlyphClass: 1
Flags: W
LayerCount: 2
Fore
SplineSet
403 -9 m 0,0,1
 360 -9 360 -9 316 3.5 c 128,-1,2
 272 16 272 16 238 40 c 0,3,4
 227 47 227 47 223 57 c 128,-1,5
 219 67 219 67 221 77 c 128,-1,6
 223 87 223 87 230.5 94 c 128,-1,7
 238 101 238 101 248 102 c 128,-1,8
 258 103 258 103 269 96 c 0,9,10
 302 75 302 75 338 65.5 c 128,-1,11
 374 56 374 56 404 56 c 0,12,13
 453 56 453 56 481 77 c 128,-1,14
 509 98 509 98 509 134 c 0,15,16
 509 163 509 163 485 182.5 c 128,-1,17
 461 202 461 202 402 220 c 0,18,19
 322 245 322 245 290 276.5 c 128,-1,20
 258 308 258 308 258 356 c 0,21,22
 258 377 258 377 265 396.5 c 128,-1,23
 272 416 272 416 289 437.5 c 128,-1,24
 306 459 306 459 336 484 c 0,25,26
 367 511 367 511 379.5 532.5 c 128,-1,27
 392 554 392 554 392 579 c 0,28,29
 392 612 392 612 368.5 631.5 c 128,-1,30
 345 651 345 651 302 651 c 0,31,32
 232 651 232 651 194.5 609 c 128,-1,33
 157 567 157 567 157 490 c 2,34,-1
 157 35 l 2,35,36
 157 15 157 15 146 4 c 128,-1,37
 135 -7 135 -7 116 -7 c 0,38,39
 96 -7 96 -7 86 4 c 128,-1,40
 76 15 76 15 76 35 c 2,41,-1
 76 480 l 2,42,43
 76 592 76 592 135 653 c 128,-1,44
 194 714 194 714 301 714 c 0,45,46
 354 714 354 714 392 698.5 c 128,-1,47
 430 683 430 683 450 654 c 128,-1,48
 470 625 470 625 470 586 c 0,49,50
 470 548 470 548 453 518 c 128,-1,51
 436 488 436 488 394 451 c 0,52,53
 371 431 371 431 358 416.5 c 128,-1,54
 345 402 345 402 340 390 c 128,-1,55
 335 378 335 378 335 364 c 0,56,57
 335 338 335 338 358 319 c 128,-1,58
 381 300 381 300 442 281 c 0,59,60
 519 258 519 258 552 223.5 c 128,-1,61
 585 189 585 189 585 136 c 0,62,63
 585 93 585 93 562.5 60.5 c 128,-1,64
 540 28 540 28 499 9.5 c 128,-1,65
 458 -9 458 -9 403 -9 c 0,0,1
EndSplineSet
Substitution2: "Single Substitution lookup 39 subtable" germandbls.calt
Substitution2: "Single Substitution lookup 38 subtable" germandbls.calt
Substitution2: "'aalt' Access All Alternates lookup 0 subtable" germandbls.calt
EndChar

StartChar: t
Encoding: 116 116 432
Width: 350
GlyphClass: 2
Flags: W
AnchorPoint: "Anchor-5" 165 267 basechar 0
AnchorPoint: "Anchor-2" 216 0 basechar 0
AnchorPoint: "Anchor-1" 248 705 basechar 0
AnchorPoint: "Anchor-0" 140 635 basechar 0
LayerCount: 2
Fore
SplineSet
271 -9 m 0,0,1
 214 -9 214 -9 175.5 11.5 c 128,-1,2
 137 32 137 32 118 71.5 c 128,-1,3
 99 111 99 111 99 168 c 2,4,-1
 99 423 l 1,5,-1
 32 423 l 2,6,7
 15 423 15 423 6 431.5 c 128,-1,8
 -3 440 -3 440 -3 455 c 256,9,10
 -3 470 -3 470 6 478 c 128,-1,11
 15 486 15 486 32 486 c 2,12,-1
 99 486 l 1,13,-1
 99 601 l 2,14,15
 99 621 99 621 110 631.5 c 128,-1,16
 121 642 121 642 140 642 c 256,17,18
 159 642 159 642 169.5 631.5 c 128,-1,19
 180 621 180 621 180 601 c 2,20,-1
 180 486 l 1,21,-1
 306 486 l 2,22,23
 323 486 323 486 332 478 c 128,-1,24
 341 470 341 470 341 455 c 256,25,26
 341 440 341 440 332 431.5 c 128,-1,27
 323 423 323 423 306 423 c 2,28,-1
 180 423 l 1,29,-1
 180 176 l 2,30,31
 180 119 180 119 204 89.5 c 128,-1,32
 228 60 228 60 282 60 c 0,33,34
 301 60 301 60 314.5 64 c 128,-1,35
 328 68 328 68 337 68 c 0,36,37
 346 69 346 69 352 62 c 128,-1,38
 358 55 358 55 358 38 c 0,39,40
 358 26 358 26 353.5 16 c 128,-1,41
 349 6 349 6 338 2 c 0,42,43
 326 -2 326 -2 306.5 -5.5 c 128,-1,44
 287 -9 287 -9 271 -9 c 0,0,1
EndSplineSet
EndChar

StartChar: u
Encoding: 117 117 440
Width: 561
GlyphClass: 2
Flags: W
AnchorPoint: "Anchor-3" 469 0 basechar 0
AnchorPoint: "Anchor-2" 281 0 basechar 0
AnchorPoint: "Anchor-1" 420 484 basechar 0
AnchorPoint: "Anchor-0" 281 485 basechar 0
LayerCount: 2
Fore
SplineSet
248 -9 m 0,0,1
 189 -9 189 -9 150.5 12.5 c 128,-1,2
 112 34 112 34 92.5 77 c 128,-1,3
 73 120 73 120 73 184 c 2,4,-1
 73 452 l 2,5,6
 73 473 73 473 83.5 483 c 128,-1,7
 94 493 94 493 113 493 c 0,8,9
 133 493 133 493 143.5 483 c 128,-1,10
 154 473 154 473 154 452 c 2,11,-1
 154 185 l 2,12,13
 154 121 154 121 180.5 89.5 c 128,-1,14
 207 58 207 58 264 58 c 0,15,16
 326 58 326 58 365 100 c 128,-1,17
 404 142 404 142 404 210 c 2,18,-1
 404 452 l 2,19,20
 404 473 404 473 414.5 483 c 128,-1,21
 425 493 425 493 445 493 c 0,22,23
 464 493 464 493 474.5 483 c 128,-1,24
 485 473 485 473 485 452 c 2,25,-1
 485 35 l 2,26,27
 485 -7 485 -7 446 -7 c 0,28,29
 427 -7 427 -7 416.5 4 c 128,-1,30
 406 15 406 15 406 35 c 2,31,-1
 406 126 l 1,32,-1
 419 112 l 1,33,34
 399 53 399 53 353.5 22 c 128,-1,35
 308 -9 308 -9 248 -9 c 0,0,1
EndSplineSet
EndChar

StartChar: uhorn
Encoding: 432 432 450
Width: 561
GlyphClass: 2
Flags: W
AnchorPoint: "Anchor-2" 281 0 basechar 0
AnchorPoint: "Anchor-0" 281 484 basechar 0
LayerCount: 2
Fore
SplineSet
248 -9 m 0,0,1
 189 -9 189 -9 150.5 12.5 c 128,-1,2
 112 34 112 34 92.5 77 c 128,-1,3
 73 120 73 120 73 184 c 2,4,-1
 73 452 l 2,5,6
 73 472 73 472 83.5 482.5 c 128,-1,7
 94 493 94 493 113 493 c 0,8,9
 133 493 133 493 143.5 482.5 c 128,-1,10
 154 472 154 472 154 452 c 2,11,-1
 154 185 l 2,12,13
 154 121 154 121 180.5 89.5 c 128,-1,14
 207 58 207 58 264 58 c 0,15,16
 326 58 326 58 365 100 c 128,-1,17
 404 142 404 142 404 210 c 2,18,-1
 404 447 l 2,19,20
 404 467 404 467 414.5 476 c 128,-1,21
 425 485 425 485 445 488 c 0,22,23
 476 491 476 491 494.5 502.5 c 128,-1,24
 513 514 513 514 521.5 535 c 128,-1,25
 530 556 530 556 530 589 c 0,26,27
 530 621 530 621 566 621 c 0,28,29
 584 621 584 621 593 613 c 128,-1,30
 602 605 602 605 602 589 c 0,31,32
 602 527 602 527 572 488 c 128,-1,33
 542 449 542 449 485 439 c 1,34,-1
 485 35 l 2,35,36
 485 -7 485 -7 446 -7 c 0,37,38
 427 -7 427 -7 416.5 4 c 128,-1,39
 406 15 406 15 406 35 c 2,40,-1
 406 126 l 1,41,-1
 419 112 l 1,42,43
 399 53 399 53 353.5 22 c 128,-1,44
 308 -9 308 -9 248 -9 c 0,0,1
EndSplineSet
EndChar

StartChar: uogonek
Encoding: 371 371 460
Width: 561
GlyphClass: 1
Flags: W
LayerCount: 2
Fore
SplineSet
406 126 m 1,0,-1
 419 112 l 1,1,2
 399 53 399 53 353.5 22 c 128,-1,3
 308 -9 308 -9 248 -9 c 0,4,5
 189 -9 189 -9 150.5 12.5 c 128,-1,6
 112 34 112 34 92.5 77 c 128,-1,7
 73 120 73 120 73 184 c 2,8,-1
 73 452 l 2,9,10
 73 472 73 472 83.5 482.5 c 128,-1,11
 94 493 94 493 113 493 c 0,12,13
 133 493 133 493 143.5 482.5 c 128,-1,14
 154 472 154 472 154 452 c 2,15,-1
 154 185 l 2,16,17
 154 121 154 121 180.5 89.5 c 128,-1,18
 207 58 207 58 264 58 c 0,19,20
 326 58 326 58 365 100 c 128,-1,21
 404 142 404 142 404 210 c 2,22,-1
 404 452 l 2,23,24
 404 472 404 472 414.5 482.5 c 128,-1,25
 425 493 425 493 445 493 c 0,26,27
 464 493 464 493 474.5 482.5 c 128,-1,28
 485 472 485 472 485 452 c 2,29,-1
 485 35 l 2,30,31
 485 18 485 18 478.5 8.5 c 128,-1,32
 472 -1 472 -1 460 -6 c 0,33,34
 438 -18 438 -18 420.5 -38 c 128,-1,35
 403 -58 403 -58 403 -86 c 256,36,37
 403 -114 403 -114 419.5 -128 c 128,-1,38
 436 -142 436 -142 461 -142 c 0,39,40
 470 -142 470 -142 478.5 -140.5 c 128,-1,41
 487 -139 487 -139 495 -136 c 0,42,43
 509 -132 509 -132 516.5 -137 c 128,-1,44
 524 -142 524 -142 526 -151.5 c 128,-1,45
 528 -161 528 -161 524 -170 c 128,-1,46
 520 -179 520 -179 509 -183 c 0,47,48
 494 -189 494 -189 479 -190.5 c 128,-1,49
 464 -192 464 -192 450 -192 c 0,50,51
 402 -192 402 -192 373.5 -166 c 128,-1,52
 345 -140 345 -140 345 -95 c 0,53,54
 345 -59 345 -59 366 -26.5 c 128,-1,55
 387 6 387 6 424 27 c 1,56,-1
 414 7 l 1,57,58
 410 13 410 13 408 20 c 128,-1,59
 406 27 406 27 406 36 c 2,60,-1
 406 126 l 1,0,-1
EndSplineSet
EndChar

StartChar: v
Encoding: 118 118 464
Width: 515
GlyphClass: 2
Flags: W
AnchorPoint: "Anchor-2" 258 0 basechar 0
AnchorPoint: "Anchor-0" 258 484 basechar 0
LayerCount: 2
Fore
SplineSet
257 -7 m 0,0,1
 240 -7 240 -7 227 2.5 c 128,-1,2
 214 12 214 12 205 32 c 2,3,-1
 32 436 l 2,4,5
 25 451 25 451 27 464 c 128,-1,6
 29 477 29 477 39 485 c 128,-1,7
 49 493 49 493 67 493 c 0,8,9
 83 493 83 493 92 486 c 128,-1,10
 101 479 101 479 108 461 c 2,11,-1
 272 60 l 1,12,-1
 245 60 l 1,13,-1
 412 461 l 2,14,15
 419 479 419 479 428 486 c 128,-1,16
 437 493 437 493 454 493 c 0,17,18
 470 493 470 493 478.5 485 c 128,-1,19
 487 477 487 477 488.5 464.5 c 128,-1,20
 490 452 490 452 484 437 c 2,21,-1
 309 32 l 2,22,23
 302 12 302 12 288.5 2.5 c 128,-1,24
 275 -7 275 -7 257 -7 c 0,0,1
EndSplineSet
EndChar

StartChar: w
Encoding: 119 119 465
Width: 841
GlyphClass: 2
Flags: W
AnchorPoint: "Anchor-2" 421 0 basechar 0
AnchorPoint: "Anchor-0" 421 484 basechar 0
LayerCount: 2
Fore
SplineSet
244 -7 m 0,0,1
 227 -7 227 -7 214 2 c 128,-1,2
 201 11 201 11 193 31 c 2,3,-1
 44 436 l 2,4,5
 38 453 38 453 40.5 466 c 128,-1,6
 43 479 43 479 53 486 c 128,-1,7
 63 493 63 493 78 493 c 256,8,9
 93 493 93 493 102.5 486 c 128,-1,10
 112 479 112 479 118 460 c 2,11,-1
 258 60 l 1,12,-1
 234 60 l 1,13,-1
 378 460 l 2,14,15
 385 478 385 478 395.5 485.5 c 128,-1,16
 406 493 406 493 423 493 c 0,17,18
 439 493 439 493 450 485 c 128,-1,19
 461 477 461 477 467 460 c 2,20,-1
 608 60 l 1,21,-1
 585 60 l 1,22,-1
 727 462 l 2,23,24
 734 480 734 480 744 486.5 c 128,-1,25
 754 493 754 493 768 493 c 0,26,27
 784 493 784 493 792.5 485 c 128,-1,28
 801 477 801 477 802 464 c 128,-1,29
 803 451 803 451 797 436 c 2,30,-1
 648 31 l 2,31,32
 641 12 641 12 627.5 2.5 c 128,-1,33
 614 -7 614 -7 597 -7 c 256,34,35
 580 -7 580 -7 567 2.5 c 128,-1,36
 554 12 554 12 547 31 c 2,37,-1
 399 437 l 1,38,-1
 442 437 l 1,39,-1
 295 31 l 2,40,41
 288 12 288 12 275 2.5 c 128,-1,42
 262 -7 262 -7 244 -7 c 0,0,1
EndSplineSet
EndChar

StartChar: x
Encoding: 120 120 470
Width: 525
GlyphClass: 2
Flags: W
AnchorPoint: "Anchor-2" 263 0 basechar 0
AnchorPoint: "Anchor-0" 263 484 basechar 0
LayerCount: 2
Fore
SplineSet
78 -6 m 0,0,1
 65 -6 65 -6 55 2 c 128,-1,2
 45 10 45 10 44.5 23.5 c 128,-1,3
 44 37 44 37 57 52 c 2,4,-1
 232 272 l 1,5,-1
 232 230 l 1,6,-1
 68 435 l 2,7,8
 55 451 55 451 55.5 464 c 128,-1,9
 56 477 56 477 66 485 c 128,-1,10
 76 493 76 493 89 493 c 0,11,12
 104 493 104 493 114.5 487.5 c 128,-1,13
 125 482 125 482 134 470 c 2,14,-1
 277 289 l 1,15,-1
 249 289 l 1,16,-1
 393 470 l 2,17,18
 402 482 402 482 412 487.5 c 128,-1,19
 422 493 422 493 437 493 c 0,20,21
 451 493 451 493 460.5 485 c 128,-1,22
 470 477 470 477 470.5 463.5 c 128,-1,23
 471 450 471 450 458 434 c 2,24,-1
 295 232 l 1,25,-1
 295 269 l 1,26,-1
 470 52 l 2,27,28
 482 37 482 37 481.5 23.5 c 128,-1,29
 481 10 481 10 471 2 c 128,-1,30
 461 -6 461 -6 447 -6 c 256,31,32
 433 -6 433 -6 422.5 -0.5 c 128,-1,33
 412 5 412 5 402 17 c 2,34,-1
 248 211 l 1,35,-1
 277 211 l 1,36,-1
 123 17 l 2,37,38
 114 6 114 6 103.5 0 c 128,-1,39
 93 -6 93 -6 78 -6 c 0,0,1
EndSplineSet
EndChar

StartChar: y
Encoding: 121 121 471
Width: 514
GlyphClass: 2
Flags: W
AnchorPoint: "Anchor-2" 389 0 basechar 0
AnchorPoint: "Anchor-0" 258 484 basechar 0
LayerCount: 2
Fore
SplineSet
184 -187 m 0,0,1
 169 -187 169 -187 160 -179 c 128,-1,2
 151 -171 151 -171 149.5 -157.5 c 128,-1,3
 148 -144 148 -144 154 -130 c 2,4,-1
 223 25 l 1,5,-1
 223 -10 l 1,6,-1
 31 436 l 2,7,8
 25 451 25 451 27 464 c 128,-1,9
 29 477 29 477 39 485 c 128,-1,10
 49 493 49 493 67 493 c 0,11,12
 83 493 83 493 92 486 c 128,-1,13
 101 479 101 479 108 461 c 2,14,-1
 272 59 l 1,15,-1
 245 59 l 1,16,-1
 411 461 l 2,17,18
 419 479 419 479 428 486 c 128,-1,19
 437 493 437 493 454 493 c 0,20,21
 470 493 470 493 478.5 485 c 128,-1,22
 487 477 487 477 488.5 464.5 c 128,-1,23
 490 452 490 452 484 437 c 2,24,-1
 228 -155 l 2,25,26
 220 -173 220 -173 210.5 -180 c 128,-1,27
 201 -187 201 -187 184 -187 c 0,0,1
EndSplineSet
EndChar

StartChar: uni01B4
Encoding: 436 436 478
Width: 551
GlyphClass: 1
Flags: W
LayerCount: 2
Fore
SplineSet
184 -187 m 0,0,1
 169 -187 169 -187 160 -178.5 c 128,-1,2
 151 -170 151 -170 149.5 -157 c 128,-1,3
 148 -144 148 -144 155 -129 c 2,4,-1
 223 25 l 1,5,-1
 223 -10 l 1,6,-1
 31 437 l 2,7,8
 24 452 24 452 26 465 c 128,-1,9
 28 478 28 478 38.5 485.5 c 128,-1,10
 49 493 49 493 67 493 c 0,11,12
 83 493 83 493 92 486 c 128,-1,13
 101 479 101 479 108 461 c 2,14,-1
 272 60 l 1,15,-1
 245 60 l 1,16,-1
 384 394 l 2,17,18
 398 427 398 427 416.5 449.5 c 128,-1,19
 435 472 435 472 462 483.5 c 128,-1,20
 489 495 489 495 526 495 c 0,21,22
 564 495 564 495 578 486.5 c 128,-1,23
 592 478 592 478 592 461 c 0,24,25
 592 446 592 446 585.5 436.5 c 128,-1,26
 579 427 579 427 566 427 c 0,27,28
 561 427 561 427 553.5 428 c 128,-1,29
 546 429 546 429 536 429 c 0,30,31
 506 429 506 429 485.5 411.5 c 128,-1,32
 465 394 465 394 447 351 c 2,33,-1
 228 -155 l 2,34,35
 221 -173 221 -173 211 -180 c 128,-1,36
 201 -187 201 -187 184 -187 c 0,0,1
EndSplineSet
EndChar

StartChar: z
Encoding: 122 122 482
Width: 463
GlyphClass: 2
Flags: W
AnchorPoint: "Anchor-2" 239 0 basechar 0
AnchorPoint: "Anchor-0" 239 484 basechar 0
LayerCount: 2
Fore
SplineSet
85 0 m 2,0,1
 72 0 72 0 64 6 c 128,-1,2
 56 12 56 12 53 22 c 128,-1,3
 50 32 50 32 53 44 c 128,-1,4
 56 56 56 56 66 67 c 2,5,-1
 348 444 l 1,6,-1
 348 423 l 1,7,-1
 81 423 l 2,8,9
 65 423 65 423 56.5 431.5 c 128,-1,10
 48 440 48 440 48 455 c 256,11,12
 48 470 48 470 56.5 478 c 128,-1,13
 65 486 65 486 81 486 c 2,14,-1
 388 486 l 2,15,16
 403 486 403 486 412.5 480 c 128,-1,17
 422 474 422 474 425 464.5 c 128,-1,18
 428 455 428 455 425.5 443.5 c 128,-1,19
 423 432 423 432 414 421 c 2,20,-1
 127 40 l 1,21,-1
 127 63 l 1,22,-1
 408 63 l 2,23,24
 441 63 441 63 441 32 c 0,25,26
 441 17 441 17 432.5 8.5 c 128,-1,27
 424 0 424 0 408 0 c 2,28,-1
 85 0 l 2,0,1
EndSplineSet
EndChar

StartChar: germandbls.calt
Encoding: 65540 -1 487
Width: 713
GlyphClass: 1
Flags: W
LayerCount: 2
Fore
SplineSet
431 -9 m 0,0,1
 379 -9 379 -9 333.5 4 c 128,-1,2
 288 17 288 17 254 41 c 0,3,4
 243 49 243 49 239.5 59.5 c 128,-1,5
 236 70 236 70 238.5 80.5 c 128,-1,6
 241 91 241 91 248 98.5 c 128,-1,7
 255 106 255 106 265 107.5 c 128,-1,8
 275 109 275 109 286 102 c 0,9,10
 318 79 318 79 352.5 70 c 128,-1,11
 387 61 387 61 425 61 c 0,12,13
 496 61 496 61 532.5 96 c 128,-1,14
 569 131 569 131 569 192 c 0,15,16
 569 254 569 254 529.5 287 c 128,-1,17
 490 320 490 320 409 320 c 2,18,-1
 306 320 l 2,19,20
 290 320 290 320 280 329 c 128,-1,21
 270 338 270 338 270 355 c 0,22,23
 270 371 270 371 279.5 379.5 c 128,-1,24
 289 388 289 388 303 388 c 2,25,-1
 386 388 l 2,26,27
 452 388 452 388 491.5 421 c 128,-1,28
 531 454 531 454 531 516 c 0,29,30
 531 579 531 579 489 611.5 c 128,-1,31
 447 644 447 644 368 644 c 0,32,33
 270 644 270 644 219.5 598 c 128,-1,34
 169 552 169 552 169 459 c 2,35,-1
 169 36 l 2,36,37
 169 16 169 16 158.5 4.5 c 128,-1,38
 148 -7 148 -7 128 -7 c 256,39,40
 108 -7 108 -7 97.5 4.5 c 128,-1,41
 87 16 87 16 87 36 c 2,42,-1
 87 461 l 2,43,44
 87 544 87 544 120.5 600.5 c 128,-1,45
 154 657 154 657 217.5 685.5 c 128,-1,46
 281 714 281 714 370 714 c 0,47,48
 444 714 444 714 498.5 691 c 128,-1,49
 553 668 553 668 583 626.5 c 128,-1,50
 613 585 613 585 613 527 c 0,51,52
 613 462 613 462 578.5 415 c 128,-1,53
 544 368 544 368 484 353 c 1,54,-1
 484 369 l 1,55,56
 535 363 535 363 572 339.5 c 128,-1,57
 609 316 609 316 629.5 278 c 128,-1,58
 650 240 650 240 650 188 c 0,59,60
 650 125 650 125 624 81 c 128,-1,61
 598 37 598 37 549 14 c 128,-1,62
 500 -9 500 -9 431 -9 c 0,0,1
EndSplineSet
EndChar

StartChar: a.ss01
Encoding: 65542 -1 489
Width: 583
GlyphClass: 2
Flags: W
AnchorPoint: "Anchor-3" 491 0 basechar 0
AnchorPoint: "Anchor-2" 288 0 basechar 0
AnchorPoint: "Anchor-0" 288 484 basechar 0
LayerCount: 2
Fore
SplineSet
261 -9 m 0,0,1
 196 -9 196 -9 147.5 22 c 128,-1,2
 99 53 99 53 72.5 109.5 c 128,-1,3
 46 166 46 166 46 243 c 0,4,5
 46 321 46 321 72.5 377.5 c 128,-1,6
 99 434 99 434 147.5 464.5 c 128,-1,7
 196 495 196 495 261 495 c 0,8,9
 327 495 327 495 374 462 c 128,-1,10
 421 429 421 429 437 373 c 1,11,-1
 427 361 l 1,12,-1
 427 452 l 2,13,14
 427 472 427 472 437.5 482.5 c 128,-1,15
 448 493 448 493 467 493 c 0,16,17
 487 493 487 493 497 482.5 c 128,-1,18
 507 472 507 472 507 452 c 2,19,-1
 507 35 l 2,20,21
 507 15 507 15 497 4 c 128,-1,22
 487 -7 487 -7 467 -7 c 0,23,24
 448 -7 448 -7 437.5 4 c 128,-1,25
 427 15 427 15 427 35 c 2,26,-1
 427 125 l 1,27,-1
 438 116 l 1,28,29
 422 59 422 59 374.5 25 c 128,-1,30
 327 -9 327 -9 261 -9 c 0,0,1
278 56 m 0,31,32
 323 56 323 56 357 78 c 128,-1,33
 391 100 391 100 409.5 142 c 128,-1,34
 428 184 428 184 428 243 c 0,35,36
 428 334 428 334 387.5 382 c 128,-1,37
 347 430 347 430 278 430 c 0,38,39
 232 430 232 430 198.5 408.5 c 128,-1,40
 165 387 165 387 146.5 345.5 c 128,-1,41
 128 304 128 304 128 243 c 0,42,43
 128 153 128 153 169 104.5 c 128,-1,44
 210 56 210 56 278 56 c 0,31,32
EndSplineSet
EndChar

StartChar: l.ss02
Encoding: 65569 -1 516
Width: 232
GlyphClass: 2
Flags: W
AnchorPoint: "Anchor-5" 116 357 basechar 0
AnchorPoint: "Anchor-2" 116 0 basechar 0
AnchorPoint: "Anchor-1" 202 705 basechar 0
AnchorPoint: "Anchor-0" 116 705 basechar 0
LayerCount: 2
Fore
SplineSet
116 -7 m 0,0,1
 96 -7 96 -7 86 4 c 128,-1,2
 76 15 76 15 76 35 c 2,3,-1
 76 671 l 2,4,5
 76 692 76 692 86 702 c 128,-1,6
 96 712 96 712 116 712 c 0,7,8
 135 712 135 712 146 702 c 128,-1,9
 157 692 157 692 157 671 c 2,10,-1
 157 35 l 2,11,12
 157 -7 157 -7 116 -7 c 0,0,1
EndSplineSet
EndChar

StartChar: fi
Encoding: 64257 64257 525
Width: 559
GlyphClass: 3
LigCaretCntFixed: 1
Flags: W
LayerCount: 2
Fore
SplineSet
142 -7 m 0,0,1
 123 -7 123 -7 112.5 4 c 128,-1,2
 102 15 102 15 102 35 c 2,3,-1
 102 423 l 1,4,-1
 38 423 l 2,5,6
 22 423 22 423 12.5 431.5 c 128,-1,7
 3 440 3 440 3 455 c 256,8,9
 3 470 3 470 12.5 478 c 128,-1,10
 22 486 22 486 38 486 c 2,11,-1
 124 486 l 1,12,-1
 102 465 l 1,13,-1
 102 503 l 2,14,15
 102 597 102 597 147.5 647 c 128,-1,16
 193 697 193 697 282 704 c 2,17,-1
 312 707 l 2,18,19
 327 708 327 708 336 702.5 c 128,-1,20
 345 697 345 697 347.5 688 c 128,-1,21
 350 679 350 679 348 669 c 128,-1,22
 346 659 346 659 339.5 652 c 128,-1,23
 333 645 333 645 324 644 c 2,24,-1
 294 642 l 2,25,26
 235 638 235 638 209 605.5 c 128,-1,27
 183 573 183 573 183 513 c 2,28,-1
 183 471 l 1,29,-1
 171 486 l 1,30,-1
 443 486 l 2,31,32
 462 486 462 486 472.5 475 c 128,-1,33
 483 464 483 464 483 443 c 2,34,-1
 483 39 l 2,35,36
 483 18 483 18 473 6.5 c 128,-1,37
 463 -5 463 -5 443 -5 c 256,38,39
 423 -5 423 -5 412.5 6.5 c 128,-1,40
 402 18 402 18 402 39 c 2,41,-1
 402 423 l 1,42,-1
 183 423 l 1,43,-1
 183 35 l 2,44,45
 183 -7 183 -7 142 -7 c 0,0,1
444 603 m 256,46,47
 419 603 419 603 405.5 616.5 c 128,-1,48
 392 630 392 630 392 653 c 0,49,50
 392 677 392 677 405.5 689.5 c 128,-1,51
 419 702 419 702 444 702 c 256,52,53
 469 702 469 702 482.5 689.5 c 128,-1,54
 496 677 496 677 496 653 c 0,55,56
 496 630 496 630 482.5 616.5 c 128,-1,57
 469 603 469 603 444 603 c 256,46,47
EndSplineSet
Ligature2: "'liga' Standard Ligatures lookup 33 subtable" f i
LCarets2: 1 279
EndChar

StartChar: ordfeminine
Encoding: 170 170 529
Width: 327
GlyphClass: 1
Flags: W
LayerCount: 2
Fore
SplineSet
136 411 m 0,0,1
 89 411 89 411 58 437 c 128,-1,2
 27 463 27 463 27 501 c 0,3,4
 27 547 27 547 68.5 567 c 128,-1,5
 110 587 110 587 182 587 c 2,6,-1
 242 587 l 1,7,-1
 242 551 l 1,8,-1
 184 551 l 2,9,10
 133 551 133 551 108.5 539 c 128,-1,11
 84 527 84 527 84 502 c 0,12,13
 84 482 84 482 99.5 467.5 c 128,-1,14
 115 453 115 453 149 453 c 0,15,16
 174 453 174 453 193 464 c 128,-1,17
 212 475 212 475 223 496 c 128,-1,18
 234 517 234 517 234 546 c 2,19,-1
 234 603 l 2,20,21
 234 636 234 636 216 652.5 c 128,-1,22
 198 669 198 669 162 669 c 0,23,24
 142 669 142 669 121 664.5 c 128,-1,25
 100 660 100 660 78 651 c 0,26,27
 65 646 65 646 57 650 c 128,-1,28
 49 654 49 654 46 662.5 c 128,-1,29
 43 671 43 671 47 679.5 c 128,-1,30
 51 688 51 688 62 693 c 0,31,32
 87 705 87 705 113 709.5 c 128,-1,33
 139 714 139 714 164 714 c 0,34,35
 207 714 207 714 234.5 701.5 c 128,-1,36
 262 689 262 689 276 664 c 128,-1,37
 290 639 290 639 290 601 c 2,38,-1
 290 439 l 2,39,40
 290 411 290 411 263 411 c 0,41,42
 250 411 250 411 243 419 c 128,-1,43
 236 427 236 427 236 439 c 2,44,-1
 236 470 l 1,45,-1
 234 470 l 1,46,47
 217 439 217 439 194 425 c 128,-1,48
 171 411 171 411 136 411 c 0,0,1
EndSplineSet
EndChar

StartChar: ordmasculine
Encoding: 186 186 530
Width: 339
GlyphClass: 1
Flags: W
LayerCount: 2
Fore
SplineSet
170 411 m 0,0,1
 127 411 127 411 94 430 c 128,-1,2
 61 449 61 449 42 483 c 128,-1,3
 23 517 23 517 23 563 c 256,4,5
 23 609 23 609 42 643 c 128,-1,6
 61 677 61 677 94 695.5 c 128,-1,7
 127 714 127 714 170 714 c 0,8,9
 212 714 212 714 245 695.5 c 128,-1,10
 278 677 278 677 297 643 c 128,-1,11
 316 609 316 609 316 563 c 256,12,13
 316 517 316 517 297 483 c 128,-1,14
 278 449 278 449 245 430 c 128,-1,15
 212 411 212 411 170 411 c 0,0,1
170 457 m 0,16,17
 210 457 210 457 234 484.5 c 128,-1,18
 258 512 258 512 258 563 c 256,19,20
 258 614 258 614 234 641 c 128,-1,21
 210 668 210 668 170 668 c 0,22,23
 129 668 129 668 105 641.5 c 128,-1,24
 81 615 81 615 81 563 c 256,25,26
 81 511 81 511 105 484 c 128,-1,27
 129 457 129 457 170 457 c 0,16,17
EndSplineSet
EndChar

StartChar: uni0411
Encoding: 1041 1041 532
Width: 660
GlyphClass: 1
Flags: W
LayerCount: 2
Fore
SplineSet
132 0 m 2,0,1
 110 0 110 0 98.5 11.5 c 128,-1,2
 87 23 87 23 87 45 c 2,3,-1
 87 660 l 2,4,5
 87 682 87 682 98.5 693.5 c 128,-1,6
 110 705 110 705 132 705 c 2,7,-1
 519 705 l 2,8,9
 536 705 536 705 545.5 696 c 128,-1,10
 555 687 555 687 555 671 c 0,11,12
 555 654 555 654 545.5 645 c 128,-1,13
 536 636 536 636 519 636 c 2,14,-1
 167 636 l 1,15,-1
 167 394 l 1,16,-1
 381 394 l 2,17,18
 492 394 492 394 553 345 c 128,-1,19
 614 296 614 296 614 198 c 0,20,21
 614 101 614 101 553 50.5 c 128,-1,22
 492 0 492 0 381 0 c 2,23,-1
 132 0 l 2,0,1
167 69 m 1,24,-1
 373 69 l 2,25,26
 453 69 453 69 493 100.5 c 128,-1,27
 533 132 533 132 533 198 c 0,28,29
 533 263 533 263 493 294 c 128,-1,30
 453 325 453 325 373 325 c 2,31,-1
 167 325 l 1,32,-1
 167 69 l 1,24,-1
EndSplineSet
EndChar

StartChar: uni0413
Encoding: 1043 1043 534
Width: 542
GlyphClass: 2
Flags: W
AnchorPoint: "Anchor-4" 155 354 basechar 0
AnchorPoint: "Anchor-0" 277 705 basechar 0
LayerCount: 2
Fore
SplineSet
128 -7 m 0,0,1
 108 -7 108 -7 97.5 4.5 c 128,-1,2
 87 16 87 16 87 36 c 2,3,-1
 87 662 l 2,4,5
 87 683 87 683 98 694 c 128,-1,6
 109 705 109 705 130 705 c 2,7,-1
 497 705 l 2,8,9
 516 705 516 705 525.5 696 c 128,-1,10
 535 687 535 687 535 669 c 0,11,12
 535 653 535 653 525.5 643.5 c 128,-1,13
 516 634 516 634 497 634 c 2,14,-1
 169 634 l 1,15,-1
 169 36 l 2,16,17
 169 16 169 16 159 4.5 c 128,-1,18
 149 -7 149 -7 128 -7 c 0,0,1
EndSplineSet
EndChar

StartChar: uni0490
Encoding: 1168 1168 536
Width: 542
GlyphClass: 1
Flags: W
LayerCount: 2
Fore
SplineSet
128 -7 m 0,0,1
 108 -7 108 -7 97.5 4.5 c 128,-1,2
 87 16 87 16 87 36 c 2,3,-1
 87 662 l 2,4,5
 87 683 87 683 98 694 c 128,-1,6
 109 705 109 705 130 705 c 2,7,-1
 453 705 l 1,8,-1
 453 828 l 2,9,10
 453 867 453 867 490 867 c 0,11,12
 508 867 508 867 518 857 c 128,-1,13
 528 847 528 847 528 828 c 2,14,-1
 528 677 l 2,15,16
 528 657 528 657 517 645.5 c 128,-1,17
 506 634 506 634 485 634 c 2,18,-1
 169 634 l 1,19,-1
 169 36 l 2,20,21
 169 16 169 16 159 4.5 c 128,-1,22
 149 -7 149 -7 128 -7 c 0,0,1
EndSplineSet
EndChar

StartChar: uni04F6
Encoding: 1270 1270 537
Width: 542
GlyphClass: 1
Flags: W
LayerCount: 2
Fore
SplineSet
233 -164 m 0,0,1
 214 -164 214 -164 204.5 -154 c 128,-1,2
 195 -144 195 -144 195 -125 c 2,3,-1
 195 0 l 1,4,-1
 128 0 l 2,5,6
 108 0 108 0 97.5 10.5 c 128,-1,7
 87 21 87 21 87 43 c 2,8,-1
 87 662 l 2,9,10
 87 683 87 683 98 694 c 128,-1,11
 109 705 109 705 130 705 c 2,12,-1
 497 705 l 2,13,14
 516 705 516 705 525.5 696 c 128,-1,15
 535 687 535 687 535 669 c 0,16,17
 535 653 535 653 525.5 643.5 c 128,-1,18
 516 634 516 634 497 634 c 2,19,-1
 169 634 l 1,20,-1
 169 32 l 1,21,-1
 132 69 l 1,22,-1
 228 69 l 2,23,24
 248 69 248 69 258.5 58.5 c 128,-1,25
 269 48 269 48 269 28 c 2,26,-1
 269 -125 l 2,27,28
 269 -144 269 -144 260 -154 c 128,-1,29
 251 -164 251 -164 233 -164 c 0,0,1
EndSplineSet
EndChar

StartChar: uni0492
Encoding: 1170 1170 538
Width: 578
GlyphClass: 1
Flags: W
LayerCount: 2
Fore
SplineSet
164 -7 m 0,0,1
 145 -7 145 -7 134 4.5 c 128,-1,2
 123 16 123 16 123 36 c 2,3,-1
 123 321 l 1,4,-1
 61 321 l 2,5,6
 44 321 44 321 35 329.5 c 128,-1,7
 26 338 26 338 26 353 c 256,8,9
 26 368 26 368 35 376 c 128,-1,10
 44 384 44 384 61 384 c 2,11,-1
 123 384 l 1,12,-1
 123 662 l 2,13,14
 123 683 123 683 134.5 694 c 128,-1,15
 146 705 146 705 166 705 c 2,16,-1
 533 705 l 2,17,18
 552 705 552 705 561.5 696 c 128,-1,19
 571 687 571 687 571 669 c 0,20,21
 571 653 571 653 561.5 643.5 c 128,-1,22
 552 634 552 634 533 634 c 2,23,-1
 206 634 l 1,24,-1
 206 384 l 1,25,-1
 356 384 l 2,26,27
 373 384 373 384 382 376 c 128,-1,28
 391 368 391 368 391 353 c 256,29,30
 391 338 391 338 382 329.5 c 128,-1,31
 373 321 373 321 356 321 c 2,32,-1
 206 321 l 1,33,-1
 206 36 l 2,34,35
 206 16 206 16 195.5 4.5 c 128,-1,36
 185 -7 185 -7 164 -7 c 0,0,1
EndSplineSet
Substitution2: "'locl' Localized Forms in Cyrillic lookup 16 subtable" uni0492.loclBSH
Substitution2: "'aalt' Access All Alternates lookup 0 subtable" uni0492.loclBSH
EndChar

StartChar: uni0494
Encoding: 1172 1172 539
Width: 669
GlyphClass: 1
Flags: W
LayerCount: 2
Fore
SplineSet
407 -189 m 0,0,1
 383 -189 383 -189 357 -185.5 c 128,-1,2
 331 -182 331 -182 312 -176 c 0,3,4
 299 -171 299 -171 292 -162.5 c 128,-1,5
 285 -154 285 -154 285 -143.5 c 128,-1,6
 285 -133 285 -133 289.5 -124.5 c 128,-1,7
 294 -116 294 -116 304 -111.5 c 128,-1,8
 314 -107 314 -107 327 -111 c 0,9,10
 344 -116 344 -116 361.5 -118 c 128,-1,11
 379 -120 379 -120 399 -120 c 0,12,13
 461 -120 461 -120 495 -78 c 128,-1,14
 529 -36 529 -36 529 48 c 2,15,-1
 529 140 l 2,16,17
 529 254 529 254 478.5 308 c 128,-1,18
 428 362 428 362 326 362 c 0,19,20
 279 362 279 362 240 352 c 128,-1,21
 201 342 201 342 169 323 c 1,22,-1
 169 36 l 2,23,24
 169 16 169 16 159 4.5 c 128,-1,25
 149 -7 149 -7 128 -7 c 0,26,27
 108 -7 108 -7 97.5 4.5 c 128,-1,28
 87 16 87 16 87 36 c 2,29,-1
 87 662 l 2,30,31
 87 683 87 683 98 694 c 128,-1,32
 109 705 109 705 130 705 c 2,33,-1
 515 705 l 2,34,35
 533 705 533 705 543 696 c 128,-1,36
 553 687 553 687 553 670 c 256,37,38
 553 653 553 653 543 643.5 c 128,-1,39
 533 634 533 634 515 634 c 2,40,-1
 169 634 l 1,41,-1
 169 399 l 1,42,43
 197 416 197 416 241.5 425.5 c 128,-1,44
 286 435 286 435 333 435 c 0,45,46
 402 435 402 435 454 417 c 128,-1,47
 506 399 506 399 541 363 c 128,-1,48
 576 327 576 327 593.5 272.5 c 128,-1,49
 611 218 611 218 611 146 c 2,50,-1
 611 51 l 2,51,52
 611 -26 611 -26 586.5 -80 c 128,-1,53
 562 -134 562 -134 516 -161.5 c 128,-1,54
 470 -189 470 -189 407 -189 c 0,0,1
EndSplineSet
EndChar

StartChar: uni0414
Encoding: 1044 1044 540
Width: 778
GlyphClass: 1
Flags: W
AnchorPoint: "Anchor-0" 405 704 basechar 0
LayerCount: 2
Fore
SplineSet
54 -164 m 0,0,1
 36 -164 36 -164 26.5 -154 c 128,-1,2
 17 -144 17 -144 17 -125 c 2,3,-1
 17 28 l 2,4,5
 17 69 17 69 58 69 c 2,6,-1
 123 69 l 1,7,-1
 74 55 l 1,8,9
 132 119 132 119 160 233.5 c 128,-1,10
 188 348 188 348 188 523 c 2,11,-1
 188 660 l 2,12,13
 188 682 188 682 199.5 693.5 c 128,-1,14
 211 705 211 705 233 705 c 2,15,-1
 611 705 l 2,16,17
 632 705 632 705 644 693.5 c 128,-1,18
 656 682 656 682 656 660 c 2,19,-1
 656 36 l 1,20,-1
 623 69 l 1,21,-1
 714 69 l 2,22,23
 734 69 734 69 745 58.5 c 128,-1,24
 756 48 756 48 756 28 c 2,25,-1
 756 -125 l 2,26,27
 756 -164 756 -164 719 -164 c 0,28,29
 700 -164 700 -164 690.5 -154 c 128,-1,30
 681 -144 681 -144 681 -125 c 2,31,-1
 681 0 l 1,32,-1
 91 0 l 1,33,-1
 91 -125 l 2,34,35
 91 -164 91 -164 54 -164 c 0,0,1
172 69 m 1,36,-1
 573 69 l 1,37,-1
 573 636 l 1,38,-1
 265 636 l 1,39,-1
 265 517 l 2,40,41
 265 356 265 356 242.5 248 c 128,-1,42
 220 140 220 140 172 69 c 1,36,-1
EndSplineSet
EndChar

StartChar: uni0416
Encoding: 1046 1046 544
Width: 968
GlyphClass: 2
Flags: W
AnchorPoint: "Anchor-0" 484 705 basechar 0
LayerCount: 2
Fore
SplineSet
485 -7 m 0,0,1
 465 -7 465 -7 454.5 4.5 c 128,-1,2
 444 16 444 16 444 36 c 2,3,-1
 444 320 l 1,4,-1
 358 320 l 2,5,6
 302 320 302 320 264 293.5 c 128,-1,7
 226 267 226 267 197 207 c 2,8,-1
 108 20 l 2,9,10
 101 5 101 5 89 -1 c 128,-1,11
 77 -7 77 -7 64.5 -5.5 c 128,-1,12
 52 -4 52 -4 42 3 c 128,-1,13
 32 10 32 10 29 22.5 c 128,-1,14
 26 35 26 35 34 51 c 2,15,-1
 129 245 l 2,16,17
 161 309 161 309 205 345 c 128,-1,18
 249 381 249 381 309 388 c 1,19,-1
 279 361 l 1,20,-1
 84 652 l 2,21,22
 75 666 75 666 76 678.5 c 128,-1,23
 77 691 77 691 85.5 699.5 c 128,-1,24
 94 708 94 708 105.5 710.5 c 128,-1,25
 117 713 117 713 129.5 708.5 c 128,-1,26
 142 704 142 704 151 690 c 2,27,-1
 359 375 l 1,28,-1
 336 391 l 1,29,-1
 444 391 l 1,30,-1
 444 670 l 2,31,32
 444 691 444 691 454.5 701.5 c 128,-1,33
 465 712 465 712 485 712 c 0,34,35
 504 712 504 712 514 701.5 c 128,-1,36
 524 691 524 691 524 670 c 2,37,-1
 524 391 l 1,38,-1
 634 391 l 1,39,-1
 610 375 l 1,40,-1
 818 690 l 2,41,42
 827 704 827 704 839.5 708.5 c 128,-1,43
 852 713 852 713 863.5 710.5 c 128,-1,44
 875 708 875 708 883.5 699.5 c 128,-1,45
 892 691 892 691 893 678.5 c 128,-1,46
 894 666 894 666 885 652 c 2,47,-1
 690 361 l 1,48,-1
 660 388 l 1,49,50
 700 383 700 383 732.5 365.5 c 128,-1,51
 765 348 765 348 791.5 318 c 128,-1,52
 818 288 818 288 838 245 c 2,53,-1
 933 51 l 2,54,55
 942 35 942 35 938.5 22.5 c 128,-1,56
 935 10 935 10 925 3 c 128,-1,57
 915 -4 915 -4 902.5 -5.5 c 128,-1,58
 890 -7 890 -7 878 -1 c 128,-1,59
 866 5 866 5 859 20 c 2,60,-1
 770 207 l 2,61,62
 741 268 741 268 703 294 c 128,-1,63
 665 320 665 320 611 320 c 2,64,-1
 524 320 l 1,65,-1
 524 36 l 2,66,67
 524 16 524 16 514 4.5 c 128,-1,68
 504 -7 504 -7 485 -7 c 0,0,1
EndSplineSet
EndChar

StartChar: uni0417
Encoding: 1047 1047 545
Width: 640
GlyphClass: 2
Flags: W
AnchorPoint: "Anchor-2" 318 0 basechar 0
AnchorPoint: "Anchor-0" 314 705 basechar 0
LayerCount: 2
Fore
SplineSet
312 -9 m 0,0,1
 233 -9 233 -9 167.5 11 c 128,-1,2
 102 31 102 31 58 67 c 0,3,4
 46 76 46 76 42.5 87 c 128,-1,5
 39 98 39 98 41.5 109 c 128,-1,6
 44 120 44 120 52 127 c 128,-1,7
 60 134 60 134 71.5 135 c 128,-1,8
 83 136 83 136 96 127 c 0,9,10
 125 106 125 106 157.5 92 c 128,-1,11
 190 78 190 78 227.5 71 c 128,-1,12
 265 64 265 64 307 64 c 0,13,14
 372 64 372 64 413.5 79 c 128,-1,15
 455 94 455 94 475 123.5 c 128,-1,16
 495 153 495 153 495 197 c 0,17,18
 495 262 495 262 455.5 292.5 c 128,-1,19
 416 323 416 323 335 323 c 2,20,-1
 193 323 l 2,21,22
 176 323 176 323 166 332 c 128,-1,23
 156 341 156 341 156 357 c 0,24,25
 156 374 156 374 166 382.5 c 128,-1,26
 176 391 176 391 193 391 c 2,27,-1
 319 391 l 2,28,29
 398 391 398 391 438 422 c 128,-1,30
 478 453 478 453 478 513 c 0,31,32
 478 553 478 553 459 582 c 128,-1,33
 440 611 440 611 402.5 626 c 128,-1,34
 365 641 365 641 308 641 c 0,35,36
 255 641 255 641 205.5 627 c 128,-1,37
 156 613 156 613 114 582 c 0,38,39
 101 574 101 574 89.5 574.5 c 128,-1,40
 78 575 78 575 70 582.5 c 128,-1,41
 62 590 62 590 59.5 601 c 128,-1,42
 57 612 57 612 61 623 c 128,-1,43
 65 634 65 634 77 642 c 0,44,45
 125 679 125 679 187.5 696.5 c 128,-1,46
 250 714 250 714 314 714 c 0,47,48
 397 714 397 714 451.5 690 c 128,-1,49
 506 666 506 666 533.5 623 c 128,-1,50
 561 580 561 580 561 521 c 0,51,52
 561 455 561 455 522.5 411 c 128,-1,53
 484 367 484 367 418 353 c 1,54,-1
 418 367 l 1,55,56
 492 358 492 358 535 313 c 128,-1,57
 578 268 578 268 578 194 c 0,58,59
 578 131 578 131 549 85.5 c 128,-1,60
 520 40 520 40 461.5 15.5 c 128,-1,61
 403 -9 403 -9 312 -9 c 0,0,1
EndSplineSet
EndChar

StartChar: uni0418
Encoding: 1048 1048 546
Width: 740
GlyphClass: 2
Flags: W
AnchorPoint: "Anchor-0" 370 705 basechar 0
LayerCount: 2
Fore
SplineSet
122 -7 m 0,0,1
 114 -7 114 -7 107.5 -4.5 c 128,-1,2
 101 -2 101 -2 96.5 4 c 128,-1,3
 92 10 92 10 89.5 17.5 c 128,-1,4
 87 25 87 25 87 36 c 2,5,-1
 87 672 l 2,6,7
 87 691 87 691 97 701.5 c 128,-1,8
 107 712 107 712 126 712 c 0,9,10
 144 712 144 712 154 701.5 c 128,-1,11
 164 691 164 691 164 672 c 2,12,-1
 164 106 l 1,13,-1
 142 106 l 1,14,-1
 576 687 l 2,15,16
 585 701 585 701 594.5 706.5 c 128,-1,17
 604 712 604 712 619 712 c 0,18,19
 630 712 630 712 637 707.5 c 128,-1,20
 644 703 644 703 648 694 c 128,-1,21
 652 685 652 685 652 672 c 2,22,-1
 652 34 l 2,23,24
 652 14 652 14 642.5 3.5 c 128,-1,25
 633 -7 633 -7 615 -7 c 0,26,27
 596 -7 596 -7 586 3.5 c 128,-1,28
 576 14 576 14 576 34 c 2,29,-1
 576 599 l 1,30,-1
 598 599 l 1,31,-1
 164 18 l 2,32,33
 154 5 154 5 146 -1 c 128,-1,34
 138 -7 138 -7 122 -7 c 0,0,1
EndSplineSet
EndChar

StartChar: uni048A
Encoding: 1162 1162 549
Width: 757
GlyphClass: 1
Flags: W
LayerCount: 2
Fore
SplineSet
696 -138 m 2,0,1
 691 -151 691 -151 682 -157 c 128,-1,2
 673 -163 673 -163 662 -163.5 c 128,-1,3
 651 -164 651 -164 642.5 -158.5 c 128,-1,4
 634 -153 634 -153 630 -143 c 128,-1,5
 626 -133 626 -133 631 -118 c 2,6,-1
 675 15 l 1,7,-1
 690 0 l 1,8,-1
 617 0 l 2,9,10
 597 0 597 0 586.5 9.5 c 128,-1,11
 576 19 576 19 576 39 c 2,12,-1
 576 599 l 1,13,-1
 598 599 l 1,14,-1
 164 18 l 2,15,16
 154 5 154 5 146 -1 c 128,-1,17
 138 -7 138 -7 122 -7 c 0,18,19
 114 -7 114 -7 107.5 -4.5 c 128,-1,20
 101 -2 101 -2 96.5 4 c 128,-1,21
 92 10 92 10 89.5 17.5 c 128,-1,22
 87 25 87 25 87 36 c 2,23,-1
 87 672 l 2,24,25
 87 691 87 691 97 701.5 c 128,-1,26
 107 712 107 712 126 712 c 0,27,28
 144 712 144 712 154 701.5 c 128,-1,29
 164 691 164 691 164 672 c 2,30,-1
 164 106 l 1,31,-1
 142 106 l 1,32,-1
 576 687 l 2,33,34
 585 701 585 701 594.5 706.5 c 128,-1,35
 604 712 604 712 619 712 c 0,36,37
 630 712 630 712 637 707.5 c 128,-1,38
 644 703 644 703 648 694 c 128,-1,39
 652 685 652 685 652 672 c 2,40,-1
 652 47 l 1,41,-1
 630 69 l 1,42,-1
 711 69 l 2,43,44
 736 69 736 69 746.5 56.5 c 128,-1,45
 757 44 757 44 749 20 c 2,46,-1
 696 -138 l 2,0,1
370 760 m 0,47,48
 310 760 310 760 262 787 c 128,-1,49
 214 814 214 814 189 869 c 0,50,51
 182 884 182 884 186.5 893.5 c 128,-1,52
 191 903 191 903 201 907 c 0,53,54
 213 911 213 911 221.5 907 c 128,-1,55
 230 903 230 903 237 890 c 0,56,57
 256 852 256 852 289 832 c 128,-1,58
 322 812 322 812 370 812 c 0,59,60
 419 812 419 812 451.5 832 c 128,-1,61
 484 852 484 852 502 890 c 0,62,63
 510 903 510 903 518.5 907 c 128,-1,64
 527 911 527 911 538 907 c 256,65,66
 549 903 549 903 553 893.5 c 128,-1,67
 557 884 557 884 551 869 c 0,68,69
 526 814 526 814 477.5 787 c 128,-1,70
 429 760 429 760 370 760 c 0,47,48
EndSplineSet
EndChar

StartChar: uni041A
Encoding: 1050 1050 550
Width: 641
GlyphClass: 2
Flags: W
AnchorPoint: "Anchor-5" 324 353 basechar 0
AnchorPoint: "Anchor-0" 327 705 basechar 0
LayerCount: 2
Fore
SplineSet
128 -7 m 0,0,1
 108 -7 108 -7 97.5 4.5 c 128,-1,2
 87 16 87 16 87 36 c 2,3,-1
 87 670 l 2,4,5
 87 691 87 691 97.5 701.5 c 128,-1,6
 108 712 108 712 128 712 c 256,7,8
 148 712 148 712 158.5 701.5 c 128,-1,9
 169 691 169 691 169 670 c 2,10,-1
 169 391 l 1,11,-1
 307 391 l 1,12,-1
 283 375 l 1,13,-1
 491 690 l 2,14,15
 500 704 500 704 512 708.5 c 128,-1,16
 524 713 524 713 536 710.5 c 128,-1,17
 548 708 548 708 556 699.5 c 128,-1,18
 564 691 564 691 565.5 678.5 c 128,-1,19
 567 666 567 666 558 652 c 2,20,-1
 363 361 l 1,21,-1
 332 388 l 1,22,23
 393 381 393 381 436 345 c 128,-1,24
 479 309 479 309 511 245 c 2,25,-1
 606 51 l 2,26,27
 614 35 614 35 611 22.5 c 128,-1,28
 608 10 608 10 598 3 c 128,-1,29
 588 -4 588 -4 575.5 -5.5 c 128,-1,30
 563 -7 563 -7 551 -1 c 128,-1,31
 539 5 539 5 532 20 c 2,32,-1
 443 207 l 2,33,34
 413 268 413 268 375.5 294 c 128,-1,35
 338 320 338 320 283 320 c 2,36,-1
 169 320 l 1,37,-1
 169 36 l 2,38,39
 169 16 169 16 159 4.5 c 128,-1,40
 149 -7 149 -7 128 -7 c 0,0,1
EndSplineSet
EndChar

StartChar: uni041B
Encoding: 1051 1051 552
Width: 741
GlyphClass: 2
Flags: W
LayerCount: 2
Fore
SplineSet
613 -7 m 0,0,1
 593 -7 593 -7 582 4.5 c 128,-1,2
 571 16 571 16 571 36 c 2,3,-1
 571 634 l 1,4,-1
 263 634 l 1,5,-1
 263 472 l 2,6,7
 263 371 263 371 251.5 294.5 c 128,-1,8
 240 218 240 218 217.5 161.5 c 128,-1,9
 195 105 195 105 161.5 66 c 128,-1,10
 128 27 128 27 84 0 c 0,11,12
 68 -11 68 -11 53 -8 c 128,-1,13
 38 -5 38 -5 28 11 c 256,14,15
 18 27 18 27 22.5 41 c 128,-1,16
 27 55 27 55 43 65 c 0,17,18
 77 86 77 86 103.5 118 c 128,-1,19
 130 150 130 150 148.5 198.5 c 128,-1,20
 167 247 167 247 177 319 c 128,-1,21
 187 391 187 391 187 493 c 2,22,-1
 187 660 l 2,23,24
 187 682 187 682 198.5 693.5 c 128,-1,25
 210 705 210 705 232 705 c 2,26,-1
 609 705 l 2,27,28
 630 705 630 705 642 693.5 c 128,-1,29
 654 682 654 682 654 660 c 2,30,-1
 654 36 l 2,31,32
 654 16 654 16 643 4.5 c 128,-1,33
 632 -7 632 -7 613 -7 c 0,0,1
EndSplineSet
EndChar

StartChar: uni041F
Encoding: 1055 1055 556
Width: 755
GlyphClass: 2
Flags: W
LayerCount: 2
Fore
SplineSet
128 -7 m 0,0,1
 108 -7 108 -7 97.5 4.5 c 128,-1,2
 87 16 87 16 87 36 c 2,3,-1
 87 660 l 2,4,5
 87 682 87 682 98.5 693.5 c 128,-1,6
 110 705 110 705 132 705 c 2,7,-1
 624 705 l 2,8,9
 645 705 645 705 657 693.5 c 128,-1,10
 669 682 669 682 669 660 c 2,11,-1
 669 36 l 2,12,13
 669 16 669 16 658 4.5 c 128,-1,14
 647 -7 647 -7 628 -7 c 0,15,16
 608 -7 608 -7 597 4.5 c 128,-1,17
 586 16 586 16 586 36 c 2,18,-1
 586 634 l 1,19,-1
 169 634 l 1,20,-1
 169 36 l 2,21,22
 169 16 169 16 159 4.5 c 128,-1,23
 149 -7 149 -7 128 -7 c 0,0,1
EndSplineSet
EndChar

StartChar: uni0423
Encoding: 1059 1059 560
Width: 644
GlyphClass: 2
Flags: W
AnchorPoint: "Anchor-0" 324 705 basechar 0
LayerCount: 2
Fore
SplineSet
254 -7 m 0,0,1
 240 -7 240 -7 229.5 0.5 c 128,-1,2
 219 8 219 8 217 21 c 128,-1,3
 215 34 215 34 224 50 c 2,4,-1
 316 229 l 1,5,-1
 316 197 l 1,6,-1
 30 655 l 2,7,8
 21 670 21 670 22.5 683 c 128,-1,9
 24 696 24 696 34 704 c 128,-1,10
 44 712 44 712 59 712 c 0,11,12
 75 712 75 712 84 704.5 c 128,-1,13
 93 697 93 697 101 683 c 2,14,-1
 356 273 l 1,15,-1
 339 273 l 1,16,-1
 549 682 l 2,17,18
 556 696 556 696 565 704 c 128,-1,19
 574 712 574 712 590 712 c 0,20,21
 605 712 605 712 615 704.5 c 128,-1,22
 625 697 625 697 627.5 684.5 c 128,-1,23
 630 672 630 672 621 655 c 2,24,-1
 296 23 l 2,25,26
 290 10 290 10 280.5 1.5 c 128,-1,27
 271 -7 271 -7 254 -7 c 0,0,1
EndSplineSet
EndChar

StartChar: uni0424
Encoding: 1060 1060 562
Width: 845
GlyphClass: 1
Flags: W
LayerCount: 2
Fore
SplineSet
423 -29 m 0,0,1
 403 -29 403 -29 392 -18 c 128,-1,2
 381 -7 381 -7 381 13 c 2,3,-1
 381 79 l 1,4,-1
 404 56 l 1,5,-1
 379 56 l 2,6,7
 280 56 280 56 209 93 c 128,-1,8
 138 130 138 130 99.5 197.5 c 128,-1,9
 61 265 61 265 61 358 c 0,10,11
 61 429 61 429 82 485 c 128,-1,12
 103 541 103 541 144 579.5 c 128,-1,13
 185 618 185 618 244 638.5 c 128,-1,14
 303 659 303 659 379 659 c 2,15,-1
 404 659 l 1,16,-1
 381 636 l 1,17,-1
 381 697 l 2,18,19
 381 718 381 718 392 728.5 c 128,-1,20
 403 739 403 739 423 739 c 256,21,22
 443 739 443 739 453.5 728.5 c 128,-1,23
 464 718 464 718 464 697 c 2,24,-1
 464 636 l 1,25,-1
 442 659 l 1,26,-1
 467 659 l 2,27,28
 568 659 568 659 639 623 c 128,-1,29
 710 587 710 587 747 519.5 c 128,-1,30
 784 452 784 452 784 358 c 0,31,32
 784 288 784 288 762.5 232 c 128,-1,33
 741 176 741 176 700 137 c 128,-1,34
 659 98 659 98 600 77 c 128,-1,35
 541 56 541 56 467 56 c 2,36,-1
 442 56 l 1,37,-1
 464 79 l 1,38,-1
 464 13 l 2,39,40
 464 -7 464 -7 454 -18 c 128,-1,41
 444 -29 444 -29 423 -29 c 0,0,1
382 105 m 1,42,-1
 382 610 l 1,43,-1
 402 593 l 1,44,-1
 367 593 l 2,45,46
 317 593 317 593 276 577.5 c 128,-1,47
 235 562 235 562 206 532 c 128,-1,48
 177 502 177 502 161.5 458.5 c 128,-1,49
 146 415 146 415 146 358 c 0,50,51
 146 285 146 285 174 232 c 128,-1,52
 202 179 202 179 252 151 c 128,-1,53
 302 123 302 123 367 123 c 2,54,-1
 402 123 l 1,55,-1
 382 105 l 1,42,-1
464 105 m 1,56,-1
 443 123 l 1,57,-1
 478 123 l 2,58,59
 527 123 527 123 568 139 c 128,-1,60
 609 155 609 155 638 185.5 c 128,-1,61
 667 216 667 216 683 259.5 c 128,-1,62
 699 303 699 303 699 358 c 0,63,64
 699 434 699 434 672 486.5 c 128,-1,65
 645 539 645 539 595.5 566 c 128,-1,66
 546 593 546 593 478 593 c 2,67,-1
 443 593 l 1,68,-1
 464 610 l 1,69,-1
 464 105 l 1,56,-1
EndSplineSet
EndChar

StartChar: uni0427
Encoding: 1063 1063 564
Width: 675
GlyphClass: 2
Flags: W
AnchorPoint: "Anchor-5" 304 295 basechar 0
AnchorPoint: "Anchor-0" 318 705 basechar 0
LayerCount: 2
Fore
SplineSet
548 -7 m 256,0,1
 528 -7 528 -7 517 4.5 c 128,-1,2
 506 16 506 16 506 36 c 2,3,-1
 506 298 l 1,4,5
 476 281 476 281 428.5 271.5 c 128,-1,6
 381 262 381 262 333 262 c 0,7,8
 244 262 244 262 182.5 294.5 c 128,-1,9
 121 327 121 327 89.5 391 c 128,-1,10
 58 455 58 455 58 551 c 2,11,-1
 58 669 l 2,12,13
 58 690 58 690 68.5 701 c 128,-1,14
 79 712 79 712 99 712 c 256,15,16
 119 712 119 712 129.5 701 c 128,-1,17
 140 690 140 690 140 669 c 2,18,-1
 140 557 l 2,19,20
 140 443 140 443 190.5 389 c 128,-1,21
 241 335 241 335 340 335 c 0,22,23
 384 335 384 335 426.5 344.5 c 128,-1,24
 469 354 469 354 506 375 c 1,25,-1
 506 669 l 2,26,27
 506 690 506 690 517 701 c 128,-1,28
 528 712 528 712 548 712 c 0,29,30
 567 712 567 712 578 701 c 128,-1,31
 589 690 589 690 589 669 c 2,32,-1
 589 36 l 2,33,34
 589 16 589 16 578.5 4.5 c 128,-1,35
 568 -7 568 -7 548 -7 c 256,0,1
EndSplineSet
EndChar

StartChar: uni0426
Encoding: 1062 1062 565
Width: 791
GlyphClass: 1
Flags: W
LayerCount: 2
Fore
SplineSet
732 -165 m 0,0,1
 713 -165 713 -165 703.5 -155 c 128,-1,2
 694 -145 694 -145 694 -126 c 2,3,-1
 694 0 l 1,4,-1
 132 0 l 2,5,6
 110 0 110 0 98.5 11.5 c 128,-1,7
 87 23 87 23 87 45 c 2,8,-1
 87 669 l 2,9,10
 87 690 87 690 97.5 701 c 128,-1,11
 108 712 108 712 128 712 c 256,12,13
 148 712 148 712 158.5 701 c 128,-1,14
 169 690 169 690 169 669 c 2,15,-1
 169 71 l 1,16,-1
 586 71 l 1,17,-1
 586 669 l 2,18,19
 586 690 586 690 597 701 c 128,-1,20
 608 712 608 712 628 712 c 0,21,22
 647 712 647 712 658 701 c 128,-1,23
 669 690 669 690 669 669 c 2,24,-1
 669 34 l 1,25,-1
 631 71 l 1,26,-1
 727 71 l 2,27,28
 747 71 747 71 758 60 c 128,-1,29
 769 49 769 49 769 30 c 2,30,-1
 769 -126 l 2,31,32
 769 -165 769 -165 732 -165 c 0,0,1
EndSplineSet
EndChar

StartChar: uni0428
Encoding: 1064 1064 566
Width: 1053
GlyphClass: 1
Flags: W
LayerCount: 2
Fore
SplineSet
132 0 m 2,0,1
 110 0 110 0 98.5 11.5 c 128,-1,2
 87 23 87 23 87 45 c 2,3,-1
 87 669 l 2,4,5
 87 690 87 690 97.5 701 c 128,-1,6
 108 712 108 712 128 712 c 256,7,8
 148 712 148 712 158.5 701 c 128,-1,9
 169 690 169 690 169 669 c 2,10,-1
 169 71 l 1,11,-1
 486 71 l 1,12,-1
 486 669 l 2,13,14
 486 690 486 690 496.5 701 c 128,-1,15
 507 712 507 712 527 712 c 0,16,17
 546 712 546 712 556.5 701 c 128,-1,18
 567 690 567 690 567 669 c 2,19,-1
 567 71 l 1,20,-1
 884 71 l 1,21,-1
 884 669 l 2,22,23
 884 690 884 690 895 701 c 128,-1,24
 906 712 906 712 925 712 c 0,25,26
 945 712 945 712 955.5 701 c 128,-1,27
 966 690 966 690 966 669 c 2,28,-1
 966 45 l 2,29,30
 966 23 966 23 954.5 11.5 c 128,-1,31
 943 0 943 0 921 0 c 2,32,-1
 132 0 l 2,0,1
EndSplineSet
EndChar

StartChar: uni0429
Encoding: 1065 1065 567
Width: 1088
GlyphClass: 1
Flags: W
LayerCount: 2
Fore
SplineSet
1029 -164 m 0,0,1
 1010 -164 1010 -164 1000.5 -154 c 128,-1,2
 991 -144 991 -144 991 -125 c 2,3,-1
 991 0 l 1,4,-1
 132 0 l 2,5,6
 110 0 110 0 98.5 11.5 c 128,-1,7
 87 23 87 23 87 45 c 2,8,-1
 87 669 l 2,9,10
 87 690 87 690 97.5 701 c 128,-1,11
 108 712 108 712 128 712 c 256,12,13
 148 712 148 712 158.5 701 c 128,-1,14
 169 690 169 690 169 669 c 2,15,-1
 169 71 l 1,16,-1
 486 71 l 1,17,-1
 486 669 l 2,18,19
 486 690 486 690 496.5 701 c 128,-1,20
 507 712 507 712 527 712 c 0,21,22
 546 712 546 712 556.5 701 c 128,-1,23
 567 690 567 690 567 669 c 2,24,-1
 567 71 l 1,25,-1
 884 71 l 1,26,-1
 884 669 l 2,27,28
 884 690 884 690 895 701 c 128,-1,29
 906 712 906 712 925 712 c 0,30,31
 945 712 945 712 955.5 701 c 128,-1,32
 966 690 966 690 966 669 c 2,33,-1
 966 34 l 1,34,-1
 929 71 l 1,35,-1
 1024 71 l 2,36,37
 1044 71 1044 71 1054.5 60 c 128,-1,38
 1065 49 1065 49 1065 30 c 2,39,-1
 1065 -125 l 2,40,41
 1065 -144 1065 -144 1056 -154 c 128,-1,42
 1047 -164 1047 -164 1029 -164 c 0,0,1
EndSplineSet
EndChar

StartChar: uni040F
Encoding: 1039 1039 568
Width: 755
GlyphClass: 1
Flags: W
LayerCount: 2
Fore
SplineSet
378 -164 m 256,0,1
 360 -164 360 -164 350.5 -154 c 128,-1,2
 341 -144 341 -144 341 -125 c 2,3,-1
 341 0 l 1,4,-1
 132 0 l 2,5,6
 110 0 110 0 98.5 11.5 c 128,-1,7
 87 23 87 23 87 45 c 2,8,-1
 87 669 l 2,9,10
 87 690 87 690 97.5 701 c 128,-1,11
 108 712 108 712 128 712 c 256,12,13
 148 712 148 712 158.5 701 c 128,-1,14
 169 690 169 690 169 669 c 2,15,-1
 169 71 l 1,16,-1
 586 71 l 1,17,-1
 586 669 l 2,18,19
 586 690 586 690 597 701 c 128,-1,20
 608 712 608 712 628 712 c 0,21,22
 647 712 647 712 658 701 c 128,-1,23
 669 690 669 690 669 669 c 2,24,-1
 669 45 l 2,25,26
 669 23 669 23 657 11.5 c 128,-1,27
 645 0 645 0 624 0 c 2,28,-1
 415 0 l 1,29,-1
 415 -125 l 2,30,31
 415 -144 415 -144 405.5 -154 c 128,-1,32
 396 -164 396 -164 378 -164 c 256,0,1
EndSplineSet
EndChar

StartChar: uni042C
Encoding: 1068 1068 569
Width: 660
GlyphClass: 1
Flags: W
LayerCount: 2
Fore
SplineSet
132 0 m 2,0,1
 110 0 110 0 98.5 11.5 c 128,-1,2
 87 23 87 23 87 45 c 2,3,-1
 87 669 l 2,4,5
 87 690 87 690 97.5 701 c 128,-1,6
 108 712 108 712 128 712 c 256,7,8
 148 712 148 712 158.5 701 c 128,-1,9
 169 690 169 690 169 669 c 2,10,-1
 169 394 l 1,11,-1
 381 394 l 2,12,13
 455 394 455 394 507 372 c 128,-1,14
 559 350 559 350 586.5 306.5 c 128,-1,15
 614 263 614 263 614 198 c 0,16,17
 614 101 614 101 553 50.5 c 128,-1,18
 492 0 492 0 381 0 c 2,19,-1
 132 0 l 2,0,1
169 69 m 1,20,-1
 373 69 l 2,21,22
 453 69 453 69 493 100.5 c 128,-1,23
 533 132 533 132 533 198 c 0,24,25
 533 263 533 263 493 294 c 128,-1,26
 453 325 453 325 373 325 c 2,27,-1
 169 325 l 1,28,-1
 169 69 l 1,20,-1
EndSplineSet
EndChar

StartChar: uni042B
Encoding: 1067 1067 570
Width: 854
GlyphClass: 2
Flags: W
AnchorPoint: "Anchor-0" 428 705 basechar 0
LayerCount: 2
Fore
SplineSet
132 0 m 2,0,1
 110 0 110 0 98.5 11.5 c 128,-1,2
 87 23 87 23 87 45 c 2,3,-1
 87 669 l 2,4,5
 87 690 87 690 97.5 701 c 128,-1,6
 108 712 108 712 128 712 c 256,7,8
 148 712 148 712 158.5 701 c 128,-1,9
 169 690 169 690 169 669 c 2,10,-1
 169 394 l 1,11,-1
 351 394 l 2,12,13
 425 394 425 394 477 372 c 128,-1,14
 529 350 529 350 556.5 306.5 c 128,-1,15
 584 263 584 263 584 198 c 0,16,17
 584 101 584 101 523 50.5 c 128,-1,18
 462 0 462 0 351 0 c 2,19,-1
 132 0 l 2,0,1
169 69 m 1,20,-1
 343 69 l 2,21,22
 423 69 423 69 463 100.5 c 128,-1,23
 503 132 503 132 503 198 c 0,24,25
 503 263 503 263 463 294 c 128,-1,26
 423 325 423 325 343 325 c 2,27,-1
 169 325 l 1,28,-1
 169 69 l 1,20,-1
726 -7 m 0,29,30
 706 -7 706 -7 695.5 4.5 c 128,-1,31
 685 16 685 16 685 36 c 2,32,-1
 685 669 l 2,33,34
 685 690 685 690 695.5 701 c 128,-1,35
 706 712 706 712 726 712 c 256,36,37
 746 712 746 712 756.5 701 c 128,-1,38
 767 690 767 690 767 669 c 2,39,-1
 767 36 l 2,40,41
 767 16 767 16 757 4.5 c 128,-1,42
 747 -7 747 -7 726 -7 c 0,29,30
EndSplineSet
EndChar

StartChar: uni042A
Encoding: 1066 1066 571
Width: 791
GlyphClass: 1
Flags: W
LayerCount: 2
Fore
SplineSet
262 0 m 2,0,1
 240 0 240 0 228.5 11.5 c 128,-1,2
 217 23 217 23 217 45 c 2,3,-1
 217 634 l 1,4,-1
 35 634 l 2,5,6
 17 634 17 634 7 644 c 128,-1,7
 -3 654 -3 654 -3 670 c 0,8,9
 -3 687 -3 687 7 696 c 128,-1,10
 17 705 17 705 35 705 c 2,11,-1
 255 705 l 2,12,13
 276 705 276 705 288 693.5 c 128,-1,14
 300 682 300 682 300 660 c 2,15,-1
 300 394 l 1,16,-1
 510 394 l 2,17,18
 585 394 585 394 637 372 c 128,-1,19
 689 350 689 350 716.5 306.5 c 128,-1,20
 744 263 744 263 744 198 c 0,21,22
 744 101 744 101 683 50.5 c 128,-1,23
 622 0 622 0 510 0 c 2,24,-1
 262 0 l 2,0,1
300 69 m 1,25,-1
 503 69 l 2,26,27
 583 69 583 69 623 100.5 c 128,-1,28
 663 132 663 132 663 198 c 0,29,30
 663 263 663 263 623 294 c 128,-1,31
 583 325 583 325 503 325 c 2,32,-1
 300 325 l 1,33,-1
 300 69 l 1,25,-1
EndSplineSet
EndChar

StartChar: uni0409
Encoding: 1033 1033 572
Width: 1129
GlyphClass: 1
Flags: W
LayerCount: 2
Fore
SplineSet
601 0 m 2,0,1
 579 0 579 0 567.5 11.5 c 128,-1,2
 556 23 556 23 556 45 c 2,3,-1
 556 634 l 1,4,-1
 263 634 l 1,5,-1
 263 472 l 2,6,7
 263 371 263 371 251.5 294.5 c 128,-1,8
 240 218 240 218 217.5 161.5 c 128,-1,9
 195 105 195 105 161.5 66 c 128,-1,10
 128 27 128 27 83 0 c 0,11,12
 72 -7 72 -7 62 -8 c 128,-1,13
 52 -9 52 -9 43.5 -4.5 c 128,-1,14
 35 0 35 0 28 11 c 0,15,16
 18 27 18 27 22.5 40.5 c 128,-1,17
 27 54 27 54 43 65 c 0,18,19
 77 86 77 86 103.5 118 c 128,-1,20
 130 150 130 150 148.5 198.5 c 128,-1,21
 167 247 167 247 177 319 c 128,-1,22
 187 391 187 391 187 493 c 2,23,-1
 187 660 l 2,24,25
 187 682 187 682 198.5 693.5 c 128,-1,26
 210 705 210 705 232 705 c 2,27,-1
 593 705 l 2,28,29
 615 705 615 705 626.5 693.5 c 128,-1,30
 638 682 638 682 638 660 c 2,31,-1
 638 394 l 1,32,-1
 850 394 l 2,33,34
 924 394 924 394 976 372 c 128,-1,35
 1028 350 1028 350 1055.5 306.5 c 128,-1,36
 1083 263 1083 263 1083 198 c 0,37,38
 1083 101 1083 101 1022 50.5 c 128,-1,39
 961 0 961 0 850 0 c 2,40,-1
 601 0 l 2,0,1
638 69 m 1,41,-1
 842 69 l 2,42,43
 922 69 922 69 962 100.5 c 128,-1,44
 1002 132 1002 132 1002 198 c 0,45,46
 1002 263 1002 263 962 294 c 128,-1,47
 922 325 922 325 842 325 c 2,48,-1
 638 325 l 1,49,-1
 638 69 l 1,41,-1
EndSplineSet
EndChar

StartChar: uni040A
Encoding: 1034 1034 573
Width: 1165
GlyphClass: 1
Flags: W
LayerCount: 2
Fore
SplineSet
128 -7 m 0,0,1
 108 -7 108 -7 97.5 4.5 c 128,-1,2
 87 16 87 16 87 36 c 2,3,-1
 87 669 l 2,4,5
 87 690 87 690 97.5 701 c 128,-1,6
 108 712 108 712 128 712 c 256,7,8
 148 712 148 712 158.5 701 c 128,-1,9
 169 690 169 690 169 669 c 2,10,-1
 169 393 l 1,11,-1
 592 393 l 1,12,-1
 592 669 l 2,13,14
 592 690 592 690 602.5 701 c 128,-1,15
 613 712 613 712 633 712 c 256,16,17
 653 712 653 712 663.5 701 c 128,-1,18
 674 690 674 690 674 669 c 2,19,-1
 674 394 l 1,20,-1
 885 394 l 2,21,22
 959 394 959 394 1011.5 372 c 128,-1,23
 1064 350 1064 350 1091.5 306.5 c 128,-1,24
 1119 263 1119 263 1119 198 c 0,25,26
 1119 101 1119 101 1058 50.5 c 128,-1,27
 997 0 997 0 885 0 c 2,28,-1
 637 0 l 2,29,30
 615 0 615 0 603.5 11.5 c 128,-1,31
 592 23 592 23 592 45 c 2,32,-1
 592 322 l 1,33,-1
 169 322 l 1,34,-1
 169 36 l 2,35,36
 169 16 169 16 159 4.5 c 128,-1,37
 149 -7 149 -7 128 -7 c 0,0,1
674 69 m 1,38,-1
 877 69 l 2,39,40
 958 69 958 69 997.5 100.5 c 128,-1,41
 1037 132 1037 132 1037 198 c 0,42,43
 1037 263 1037 263 997.5 294 c 128,-1,44
 958 325 958 325 877 325 c 2,45,-1
 674 325 l 1,46,-1
 674 69 l 1,38,-1
EndSplineSet
EndChar

StartChar: uni0404
Encoding: 1028 1028 575
Width: 673
GlyphClass: 2
Flags: W
AnchorPoint: "Anchor-2" 385 0 basechar 0
AnchorPoint: "Anchor-0" 387 705 basechar 0
LayerCount: 2
Fore
SplineSet
392 -9 m 0,0,1
 288 -9 288 -9 214 35 c 128,-1,2
 140 79 140 79 100.5 160 c 128,-1,3
 61 241 61 241 61 353 c 0,4,5
 61 437 61 437 83.5 503.5 c 128,-1,6
 106 570 106 570 148.5 616.5 c 128,-1,7
 191 663 191 663 253 688.5 c 128,-1,8
 315 714 315 714 392 714 c 0,9,10
 454 714 454 714 509.5 696.5 c 128,-1,11
 565 679 565 679 611 641 c 0,12,13
 625 631 625 631 628.5 619 c 128,-1,14
 632 607 632 607 629 596 c 128,-1,15
 626 585 626 585 617 578 c 128,-1,16
 608 571 608 571 596 570.5 c 128,-1,17
 584 570 584 570 570 580 c 0,18,19
 530 611 530 611 488 625 c 128,-1,20
 446 639 446 639 394 639 c 0,21,22
 317 639 317 639 263 607 c 128,-1,23
 209 575 209 575 180 515 c 128,-1,24
 151 455 151 455 148 371 c 1,25,-1
 121 393 l 1,26,-1
 472 393 l 2,27,28
 490 393 490 393 500 384 c 128,-1,29
 510 375 510 375 510 358 c 256,30,31
 510 341 510 341 500 332.5 c 128,-1,32
 490 324 490 324 472 324 c 2,33,-1
 119 324 l 1,34,-1
 148 343 l 1,35,36
 150 254 150 254 179 192.5 c 128,-1,37
 208 131 208 131 262.5 98.5 c 128,-1,38
 317 66 317 66 394 66 c 0,39,40
 446 66 446 66 488.5 80.5 c 128,-1,41
 531 95 531 95 572 126 c 0,42,43
 586 137 586 137 598 136 c 128,-1,44
 610 135 610 135 617.5 127.5 c 128,-1,45
 625 120 625 120 627.5 108 c 128,-1,46
 630 96 630 96 625.5 84 c 128,-1,47
 621 72 621 72 609 63 c 0,48,49
 565 27 565 27 509.5 9 c 128,-1,50
 454 -9 454 -9 392 -9 c 0,0,1
EndSplineSet
EndChar

StartChar: uni042D
Encoding: 1069 1069 576
Width: 673
GlyphClass: 2
Flags: W
AnchorPoint: "Anchor-2" 298 0 basechar 0
AnchorPoint: "Anchor-0" 298 705 basechar 0
LayerCount: 2
Fore
SplineSet
281 -9 m 0,0,1
 219 -9 219 -9 163.5 9 c 128,-1,2
 108 27 108 27 63 63 c 0,3,4
 51 73 51 73 46.5 85 c 128,-1,5
 42 97 42 97 44.5 109 c 128,-1,6
 47 121 47 121 55 128.5 c 128,-1,7
 63 136 63 136 74.5 136.5 c 128,-1,8
 86 137 86 137 100 127 c 0,9,10
 141 94 141 94 184.5 80 c 128,-1,11
 228 66 228 66 279 66 c 0,12,13
 357 66 357 66 410.5 98 c 128,-1,14
 464 130 464 130 493.5 191.5 c 128,-1,15
 523 253 523 253 525 340 c 1,16,-1
 553 324 l 1,17,-1
 201 324 l 2,18,19
 183 324 183 324 173.5 332.5 c 128,-1,20
 164 341 164 341 164 358 c 256,21,22
 164 375 164 375 173.5 384 c 128,-1,23
 183 393 183 393 201 393 c 2,24,-1
 553 393 l 1,25,-1
 525 367 l 1,26,27
 522 453 522 453 494.5 513.5 c 128,-1,28
 467 574 467 574 414.5 606.5 c 128,-1,29
 362 639 362 639 285 639 c 0,30,31
 234 639 234 639 189.5 623.5 c 128,-1,32
 145 608 145 608 105 580 c 0,33,34
 90 569 90 569 77.5 570 c 128,-1,35
 65 571 65 571 56.5 578 c 128,-1,36
 48 585 48 585 45.5 596.5 c 128,-1,37
 43 608 43 608 47 619.5 c 128,-1,38
 51 631 51 631 64 640 c 0,39,40
 113 678 113 678 170.5 696 c 128,-1,41
 228 714 228 714 288 714 c 0,42,43
 391 714 391 714 463.5 670 c 128,-1,44
 536 626 536 626 574 545 c 128,-1,45
 612 464 612 464 612 352 c 0,46,47
 612 269 612 269 589.5 202 c 128,-1,48
 567 135 567 135 524.5 88.5 c 128,-1,49
 482 42 482 42 420.5 16.5 c 128,-1,50
 359 -9 359 -9 281 -9 c 0,0,1
EndSplineSet
EndChar

StartChar: uni040B
Encoding: 1035 1035 580
Width: 849
GlyphClass: 1
Flags: W
LayerCount: 2
Fore
SplineSet
301 -7 m 0,0,1
 282 -7 282 -7 271 4.5 c 128,-1,2
 260 16 260 16 260 36 c 2,3,-1
 260 634 l 1,4,-1
 35 634 l 2,5,6
 17 634 17 634 7 644 c 128,-1,7
 -3 654 -3 654 -3 670 c 0,8,9
 -3 687 -3 687 7 696 c 128,-1,10
 17 705 17 705 35 705 c 2,11,-1
 568 705 l 2,12,13
 586 705 586 705 596 696 c 128,-1,14
 606 687 606 687 606 670 c 256,15,16
 606 653 606 653 596 643.5 c 128,-1,17
 586 634 586 634 568 634 c 2,18,-1
 343 634 l 1,19,-1
 343 399 l 1,20,21
 374 417 374 417 421 426 c 128,-1,22
 468 435 468 435 515 435 c 0,23,24
 605 435 605 435 666.5 403 c 128,-1,25
 728 371 728 371 759.5 307 c 128,-1,26
 791 243 791 243 791 146 c 2,27,-1
 791 36 l 2,28,29
 791 16 791 16 780 4.5 c 128,-1,30
 769 -7 769 -7 750 -7 c 0,31,32
 730 -7 730 -7 719.5 4.5 c 128,-1,33
 709 16 709 16 709 36 c 2,34,-1
 709 140 l 2,35,36
 709 255 709 255 658 308.5 c 128,-1,37
 607 362 607 362 508 362 c 0,38,39
 464 362 464 362 421.5 353 c 128,-1,40
 379 344 379 344 343 323 c 1,41,-1
 343 36 l 2,42,43
 343 16 343 16 332.5 4.5 c 128,-1,44
 322 -7 322 -7 301 -7 c 0,0,1
EndSplineSet
EndChar

StartChar: uni042E
Encoding: 1070 1070 581
Width: 1014
GlyphClass: 1
Flags: W
AnchorPoint: "Anchor-0" 512 668 basechar 0
LayerCount: 2
Fore
SplineSet
638 -9 m 0,0,1
 547 -9 547 -9 479 31.5 c 128,-1,2
 411 72 411 72 371.5 146 c 128,-1,3
 332 220 332 220 325 322 c 1,4,-1
 169 322 l 1,5,-1
 169 36 l 2,6,7
 169 16 169 16 159 4.5 c 128,-1,8
 149 -7 149 -7 128 -7 c 0,9,10
 108 -7 108 -7 97.5 4.5 c 128,-1,11
 87 16 87 16 87 36 c 2,12,-1
 87 669 l 2,13,14
 87 690 87 690 97.5 701 c 128,-1,15
 108 712 108 712 128 712 c 256,16,17
 148 712 148 712 158.5 701 c 128,-1,18
 169 690 169 690 169 669 c 2,19,-1
 169 393 l 1,20,-1
 326 393 l 1,21,22
 334 493 334 493 373.5 564.5 c 128,-1,23
 413 636 413 636 480.5 675 c 128,-1,24
 548 714 548 714 638 714 c 0,25,26
 735 714 735 714 805.5 670 c 128,-1,27
 876 626 876 626 914.5 545.5 c 128,-1,28
 953 465 953 465 953 353 c 0,29,30
 953 269 953 269 930.5 202.5 c 128,-1,31
 908 136 908 136 867.5 89 c 128,-1,32
 827 42 827 42 768.5 16.5 c 128,-1,33
 710 -9 710 -9 638 -9 c 0,0,1
638 64 m 0,34,35
 711 64 711 64 761.5 98 c 128,-1,36
 812 132 812 132 839 197 c 128,-1,37
 866 262 866 262 866 353 c 0,38,39
 866 490 866 490 806.5 565.5 c 128,-1,40
 747 641 747 641 638 641 c 0,41,42
 566 641 566 641 515 607 c 128,-1,43
 464 573 464 573 437 508.5 c 128,-1,44
 410 444 410 444 410 353 c 0,45,46
 410 217 410 217 470 140.5 c 128,-1,47
 530 64 530 64 638 64 c 0,34,35
EndSplineSet
EndChar

StartChar: uni042F
Encoding: 1071 1071 582
Width: 670
GlyphClass: 1
Flags: W
AnchorPoint: "Anchor-0" 340 690 basechar 0
LayerCount: 2
Fore
SplineSet
542 -7 m 256,0,1
 522 -7 522 -7 511.5 4.5 c 128,-1,2
 501 16 501 16 501 36 c 2,3,-1
 501 298 l 1,4,-1
 383 298 l 2,5,6
 351 298 351 298 327.5 292 c 128,-1,7
 304 286 304 286 285.5 270.5 c 128,-1,8
 267 255 267 255 252 226 c 2,9,-1
 140 19 l 2,10,11
 132 4 132 4 119 -2 c 128,-1,12
 106 -8 106 -8 94 -6 c 128,-1,13
 82 -4 82 -4 73 4.5 c 128,-1,14
 64 13 64 13 62 26 c 128,-1,15
 60 39 60 39 69 56 c 2,16,-1
 163 230 l 2,17,18
 186 273 186 273 215.5 293.5 c 128,-1,19
 245 314 245 314 284 314 c 2,20,-1
 310 314 l 1,21,-1
 304 301 l 1,22,23
 193 301 193 301 131 354 c 128,-1,24
 69 407 69 407 69 501 c 0,25,26
 69 567 69 567 96 612 c 128,-1,27
 123 657 123 657 176 681 c 128,-1,28
 229 705 229 705 304 705 c 2,29,-1
 538 705 l 2,30,31
 560 705 560 705 571.5 693.5 c 128,-1,32
 583 682 583 682 583 660 c 2,33,-1
 583 36 l 2,34,35
 583 16 583 16 572.5 4.5 c 128,-1,36
 562 -7 562 -7 542 -7 c 256,0,1
316 363 m 2,37,-1
 501 363 l 1,38,-1
 501 637 l 1,39,-1
 316 637 l 2,40,41
 234 637 234 637 192 602.5 c 128,-1,42
 150 568 150 568 150 501 c 0,43,44
 150 432 150 432 192 397.5 c 128,-1,45
 234 363 234 363 316 363 c 2,37,-1
EndSplineSet
EndChar

StartChar: uni0402
Encoding: 1026 1026 583
Width: 842
GlyphClass: 1
Flags: W
LayerCount: 2
Fore
SplineSet
578 -189 m 0,0,1
 555 -189 555 -189 530 -185.5 c 128,-1,2
 505 -182 505 -182 486 -176 c 0,3,4
 472 -171 472 -171 465.5 -162.5 c 128,-1,5
 459 -154 459 -154 458.5 -143.5 c 128,-1,6
 458 -133 458 -133 463 -124.5 c 128,-1,7
 468 -116 468 -116 477 -111.5 c 128,-1,8
 486 -107 486 -107 500 -111 c 0,9,10
 517 -116 517 -116 534.5 -118 c 128,-1,11
 552 -120 552 -120 571 -120 c 0,12,13
 634 -120 634 -120 668 -78 c 128,-1,14
 702 -36 702 -36 702 48 c 2,15,-1
 702 140 l 2,16,17
 702 254 702 254 651.5 308 c 128,-1,18
 601 362 601 362 499 362 c 0,19,20
 452 362 452 362 413 352 c 128,-1,21
 374 342 374 342 343 323 c 1,22,-1
 343 36 l 2,23,24
 343 16 343 16 332.5 4.5 c 128,-1,25
 322 -7 322 -7 301 -7 c 0,26,27
 282 -7 282 -7 271 4.5 c 128,-1,28
 260 16 260 16 260 36 c 2,29,-1
 260 634 l 1,30,-1
 35 634 l 2,31,32
 17 634 17 634 7 644 c 128,-1,33
 -3 654 -3 654 -3 670 c 0,34,35
 -3 687 -3 687 7 696 c 128,-1,36
 17 705 17 705 35 705 c 2,37,-1
 568 705 l 2,38,39
 586 705 586 705 596 696 c 128,-1,40
 606 687 606 687 606 670 c 256,41,42
 606 653 606 653 596 643.5 c 128,-1,43
 586 634 586 634 568 634 c 2,44,-1
 343 634 l 1,45,-1
 343 399 l 1,46,47
 370 416 370 416 414.5 425.5 c 128,-1,48
 459 435 459 435 506 435 c 0,49,50
 575 435 575 435 627 417 c 128,-1,51
 679 399 679 399 714 363 c 128,-1,52
 749 327 749 327 767 272.5 c 128,-1,53
 785 218 785 218 785 146 c 2,54,-1
 785 51 l 2,55,56
 785 -26 785 -26 760 -80 c 128,-1,57
 735 -134 735 -134 689 -161.5 c 128,-1,58
 643 -189 643 -189 578 -189 c 0,0,1
EndSplineSet
EndChar

StartChar: uni0462
Encoding: 1122 1122 584
Width: 724
GlyphClass: 1
Flags: W
LayerCount: 2
Fore
SplineSet
198 0 m 2,0,1
 176 0 176 0 164.5 11.5 c 128,-1,2
 153 23 153 23 153 45 c 2,3,-1
 153 536 l 1,4,-1
 8 536 l 2,5,6
 -9 536 -9 536 -18 545 c 128,-1,7
 -27 554 -27 554 -27 569 c 0,8,9
 -27 601 -27 601 8 601 c 2,10,-1
 173 601 l 1,11,-1
 153 563 l 1,12,-1
 153 669 l 2,13,14
 153 690 153 690 163.5 701 c 128,-1,15
 174 712 174 712 193 712 c 0,16,17
 213 712 213 712 223.5 701 c 128,-1,18
 234 690 234 690 234 669 c 2,19,-1
 234 563 l 1,20,-1
 213 601 l 1,21,-1
 444 601 l 2,22,23
 461 601 461 601 470 593 c 128,-1,24
 479 585 479 585 479 569 c 0,25,26
 479 536 479 536 444 536 c 2,27,-1
 234 536 l 1,28,-1
 234 394 l 1,29,-1
 444 394 l 2,30,31
 556 394 556 394 617 345 c 128,-1,32
 678 296 678 296 678 198 c 0,33,34
 678 101 678 101 617 50.5 c 128,-1,35
 556 0 556 0 444 0 c 2,36,-1
 198 0 l 2,0,1
233 69 m 1,37,-1
 437 69 l 2,38,39
 517 69 517 69 557 100.5 c 128,-1,40
 597 132 597 132 597 198 c 0,41,42
 597 263 597 263 557 294 c 128,-1,43
 517 325 517 325 437 325 c 2,44,-1
 233 325 l 1,45,-1
 233 69 l 1,37,-1
EndSplineSet
EndChar

StartChar: uni046A
Encoding: 1130 1130 585
Width: 955
GlyphClass: 1
Flags: W
LayerCount: 2
Fore
SplineSet
477 -7 m 0,0,1
 458 -7 458 -7 447 4.5 c 128,-1,2
 436 16 436 16 436 36 c 2,3,-1
 436 320 l 1,4,-1
 358 320 l 2,5,6
 301 320 301 320 264.5 293.5 c 128,-1,7
 228 267 228 267 199 207 c 2,8,-1
 109 20 l 2,9,10
 102 5 102 5 90 -1 c 128,-1,11
 78 -7 78 -7 65.5 -5.5 c 128,-1,12
 53 -4 53 -4 43 3 c 128,-1,13
 33 10 33 10 30 22.5 c 128,-1,14
 27 35 27 35 35 51 c 2,15,-1
 131 247 l 2,16,17
 153 289 153 289 182.5 321.5 c 128,-1,18
 212 354 212 354 255.5 372 c 128,-1,19
 299 390 299 390 359 390 c 2,20,-1
 417 390 l 1,21,-1
 413 369 l 1,22,-1
 170 648 l 2,23,24
 158 663 158 663 157 675.5 c 128,-1,25
 156 688 156 688 166.5 696.5 c 128,-1,26
 177 705 177 705 198 705 c 2,27,-1
 757 705 l 2,28,29
 778 705 778 705 788.5 696.5 c 128,-1,30
 799 688 799 688 798 675.5 c 128,-1,31
 797 663 797 663 785 648 c 2,32,-1
 542 369 l 1,33,-1
 537 390 l 1,34,-1
 595 390 l 2,35,36
 656 390 656 390 699 372 c 128,-1,37
 742 354 742 354 772.5 321.5 c 128,-1,38
 803 289 803 289 824 247 c 2,39,-1
 920 51 l 2,40,41
 928 35 928 35 925 22.5 c 128,-1,42
 922 10 922 10 912 2.5 c 128,-1,43
 902 -5 902 -5 889.5 -6 c 128,-1,44
 877 -7 877 -7 865 -1 c 128,-1,45
 853 5 853 5 846 20 c 2,46,-1
 756 207 l 2,47,48
 727 267 727 267 690.5 293.5 c 128,-1,49
 654 320 654 320 597 320 c 2,50,-1
 519 320 l 1,51,-1
 519 36 l 2,52,53
 519 16 519 16 508.5 4.5 c 128,-1,54
 498 -7 498 -7 477 -7 c 0,0,1
476 392 m 1,55,-1
 478 392 l 1,56,-1
 717 673 l 1,57,-1
 717 643 l 1,58,-1
 238 643 l 1,59,-1
 238 673 l 1,60,-1
 476 392 l 1,55,-1
EndSplineSet
EndChar

StartChar: uni0474
Encoding: 1140 1140 587
Width: 743
GlyphClass: 1
Flags: W
LayerCount: 2
Fore
SplineSet
345 -7 m 256,0,1
 326 -7 326 -7 314 2 c 128,-1,2
 302 11 302 11 295 29 c 2,3,-1
 20 658 l 2,4,5
 13 675 13 675 16 686.5 c 128,-1,6
 19 698 19 698 29.5 705 c 128,-1,7
 40 712 40 712 54 712 c 0,8,9
 73 712 73 712 82.5 703.5 c 128,-1,10
 92 695 92 695 98 679 c 2,11,-1
 362 66 l 1,12,-1
 330 66 l 1,13,-1
 517 524 l 2,14,15
 544 589 544 589 573 629.5 c 128,-1,16
 602 670 602 670 640 690 c 128,-1,17
 678 710 678 710 732 713 c 0,18,19
 749 714 749 714 759 707.5 c 128,-1,20
 769 701 769 701 772.5 691 c 128,-1,21
 776 681 776 681 773.5 670.5 c 128,-1,22
 771 660 771 660 762.5 652.5 c 128,-1,23
 754 645 754 645 741 643 c 0,24,25
 705 640 705 640 679.5 625 c 128,-1,26
 654 610 654 610 633.5 580 c 128,-1,27
 613 550 613 550 592 500 c 2,28,-1
 394 29 l 2,29,30
 387 11 387 11 375.5 2 c 128,-1,31
 364 -7 364 -7 345 -7 c 256,0,1
EndSplineSet
EndChar

StartChar: uni0496
Encoding: 1174 1174 588
Width: 976
GlyphClass: 1
Flags: W
LayerCount: 2
Fore
SplineSet
972 -164 m 256,0,1
 954 -164 954 -164 944.5 -154 c 128,-1,2
 935 -144 935 -144 935 -125 c 2,3,-1
 935 37 l 1,4,-1
 972 0 l 1,5,-1
 899 0 l 2,6,7
 888 0 888 0 875.5 6.5 c 128,-1,8
 863 13 863 13 856 27 c 2,9,-1
 770 207 l 2,10,11
 741 268 741 268 703 294 c 128,-1,12
 665 320 665 320 611 320 c 2,13,-1
 524 320 l 1,14,-1
 524 36 l 2,15,16
 524 16 524 16 514 4.5 c 128,-1,17
 504 -7 504 -7 485 -7 c 0,18,19
 465 -7 465 -7 454.5 4.5 c 128,-1,20
 444 16 444 16 444 36 c 2,21,-1
 444 320 l 1,22,-1
 358 320 l 2,23,24
 302 320 302 320 264 293.5 c 128,-1,25
 226 267 226 267 197 207 c 2,26,-1
 108 20 l 2,27,28
 101 5 101 5 89 -1 c 128,-1,29
 77 -7 77 -7 64.5 -5.5 c 128,-1,30
 52 -4 52 -4 42 3 c 128,-1,31
 32 10 32 10 29 22.5 c 128,-1,32
 26 35 26 35 34 51 c 2,33,-1
 129 245 l 2,34,35
 161 309 161 309 205 345 c 128,-1,36
 249 381 249 381 309 388 c 1,37,-1
 279 361 l 1,38,-1
 84 652 l 2,39,40
 75 666 75 666 76 678.5 c 128,-1,41
 77 691 77 691 85.5 699.5 c 128,-1,42
 94 708 94 708 105.5 710.5 c 128,-1,43
 117 713 117 713 129.5 708.5 c 128,-1,44
 142 704 142 704 151 690 c 2,45,-1
 359 375 l 1,46,-1
 336 391 l 1,47,-1
 444 391 l 1,48,-1
 444 670 l 2,49,50
 444 691 444 691 454.5 701.5 c 128,-1,51
 465 712 465 712 485 712 c 0,52,53
 504 712 504 712 514 701.5 c 128,-1,54
 524 691 524 691 524 670 c 2,55,-1
 524 391 l 1,56,-1
 634 391 l 1,57,-1
 610 375 l 1,58,-1
 818 690 l 2,59,60
 827 704 827 704 839.5 708.5 c 128,-1,61
 852 713 852 713 863.5 710.5 c 128,-1,62
 875 708 875 708 883.5 699.5 c 128,-1,63
 892 691 892 691 893 678.5 c 128,-1,64
 894 666 894 666 885 652 c 2,65,-1
 690 361 l 1,66,-1
 660 388 l 1,67,68
 700 383 700 383 732.5 365.5 c 128,-1,69
 765 348 765 348 791.5 318 c 128,-1,70
 818 288 818 288 838 245 c 2,71,-1
 940 36 l 1,72,-1
 905 69 l 1,73,-1
 968 69 l 2,74,75
 988 69 988 69 999 58.5 c 128,-1,76
 1010 48 1010 48 1010 28 c 2,77,-1
 1010 -125 l 2,78,79
 1010 -144 1010 -144 1000 -154 c 128,-1,80
 990 -164 990 -164 972 -164 c 256,0,1
EndSplineSet
EndChar

StartChar: uni0498
Encoding: 1176 1176 589
Width: 640
GlyphClass: 2
Flags: W
AnchorPoint: "Anchor-2" 318 0 basechar 0
AnchorPoint: "Anchor-0" 314 705 basechar 0
LayerCount: 2
Fore
SplineSet
317 -164 m 0,0,1
 299 -164 299 -164 289.5 -153.5 c 128,-1,2
 280 -143 280 -143 280 -124 c 2,3,-1
 280 36 l 1,4,-1
 355 36 l 1,5,-1
 355 -124 l 2,6,7
 355 -143 355 -143 345.5 -153.5 c 128,-1,8
 336 -164 336 -164 317 -164 c 0,0,1
312 -9 m 0,9,10
 233 -9 233 -9 167.5 11 c 128,-1,11
 102 31 102 31 58 67 c 0,12,13
 46 76 46 76 42.5 87 c 128,-1,14
 39 98 39 98 41.5 109 c 128,-1,15
 44 120 44 120 52 127 c 128,-1,16
 60 134 60 134 71.5 135 c 128,-1,17
 83 136 83 136 96 127 c 0,18,19
 125 106 125 106 157.5 92 c 128,-1,20
 190 78 190 78 227.5 71 c 128,-1,21
 265 64 265 64 307 64 c 0,22,23
 372 64 372 64 413.5 79 c 128,-1,24
 455 94 455 94 475 123.5 c 128,-1,25
 495 153 495 153 495 197 c 0,26,27
 495 262 495 262 455.5 292.5 c 128,-1,28
 416 323 416 323 335 323 c 2,29,-1
 193 323 l 2,30,31
 176 323 176 323 166 332 c 128,-1,32
 156 341 156 341 156 357 c 0,33,34
 156 374 156 374 166 382.5 c 128,-1,35
 176 391 176 391 193 391 c 2,36,-1
 319 391 l 2,37,38
 398 391 398 391 438 422 c 128,-1,39
 478 453 478 453 478 513 c 0,40,41
 478 553 478 553 459 582 c 128,-1,42
 440 611 440 611 402.5 626 c 128,-1,43
 365 641 365 641 308 641 c 0,44,45
 255 641 255 641 205.5 627 c 128,-1,46
 156 613 156 613 114 582 c 0,47,48
 101 574 101 574 89.5 574.5 c 128,-1,49
 78 575 78 575 70 582.5 c 128,-1,50
 62 590 62 590 59.5 601 c 128,-1,51
 57 612 57 612 61 623 c 128,-1,52
 65 634 65 634 77 642 c 0,53,54
 125 679 125 679 187.5 696.5 c 128,-1,55
 250 714 250 714 314 714 c 0,56,57
 397 714 397 714 451.5 690 c 128,-1,58
 506 666 506 666 533.5 623 c 128,-1,59
 561 580 561 580 561 521 c 0,60,61
 561 455 561 455 522.5 411 c 128,-1,62
 484 367 484 367 418 353 c 1,63,-1
 418 367 l 1,64,65
 492 358 492 358 535 313 c 128,-1,66
 578 268 578 268 578 194 c 0,67,68
 578 131 578 131 549 85.5 c 128,-1,69
 520 40 520 40 461.5 15.5 c 128,-1,70
 403 -9 403 -9 312 -9 c 0,9,10
EndSplineSet
Substitution2: "'locl' Localized Forms in Cyrillic lookup 17 subtable" uni0498.loclCHU
Substitution2: "'locl' Localized Forms in Cyrillic lookup 16 subtable" uni0498.loclBSH
AlternateSubs2: "'aalt' Access All Alternates lookup 1 subtable" uni0498.loclBSH uni0498.loclCHU
EndChar

StartChar: uni049A
Encoding: 1178 1178 590
Width: 649
GlyphClass: 1
Flags: W
LayerCount: 2
Fore
SplineSet
645 -164 m 0,0,1
 626 -164 626 -164 616.5 -154 c 128,-1,2
 607 -144 607 -144 607 -125 c 2,3,-1
 607 19 l 1,4,-1
 625 0 l 1,5,-1
 572 0 l 2,6,7
 560 0 560 0 548 6 c 128,-1,8
 536 12 536 12 529 26 c 2,9,-1
 443 207 l 2,10,11
 413 268 413 268 375.5 294 c 128,-1,12
 338 320 338 320 283 320 c 2,13,-1
 169 320 l 1,14,-1
 169 36 l 2,15,16
 169 16 169 16 159 4.5 c 128,-1,17
 149 -7 149 -7 128 -7 c 0,18,19
 108 -7 108 -7 97.5 4.5 c 128,-1,20
 87 16 87 16 87 36 c 2,21,-1
 87 670 l 2,22,23
 87 691 87 691 97.5 701.5 c 128,-1,24
 108 712 108 712 128 712 c 256,25,26
 148 712 148 712 158.5 701.5 c 128,-1,27
 169 691 169 691 169 670 c 2,28,-1
 169 391 l 1,29,-1
 307 391 l 1,30,-1
 283 375 l 1,31,-1
 491 690 l 2,32,33
 500 704 500 704 512 708.5 c 128,-1,34
 524 713 524 713 536 710.5 c 128,-1,35
 548 708 548 708 556 699.5 c 128,-1,36
 564 691 564 691 565.5 678.5 c 128,-1,37
 567 666 567 666 558 652 c 2,38,-1
 363 361 l 1,39,-1
 332 388 l 1,40,41
 393 381 393 381 436 345 c 128,-1,42
 479 309 479 309 511 245 c 2,43,-1
 613 36 l 1,44,-1
 579 69 l 1,45,-1
 640 69 l 2,46,47
 660 69 660 69 671 58.5 c 128,-1,48
 682 48 682 48 682 28 c 2,49,-1
 682 -125 l 2,50,51
 682 -144 682 -144 672 -154 c 128,-1,52
 662 -164 662 -164 645 -164 c 0,0,1
EndSplineSet
EndChar

StartChar: uni049C
Encoding: 1180 1180 591
Width: 671
GlyphClass: 1
Flags: W
LayerCount: 2
Fore
SplineSet
128 -7 m 0,0,1
 108 -7 108 -7 97.5 4.5 c 128,-1,2
 87 16 87 16 87 36 c 2,3,-1
 87 670 l 2,4,5
 87 691 87 691 97.5 701.5 c 128,-1,6
 108 712 108 712 128 712 c 256,7,8
 148 712 148 712 158.5 701.5 c 128,-1,9
 169 691 169 691 169 670 c 2,10,-1
 169 391 l 1,11,-1
 240 391 l 1,12,-1
 240 531 l 2,13,14
 240 565 240 565 271 565 c 0,15,16
 286 565 286 565 294 556.5 c 128,-1,17
 302 548 302 548 302 531 c 2,18,-1
 302 391 l 1,19,-1
 333 391 l 1,20,-1
 315 379 l 1,21,-1
 521 690 l 2,22,23
 530 704 530 704 542 708.5 c 128,-1,24
 554 713 554 713 566 710 c 128,-1,25
 578 707 578 707 586 699 c 128,-1,26
 594 691 594 691 595.5 678.5 c 128,-1,27
 597 666 597 666 588 652 c 2,28,-1
 392 361 l 1,29,-1
 362 388 l 1,30,31
 402 383 402 383 434.5 366 c 128,-1,32
 467 349 467 349 493.5 319 c 128,-1,33
 520 289 520 289 541 245 c 2,34,-1
 636 51 l 2,35,36
 645 35 645 35 641.5 22.5 c 128,-1,37
 638 10 638 10 628 2.5 c 128,-1,38
 618 -5 618 -5 605.5 -6 c 128,-1,39
 593 -7 593 -7 581 -1 c 128,-1,40
 569 5 569 5 562 20 c 2,41,-1
 473 207 l 2,42,43
 443 268 443 268 405.5 294.5 c 128,-1,44
 368 321 368 321 313 321 c 2,45,-1
 287 321 l 1,46,-1
 302 330 l 1,47,-1
 302 183 l 2,48,49
 302 149 302 149 271 149 c 256,50,51
 240 149 240 149 240 183 c 2,52,-1
 240 321 l 1,53,-1
 169 321 l 1,54,-1
 169 36 l 2,55,56
 169 16 169 16 159 4.5 c 128,-1,57
 149 -7 149 -7 128 -7 c 0,0,1
EndSplineSet
EndChar

StartChar: uni049E
Encoding: 1182 1182 592
Width: 678
GlyphClass: 1
Flags: W
LayerCount: 2
Fore
SplineSet
169 -7 m 0,0,1
 149 -7 149 -7 138.5 4.5 c 128,-1,2
 128 16 128 16 128 36 c 2,3,-1
 128 539 l 1,4,-1
 15 539 l 2,5,6
 -2 539 -2 539 -10.5 547.5 c 128,-1,7
 -19 556 -19 556 -19 571 c 256,8,9
 -19 586 -19 586 -10.5 594.5 c 128,-1,10
 -2 603 -2 603 15 603 c 2,11,-1
 139 603 l 1,12,-1
 128 571 l 1,13,-1
 128 670 l 2,14,15
 128 691 128 691 138.5 701.5 c 128,-1,16
 149 712 149 712 169 712 c 256,17,18
 189 712 189 712 199.5 701.5 c 128,-1,19
 210 691 210 691 210 670 c 2,20,-1
 210 571 l 1,21,-1
 199 603 l 1,22,-1
 324 603 l 2,23,24
 340 603 340 603 348.5 594.5 c 128,-1,25
 357 586 357 586 357 571 c 256,26,27
 357 556 357 556 348.5 547.5 c 128,-1,28
 340 539 340 539 324 539 c 2,29,-1
 210 539 l 1,30,-1
 210 391 l 1,31,-1
 349 391 l 1,32,-1
 322 371 l 1,33,-1
 536 690 l 2,34,35
 545 704 545 704 557.5 708.5 c 128,-1,36
 570 713 570 713 582 710.5 c 128,-1,37
 594 708 594 708 602 699 c 128,-1,38
 610 690 610 690 611 678 c 128,-1,39
 612 666 612 666 603 652 c 2,40,-1
 402 357 l 1,41,-1
 366 388 l 1,42,43
 406 383 406 383 438.5 366 c 128,-1,44
 471 349 471 349 497 319 c 128,-1,45
 523 289 523 289 544 245 c 2,46,-1
 639 51 l 2,47,48
 648 35 648 35 644.5 22.5 c 128,-1,49
 641 10 641 10 631 3 c 128,-1,50
 621 -4 621 -4 608.5 -5.5 c 128,-1,51
 596 -7 596 -7 584 -1 c 128,-1,52
 572 5 572 5 565 20 c 2,53,-1
 476 207 l 2,54,55
 447 268 447 268 409 294 c 128,-1,56
 371 320 371 320 316 320 c 2,57,-1
 210 320 l 1,58,-1
 210 36 l 2,59,60
 210 16 210 16 200 4.5 c 128,-1,61
 190 -7 190 -7 169 -7 c 0,0,1
EndSplineSet
EndChar

StartChar: uni04A0
Encoding: 1184 1184 593
Width: 771
GlyphClass: 1
Flags: W
LayerCount: 2
Fore
SplineSet
259 -7 m 256,0,1
 239 -7 239 -7 228 4.5 c 128,-1,2
 217 16 217 16 217 36 c 2,3,-1
 217 635 l 1,4,-1
 35 635 l 2,5,6
 17 635 17 635 7 644.5 c 128,-1,7
 -3 654 -3 654 -3 670 c 0,8,9
 -3 687 -3 687 7 696 c 128,-1,10
 17 705 17 705 35 705 c 2,11,-1
 259 705 l 2,12,13
 278 705 278 705 289 694.5 c 128,-1,14
 300 684 300 684 300 663 c 2,15,-1
 300 391 l 1,16,-1
 437 391 l 1,17,-1
 413 375 l 1,18,-1
 621 690 l 2,19,20
 630 704 630 704 642.5 708.5 c 128,-1,21
 655 713 655 713 666.5 710.5 c 128,-1,22
 678 708 678 708 686.5 699.5 c 128,-1,23
 695 691 695 691 696 678.5 c 128,-1,24
 697 666 697 666 688 652 c 2,25,-1
 493 361 l 1,26,-1
 463 388 l 1,27,28
 523 381 523 381 566.5 345 c 128,-1,29
 610 309 610 309 641 245 c 2,30,-1
 736 51 l 2,31,32
 745 35 745 35 741.5 22.5 c 128,-1,33
 738 10 738 10 728 3 c 128,-1,34
 718 -4 718 -4 705.5 -5.5 c 128,-1,35
 693 -7 693 -7 681 -1 c 128,-1,36
 669 5 669 5 662 20 c 2,37,-1
 573 207 l 2,38,39
 544 268 544 268 506 294 c 128,-1,40
 468 320 468 320 414 320 c 2,41,-1
 300 320 l 1,42,-1
 300 36 l 2,43,44
 300 16 300 16 289.5 4.5 c 128,-1,45
 279 -7 279 -7 259 -7 c 256,0,1
EndSplineSet
EndChar

StartChar: uni04A2
Encoding: 1186 1186 594
Width: 801
GlyphClass: 1
Flags: W
LayerCount: 2
Fore
SplineSet
737 -164 m 256,0,1
 719 -164 719 -164 709 -154 c 128,-1,2
 699 -144 699 -144 699 -125 c 2,3,-1
 699 0 l 1,4,-1
 633 0 l 2,5,6
 613 0 613 0 602.5 10.5 c 128,-1,7
 592 21 592 21 592 43 c 2,8,-1
 592 322 l 1,9,-1
 169 322 l 1,10,-1
 169 36 l 2,11,12
 169 16 169 16 159 4.5 c 128,-1,13
 149 -7 149 -7 128 -7 c 0,14,15
 108 -7 108 -7 97.5 4.5 c 128,-1,16
 87 16 87 16 87 36 c 2,17,-1
 87 669 l 2,18,19
 87 690 87 690 97.5 701 c 128,-1,20
 108 712 108 712 128 712 c 256,21,22
 148 712 148 712 158.5 701 c 128,-1,23
 169 690 169 690 169 669 c 2,24,-1
 169 393 l 1,25,-1
 592 393 l 1,26,-1
 592 669 l 2,27,28
 592 690 592 690 602.5 701 c 128,-1,29
 613 712 613 712 633 712 c 256,30,31
 653 712 653 712 663.5 701 c 128,-1,32
 674 690 674 690 674 669 c 2,33,-1
 674 32 l 1,34,-1
 637 69 l 1,35,-1
 733 69 l 2,36,37
 753 69 753 69 763.5 58.5 c 128,-1,38
 774 48 774 48 774 28 c 2,39,-1
 774 -125 l 2,40,41
 774 -144 774 -144 764.5 -154 c 128,-1,42
 755 -164 755 -164 737 -164 c 256,0,1
EndSplineSet
EndChar

StartChar: uni04A4
Encoding: 1188 1188 595
Width: 935
GlyphClass: 1
Flags: W
LayerCount: 2
Fore
SplineSet
128 -7 m 0,0,1
 108 -7 108 -7 97.5 4.5 c 128,-1,2
 87 16 87 16 87 36 c 2,3,-1
 87 669 l 2,4,5
 87 690 87 690 97.5 701 c 128,-1,6
 108 712 108 712 128 712 c 256,7,8
 148 712 148 712 158.5 701 c 128,-1,9
 169 690 169 690 169 669 c 2,10,-1
 169 393 l 1,11,-1
 592 393 l 1,12,-1
 592 662 l 2,13,14
 592 683 592 683 603 694 c 128,-1,15
 614 705 614 705 635 705 c 2,16,-1
 900 705 l 2,17,18
 918 705 918 705 928 696 c 128,-1,19
 938 687 938 687 938 670 c 256,20,21
 938 653 938 653 928 643.5 c 128,-1,22
 918 634 918 634 900 634 c 2,23,-1
 674 634 l 1,24,-1
 674 36 l 2,25,26
 674 16 674 16 663.5 4.5 c 128,-1,27
 653 -7 653 -7 633 -7 c 256,28,29
 613 -7 613 -7 602.5 4.5 c 128,-1,30
 592 16 592 16 592 36 c 2,31,-1
 592 322 l 1,32,-1
 169 322 l 1,33,-1
 169 36 l 2,34,35
 169 16 169 16 159 4.5 c 128,-1,36
 149 -7 149 -7 128 -7 c 0,0,1
EndSplineSet
EndChar

StartChar: uni0524
Encoding: 1316 1316 596
Width: 795
GlyphClass: 1
Flags: W
LayerCount: 2
Fore
SplineSet
732 -164 m 0,0,1
 713 -164 713 -164 703.5 -154 c 128,-1,2
 694 -144 694 -144 694 -125 c 2,3,-1
 694 0 l 1,4,-1
 628 0 l 2,5,6
 608 0 608 0 597 10.5 c 128,-1,7
 586 21 586 21 586 43 c 2,8,-1
 586 634 l 1,9,-1
 169 634 l 1,10,-1
 169 36 l 2,11,12
 169 16 169 16 159 4.5 c 128,-1,13
 149 -7 149 -7 128 -7 c 0,14,15
 108 -7 108 -7 97.5 4.5 c 128,-1,16
 87 16 87 16 87 36 c 2,17,-1
 87 660 l 2,18,19
 87 682 87 682 98.5 693.5 c 128,-1,20
 110 705 110 705 132 705 c 2,21,-1
 624 705 l 2,22,23
 645 705 645 705 657 693.5 c 128,-1,24
 669 682 669 682 669 660 c 2,25,-1
 669 32 l 1,26,-1
 631 69 l 1,27,-1
 727 69 l 2,28,29
 747 69 747 69 758 58.5 c 128,-1,30
 769 48 769 48 769 28 c 2,31,-1
 769 -125 l 2,32,33
 769 -144 769 -144 759.5 -154 c 128,-1,34
 750 -164 750 -164 732 -164 c 0,0,1
EndSplineSet
EndChar

StartChar: uni04A8
Encoding: 1192 1192 597
Width: 810
GlyphClass: 1
Flags: W
LayerCount: 2
Fore
SplineSet
383 -9 m 0,0,1
 283 -9 283 -9 211 35 c 128,-1,2
 139 79 139 79 100 159.5 c 128,-1,3
 61 240 61 240 61 350 c 0,4,5
 61 436 61 436 83.5 503.5 c 128,-1,6
 106 571 106 571 147.5 618 c 128,-1,7
 189 665 189 665 248.5 689.5 c 128,-1,8
 308 714 308 714 382 714 c 0,9,10
 392 714 392 714 401.5 713.5 c 128,-1,11
 411 713 411 713 421 712 c 0,12,13
 440 710 440 710 448.5 699.5 c 128,-1,14
 457 689 457 689 455 673 c 0,15,16
 455 662 455 662 448.5 654 c 128,-1,17
 442 646 442 646 433 643 c 128,-1,18
 424 640 424 640 414 640 c 0,19,20
 404 641 404 641 393.5 641.5 c 128,-1,21
 383 642 383 642 374 641 c 0,22,23
 301 639 301 639 250.5 604.5 c 128,-1,24
 200 570 200 570 173.5 506.5 c 128,-1,25
 147 443 147 443 147 353 c 0,26,27
 147 259 147 259 175 193.5 c 128,-1,28
 203 128 203 128 257 94 c 128,-1,29
 311 60 311 60 388 60 c 0,30,31
 448 60 448 60 495 78.5 c 128,-1,32
 542 97 542 97 575.5 131 c 128,-1,33
 609 165 609 165 626.5 214 c 128,-1,34
 644 263 644 263 644 324 c 0,35,36
 644 403 644 403 614.5 444.5 c 128,-1,37
 585 486 585 486 532 486 c 0,38,39
 497 486 497 486 471.5 467 c 128,-1,40
 446 448 446 448 432.5 412.5 c 128,-1,41
 419 377 419 377 419 324 c 0,42,43
 419 242 419 242 450 183 c 128,-1,44
 481 124 481 124 538 92 c 128,-1,45
 595 60 595 60 675 60 c 0,46,47
 705 60 705 60 730.5 64.5 c 128,-1,48
 756 69 756 69 778 78 c 0,49,50
 793 84 793 84 803 80.5 c 128,-1,51
 813 77 813 77 819 69 c 128,-1,52
 825 61 825 61 825 50 c 128,-1,53
 825 39 825 39 819.5 29 c 128,-1,54
 814 19 814 19 802 14 c 0,55,56
 775 2 775 2 743 -3.5 c 128,-1,57
 711 -9 711 -9 673 -9 c 0,58,59
 603 -9 603 -9 542 15 c 128,-1,60
 481 39 481 39 435.5 83.5 c 128,-1,61
 390 128 390 128 364.5 189.5 c 128,-1,62
 339 251 339 251 339 325 c 0,63,64
 339 395 339 395 361.5 447 c 128,-1,65
 384 499 384 499 427 527.5 c 128,-1,66
 470 556 470 556 532 556 c 0,67,68
 593 556 593 556 636 527.5 c 128,-1,69
 679 499 679 499 701.5 447 c 128,-1,70
 724 395 724 395 724 325 c 0,71,72
 724 250 724 250 698.5 188.5 c 128,-1,73
 673 127 673 127 626.5 83 c 128,-1,74
 580 39 580 39 517.5 15 c 128,-1,75
 455 -9 455 -9 383 -9 c 0,0,1
EndSplineSet
EndChar

StartChar: uni04AA
Encoding: 1194 1194 598
Width: 673
GlyphClass: 2
Flags: W
AnchorPoint: "Anchor-2" 385 0 basechar 0
AnchorPoint: "Anchor-0" 387 705 basechar 0
LayerCount: 2
Fore
SplineSet
381 -164 m 0,0,1
 362 -164 362 -164 352.5 -153.5 c 128,-1,2
 343 -143 343 -143 343 -124 c 2,3,-1
 343 36 l 1,4,-1
 418 36 l 1,5,-1
 418 -124 l 2,6,7
 418 -143 418 -143 408.5 -153.5 c 128,-1,8
 399 -164 399 -164 381 -164 c 0,0,1
392 -9 m 0,9,10
 288 -9 288 -9 214 35 c 128,-1,11
 140 79 140 79 100.5 160 c 128,-1,12
 61 241 61 241 61 353 c 0,13,14
 61 437 61 437 83.5 503.5 c 128,-1,15
 106 570 106 570 148.5 616.5 c 128,-1,16
 191 663 191 663 253 688.5 c 128,-1,17
 315 714 315 714 392 714 c 0,18,19
 454 714 454 714 510 696.5 c 128,-1,20
 566 679 566 679 607 645 c 0,21,22
 620 635 620 635 624.5 622.5 c 128,-1,23
 629 610 629 610 625.5 598.5 c 128,-1,24
 622 587 622 587 613.5 579.5 c 128,-1,25
 605 572 605 572 593 572 c 128,-1,26
 581 572 581 572 566 582 c 0,27,28
 530 611 530 611 487 625 c 128,-1,29
 444 639 444 639 394 639 c 0,30,31
 315 639 315 639 260 605.5 c 128,-1,32
 205 572 205 572 177 508 c 128,-1,33
 149 444 149 444 149 353 c 256,34,35
 149 262 149 262 177 197.5 c 128,-1,36
 205 133 205 133 260 99.5 c 128,-1,37
 315 66 315 66 394 66 c 0,38,39
 443 66 443 66 487 80.5 c 128,-1,40
 531 95 531 95 568 124 c 0,41,42
 583 134 583 134 595 133.5 c 128,-1,43
 607 133 607 133 615 126 c 128,-1,44
 623 119 623 119 626.5 108 c 128,-1,45
 630 97 630 97 626.5 85 c 128,-1,46
 623 73 623 73 611 64 c 0,47,48
 569 28 569 28 512.5 9.5 c 128,-1,49
 456 -9 456 -9 392 -9 c 0,9,10
EndSplineSet
Substitution2: "'locl' Localized Forms in Cyrillic lookup 17 subtable" uni04AA.loclCHU
Substitution2: "'locl' Localized Forms in Cyrillic lookup 16 subtable" uni04AA.loclBSH
AlternateSubs2: "'aalt' Access All Alternates lookup 1 subtable" uni04AA.loclBSH uni04AA.loclCHU
EndChar

StartChar: uni04AC
Encoding: 1196 1196 599
Width: 582
GlyphClass: 1
Flags: W
LayerCount: 2
Fore
SplineSet
394 -164 m 0,0,1
 376 -164 376 -164 366.5 -154 c 128,-1,2
 357 -144 357 -144 357 -125 c 2,3,-1
 357 0 l 1,4,-1
 295 0 l 2,5,6
 273 0 273 0 261 11.5 c 128,-1,7
 249 23 249 23 249 45 c 2,8,-1
 249 634 l 1,9,-1
 32 634 l 2,10,11
 14 634 14 634 4 644 c 128,-1,12
 -6 654 -6 654 -6 670 c 0,13,14
 -6 687 -6 687 4 696 c 128,-1,15
 14 705 14 705 32 705 c 2,16,-1
 557 705 l 2,17,18
 576 705 576 705 585.5 696 c 128,-1,19
 595 687 595 687 595 670 c 256,20,21
 595 653 595 653 585.5 643.5 c 128,-1,22
 576 634 576 634 557 634 c 2,23,-1
 332 634 l 1,24,-1
 332 34 l 1,25,-1
 295 69 l 1,26,-1
 391 69 l 2,27,28
 411 69 411 69 421.5 59 c 128,-1,29
 432 49 432 49 432 30 c 2,30,-1
 432 -125 l 2,31,32
 432 -164 432 -164 394 -164 c 0,0,1
EndSplineSet
EndChar

StartChar: uni04B2
Encoding: 1202 1202 602
Width: 658
GlyphClass: 1
Flags: W
LayerCount: 2
Fore
SplineSet
635 -164 m 0,0,1
 616 -164 616 -164 606.5 -154 c 128,-1,2
 597 -144 597 -144 597 -125 c 2,3,-1
 597 18 l 1,4,-1
 614 0 l 1,5,-1
 573 0 l 2,6,7
 560 0 560 0 548.5 4 c 128,-1,8
 537 8 537 8 527 22 c 2,9,-1
 309 319 l 1,10,-1
 341 319 l 1,11,-1
 122 20 l 2,12,13
 112 6 112 6 101 -0.5 c 128,-1,14
 90 -7 90 -7 78 -7 c 0,15,16
 61 -7 61 -7 50.5 2 c 128,-1,17
 40 11 40 11 38.5 24 c 128,-1,18
 37 37 37 37 48 50 c 2,19,-1
 290 376 l 1,20,-1
 290 345 l 1,21,-1
 62 653 l 2,22,23
 51 668 51 668 52 681 c 128,-1,24
 53 694 53 694 63.5 703 c 128,-1,25
 74 712 74 712 89 712 c 0,26,27
 103 712 103 712 112.5 706.5 c 128,-1,28
 122 701 122 701 132 687 c 2,29,-1
 339 404 l 1,30,-1
 313 404 l 1,31,-1
 517 685 l 2,32,33
 527 700 527 700 537 706 c 128,-1,34
 547 712 547 712 561 712 c 0,35,36
 577 712 577 712 587.5 703.5 c 128,-1,37
 598 695 598 695 599 681.5 c 128,-1,38
 600 668 600 668 589 653 c 2,39,-1
 361 345 l 1,40,-1
 361 376 l 1,41,-1
 611 39 l 1,42,-1
 566 69 l 1,43,-1
 630 69 l 2,44,45
 650 69 650 69 661 58.5 c 128,-1,46
 672 48 672 48 672 28 c 2,47,-1
 672 -125 l 2,48,49
 672 -144 672 -144 662.5 -154 c 128,-1,50
 653 -164 653 -164 635 -164 c 0,0,1
EndSplineSet
EndChar

StartChar: uni04B4
Encoding: 1204 1204 603
Width: 922
GlyphClass: 1
Flags: W
LayerCount: 2
Fore
SplineSet
861 -163 m 0,0,1
 842 -163 842 -163 832.5 -153 c 128,-1,2
 823 -143 823 -143 823 -125 c 2,3,-1
 823 1 l 1,4,-1
 261 1 l 2,5,6
 239 1 239 1 227 12.5 c 128,-1,7
 215 24 215 24 215 46 c 2,8,-1
 215 635 l 1,9,-1
 32 635 l 2,10,11
 14 635 14 635 4 644.5 c 128,-1,12
 -6 654 -6 654 -6 671 c 256,13,14
 -6 688 -6 688 4 697 c 128,-1,15
 14 706 14 706 32 706 c 2,16,-1
 480 706 l 2,17,18
 499 706 499 706 508.5 697 c 128,-1,19
 518 688 518 688 518 671 c 0,20,21
 518 653 518 653 508.5 644 c 128,-1,22
 499 635 499 635 480 635 c 2,23,-1
 298 635 l 1,24,-1
 298 71 l 1,25,-1
 715 71 l 1,26,-1
 715 668 l 2,27,28
 715 689 715 689 725.5 700 c 128,-1,29
 736 711 736 711 756 711 c 256,30,31
 776 711 776 711 786.5 700 c 128,-1,32
 797 689 797 689 797 668 c 2,33,-1
 797 34 l 1,34,-1
 760 71 l 1,35,-1
 856 71 l 2,36,37
 876 71 876 71 886.5 60.5 c 128,-1,38
 897 50 897 50 897 31 c 2,39,-1
 897 -125 l 2,40,41
 897 -163 897 -163 861 -163 c 0,0,1
EndSplineSet
EndChar

StartChar: uni04B6
Encoding: 1206 1206 604
Width: 714
GlyphClass: 1
Flags: W
LayerCount: 2
Fore
SplineSet
506 298 m 1,0,1
 476 281 476 281 428.5 271.5 c 128,-1,2
 381 262 381 262 333 262 c 0,3,4
 244 262 244 262 182.5 294.5 c 128,-1,5
 121 327 121 327 89.5 391 c 128,-1,6
 58 455 58 455 58 551 c 2,7,-1
 58 669 l 2,8,9
 58 690 58 690 68.5 701 c 128,-1,10
 79 712 79 712 99 712 c 256,11,12
 119 712 119 712 129.5 701 c 128,-1,13
 140 690 140 690 140 669 c 2,14,-1
 140 557 l 2,15,16
 140 443 140 443 190.5 389 c 128,-1,17
 241 335 241 335 340 335 c 0,18,19
 384 335 384 335 426.5 344.5 c 128,-1,20
 469 354 469 354 506 375 c 1,21,-1
 506 669 l 2,22,23
 506 690 506 690 517 701 c 128,-1,24
 528 712 528 712 548 712 c 0,25,26
 567 712 567 712 578 701 c 128,-1,27
 589 690 589 690 589 669 c 2,28,-1
 589 32 l 1,29,-1
 551 69 l 1,30,-1
 647 69 l 2,31,32
 667 69 667 69 678 58.5 c 128,-1,33
 689 48 689 48 689 28 c 2,34,-1
 689 -125 l 2,35,36
 689 -144 689 -144 679.5 -154 c 128,-1,37
 670 -164 670 -164 652 -164 c 0,38,39
 633 -164 633 -164 623.5 -154 c 128,-1,40
 614 -144 614 -144 614 -125 c 2,41,-1
 614 0 l 1,42,-1
 548 0 l 2,43,44
 528 0 528 0 517 10.5 c 128,-1,45
 506 21 506 21 506 43 c 2,46,-1
 506 298 l 1,0,1
EndSplineSet
EndChar

StartChar: uni04B8
Encoding: 1208 1208 605
Width: 675
GlyphClass: 1
Flags: W
LayerCount: 2
Fore
SplineSet
548 -7 m 256,0,1
 528 -7 528 -7 517 4.5 c 128,-1,2
 506 16 506 16 506 36 c 2,3,-1
 506 298 l 1,4,5
 476 281 476 281 431.5 272 c 128,-1,6
 387 263 387 263 344 262 c 1,7,-1
 361 275 l 1,8,-1
 361 138 l 2,9,10
 361 104 361 104 330 104 c 0,11,12
 316 104 316 104 307.5 112.5 c 128,-1,13
 299 121 299 121 299 138 c 2,14,-1
 299 275 l 1,15,-1
 316 262 l 1,16,17
 233 266 233 266 176 298 c 128,-1,18
 119 330 119 330 88.5 392.5 c 128,-1,19
 58 455 58 455 58 551 c 2,20,-1
 58 669 l 2,21,22
 58 690 58 690 68.5 701 c 128,-1,23
 79 712 79 712 99 712 c 256,24,25
 119 712 119 712 129.5 701 c 128,-1,26
 140 690 140 690 140 669 c 2,27,-1
 140 557 l 2,28,29
 140 446 140 446 187 393.5 c 128,-1,30
 234 341 234 341 321 336 c 1,31,-1
 299 325 l 1,32,-1
 299 482 l 2,33,34
 299 516 299 516 330 516 c 0,35,36
 345 516 345 516 353 507.5 c 128,-1,37
 361 499 361 499 361 482 c 2,38,-1
 361 325 l 1,39,-1
 341 335 l 1,40,41
 384 335 384 335 427.5 344.5 c 128,-1,42
 471 354 471 354 506 375 c 1,43,-1
 506 669 l 2,44,45
 506 690 506 690 517 701 c 128,-1,46
 528 712 528 712 548 712 c 0,47,48
 567 712 567 712 578 701 c 128,-1,49
 589 690 589 690 589 669 c 2,50,-1
 589 36 l 2,51,52
 589 16 589 16 578.5 4.5 c 128,-1,53
 568 -7 568 -7 548 -7 c 256,0,1
EndSplineSet
EndChar

StartChar: uni04BA
Encoding: 1210 1210 606
Width: 675
GlyphClass: 2
Flags: W
LayerCount: 2
Fore
SplineSet
128 -7 m 256,0,1
 108 -7 108 -7 97.5 4.5 c 128,-1,2
 87 16 87 16 87 36 c 2,3,-1
 87 669 l 2,4,5
 87 690 87 690 97.5 701 c 128,-1,6
 108 712 108 712 128 712 c 256,7,8
 148 712 148 712 158.5 701 c 128,-1,9
 169 690 169 690 169 669 c 2,10,-1
 169 407 l 1,11,12
 201 425 201 425 248 434 c 128,-1,13
 295 443 295 443 342 443 c 0,14,15
 431 443 431 443 493 411 c 128,-1,16
 555 379 555 379 586.5 315 c 128,-1,17
 618 251 618 251 618 154 c 2,18,-1
 618 36 l 2,19,20
 618 16 618 16 607 4.5 c 128,-1,21
 596 -7 596 -7 576 -7 c 256,22,23
 556 -7 556 -7 546 4.5 c 128,-1,24
 536 16 536 16 536 36 c 2,25,-1
 536 148 l 2,26,27
 536 264 536 264 485 317 c 128,-1,28
 434 370 434 370 336 370 c 0,29,30
 291 370 291 370 248.5 361 c 128,-1,31
 206 352 206 352 169 331 c 1,32,-1
 169 36 l 2,33,34
 169 16 169 16 158.5 4.5 c 128,-1,35
 148 -7 148 -7 128 -7 c 256,0,1
EndSplineSet
EndChar

StartChar: uni0526
Encoding: 1318 1318 607
Width: 714
GlyphClass: 1
Flags: W
LayerCount: 2
Fore
SplineSet
536 148 m 2,0,1
 536 264 536 264 485 317 c 128,-1,2
 434 370 434 370 336 370 c 0,3,4
 291 370 291 370 248.5 361 c 128,-1,5
 206 352 206 352 169 331 c 1,6,-1
 169 36 l 2,7,8
 169 16 169 16 158.5 4.5 c 128,-1,9
 148 -7 148 -7 128 -7 c 256,10,11
 108 -7 108 -7 97.5 4.5 c 128,-1,12
 87 16 87 16 87 36 c 2,13,-1
 87 669 l 2,14,15
 87 690 87 690 97.5 701 c 128,-1,16
 108 712 108 712 128 712 c 256,17,18
 148 712 148 712 158.5 701 c 128,-1,19
 169 690 169 690 169 669 c 2,20,-1
 169 407 l 1,21,22
 201 425 201 425 248 434 c 128,-1,23
 295 443 295 443 342 443 c 0,24,25
 431 443 431 443 493 411 c 128,-1,26
 555 379 555 379 586.5 315 c 128,-1,27
 618 251 618 251 618 154 c 2,28,-1
 618 32 l 1,29,-1
 581 69 l 1,30,-1
 677 69 l 2,31,32
 697 69 697 69 707.5 58.5 c 128,-1,33
 718 48 718 48 718 28 c 2,34,-1
 718 -125 l 2,35,36
 718 -144 718 -144 708.5 -154 c 128,-1,37
 699 -164 699 -164 681 -164 c 256,38,39
 663 -164 663 -164 653 -154 c 128,-1,40
 643 -144 643 -144 643 -125 c 2,41,-1
 643 0 l 1,42,-1
 577 0 l 2,43,44
 557 0 557 0 546.5 10.5 c 128,-1,45
 536 21 536 21 536 43 c 2,46,-1
 536 148 l 2,0,1
EndSplineSet
EndChar

StartChar: uni04BC
Encoding: 1212 1212 608
Width: 923
GlyphClass: 2
Flags: W
AnchorPoint: "Anchor-3" 618 0 basechar 0
LayerCount: 2
Fore
SplineSet
582 -9 m 0,0,1
 468 -9 468 -9 387 33.5 c 128,-1,2
 306 76 306 76 262.5 155 c 128,-1,3
 219 234 219 234 217 343 c 1,4,-1
 232 315 l 1,5,-1
 196 315 l 2,6,7
 138 315 138 315 98.5 335 c 128,-1,8
 59 355 59 355 39.5 391 c 128,-1,9
 20 427 20 427 20 477 c 2,10,-1
 20 509 l 2,11,12
 20 551 20 551 62 551 c 0,13,14
 84 551 84 551 93 540.5 c 128,-1,15
 102 530 102 530 102 514 c 0,16,17
 102 504 102 504 102 495.5 c 128,-1,18
 102 487 102 487 102 478 c 0,19,20
 105 427 105 427 129.5 405.5 c 128,-1,21
 154 384 154 384 203 384 c 2,22,-1
 232 384 l 1,23,-1
 217 355 l 1,24,25
 218 438 218 438 240.5 504 c 128,-1,26
 263 570 263 570 306 617 c 128,-1,27
 349 664 349 664 409.5 689 c 128,-1,28
 470 714 470 714 546 714 c 0,29,30
 610 714 610 714 661 696.5 c 128,-1,31
 712 679 712 679 750 646.5 c 128,-1,32
 788 614 788 614 812.5 569.5 c 128,-1,33
 837 525 837 525 849.5 471.5 c 128,-1,34
 862 418 862 418 862 357 c 0,35,36
 862 341 862 341 857 332 c 128,-1,37
 852 323 852 323 842 319 c 128,-1,38
 832 315 832 315 816 315 c 2,39,-1
 291 315 l 1,40,-1
 304 344 l 1,41,42
 306 254 306 254 338 191.5 c 128,-1,43
 370 129 370 129 432 96.5 c 128,-1,44
 494 64 494 64 585 64 c 0,45,46
 638 64 638 64 685.5 77.5 c 128,-1,47
 733 91 733 91 778 122 c 0,48,49
 793 132 793 132 804.5 131 c 128,-1,50
 816 130 816 130 823.5 122 c 128,-1,51
 831 114 831 114 833 102.5 c 128,-1,52
 835 91 835 91 830 79.5 c 128,-1,53
 825 68 825 68 813 59 c 0,54,55
 765 26 765 26 707 8.5 c 128,-1,56
 649 -9 649 -9 582 -9 c 0,0,1
548 643 m 0,57,58
 471 643 471 643 416 609 c 128,-1,59
 361 575 361 575 332.5 510 c 128,-1,60
 304 445 304 445 303 352 c 1,61,-1
 291 384 l 1,62,-1
 800 384 l 1,63,-1
 780 352 l 1,64,65
 780 448 780 448 753.5 512 c 128,-1,66
 727 576 727 576 675.5 609.5 c 128,-1,67
 624 643 624 643 548 643 c 0,57,58
EndSplineSet
EndChar

StartChar: uni04C3
Encoding: 1219 1219 612
Width: 669
GlyphClass: 1
Flags: W
LayerCount: 2
Fore
SplineSet
407 -189 m 0,0,1
 383 -189 383 -189 358 -185.5 c 128,-1,2
 333 -182 333 -182 313 -176 c 0,3,4
 300 -172 300 -172 293 -163.5 c 128,-1,5
 286 -155 286 -155 286 -144.5 c 128,-1,6
 286 -134 286 -134 290.5 -125.5 c 128,-1,7
 295 -117 295 -117 304.5 -112 c 128,-1,8
 314 -107 314 -107 327 -111 c 0,9,10
 344 -116 344 -116 361 -118 c 128,-1,11
 378 -120 378 -120 398 -120 c 0,12,13
 461 -120 461 -120 495 -78 c 128,-1,14
 529 -36 529 -36 529 48 c 2,15,-1
 529 99 l 2,16,17
 529 175 529 175 506 225 c 128,-1,18
 483 275 483 275 435.5 299 c 128,-1,19
 388 323 388 323 312 323 c 2,20,-1
 169 323 l 1,21,-1
 169 36 l 2,22,23
 169 16 169 16 159 4.5 c 128,-1,24
 149 -7 149 -7 128 -7 c 0,25,26
 108 -7 108 -7 97.5 4.5 c 128,-1,27
 87 16 87 16 87 36 c 2,28,-1
 87 670 l 2,29,30
 87 691 87 691 97.5 701.5 c 128,-1,31
 108 712 108 712 128 712 c 256,32,33
 148 712 148 712 158.5 701.5 c 128,-1,34
 169 691 169 691 169 670 c 2,35,-1
 169 394 l 1,36,-1
 313 394 l 1,37,-1
 286 375 l 1,38,-1
 495 690 l 2,39,40
 504 704 504 704 516 708.5 c 128,-1,41
 528 713 528 713 540 710.5 c 128,-1,42
 552 708 552 708 560 699.5 c 128,-1,43
 568 691 568 691 569.5 678.5 c 128,-1,44
 571 666 571 666 562 652 c 2,45,-1
 366 361 l 1,46,-1
 354 391 l 1,47,48
 440 388 440 388 497 355.5 c 128,-1,49
 554 323 554 323 582.5 260.5 c 128,-1,50
 611 198 611 198 611 105 c 2,51,-1
 611 51 l 2,52,53
 611 -26 611 -26 587 -80 c 128,-1,54
 563 -134 563 -134 517 -161.5 c 128,-1,55
 471 -189 471 -189 407 -189 c 0,0,1
EndSplineSet
EndChar

StartChar: uni04C5
Encoding: 1221 1221 613
Width: 758
GlyphClass: 1
Flags: W
LayerCount: 2
Fore
SplineSet
698 -138 m 2,0,1
 693 -151 693 -151 683.5 -157 c 128,-1,2
 674 -163 674 -163 663.5 -163.5 c 128,-1,3
 653 -164 653 -164 644 -158.5 c 128,-1,4
 635 -153 635 -153 631.5 -143 c 128,-1,5
 628 -133 628 -133 632 -118 c 2,6,-1
 677 17 l 1,7,-1
 688 0 l 1,8,-1
 613 0 l 2,9,10
 593 0 593 0 582 9.5 c 128,-1,11
 571 19 571 19 571 39 c 2,12,-1
 571 634 l 1,13,-1
 263 634 l 1,14,-1
 263 472 l 2,15,16
 263 371 263 371 251.5 294.5 c 128,-1,17
 240 218 240 218 217.5 161.5 c 128,-1,18
 195 105 195 105 161.5 66 c 128,-1,19
 128 27 128 27 84 0 c 0,20,21
 68 -11 68 -11 53 -8 c 128,-1,22
 38 -5 38 -5 28 11 c 256,23,24
 18 27 18 27 22.5 41 c 128,-1,25
 27 55 27 55 43 65 c 0,26,27
 77 86 77 86 103.5 118 c 128,-1,28
 130 150 130 150 148.5 198.5 c 128,-1,29
 167 247 167 247 177 319 c 128,-1,30
 187 391 187 391 187 493 c 2,31,-1
 187 660 l 2,32,33
 187 682 187 682 198.5 693.5 c 128,-1,34
 210 705 210 705 232 705 c 2,35,-1
 609 705 l 2,36,37
 630 705 630 705 642 693.5 c 128,-1,38
 654 682 654 682 654 660 c 2,39,-1
 654 46 l 1,40,-1
 630 69 l 1,41,-1
 712 69 l 2,42,43
 737 69 737 69 747.5 56.5 c 128,-1,44
 758 44 758 44 750 20 c 2,45,-1
 698 -138 l 2,0,1
EndSplineSet
EndChar

StartChar: uni04C7
Encoding: 1223 1223 614
Width: 761
GlyphClass: 1
Flags: W
LayerCount: 2
Fore
SplineSet
494 -191 m 0,0,1
 475 -192 475 -192 465 -183 c 128,-1,2
 455 -174 455 -174 454 -161.5 c 128,-1,3
 453 -149 453 -149 460.5 -139 c 128,-1,4
 468 -129 468 -129 483 -128 c 0,5,6
 538 -125 538 -125 565 -99 c 128,-1,7
 592 -73 592 -73 592 -15 c 2,8,-1
 592 322 l 1,9,-1
 169 322 l 1,10,-1
 169 36 l 2,11,12
 169 16 169 16 159 4.5 c 128,-1,13
 149 -7 149 -7 128 -7 c 0,14,15
 108 -7 108 -7 97.5 4.5 c 128,-1,16
 87 16 87 16 87 36 c 2,17,-1
 87 669 l 2,18,19
 87 690 87 690 97.5 701 c 128,-1,20
 108 712 108 712 128 712 c 256,21,22
 148 712 148 712 158.5 701 c 128,-1,23
 169 690 169 690 169 669 c 2,24,-1
 169 393 l 1,25,-1
 592 393 l 1,26,-1
 592 669 l 2,27,28
 592 690 592 690 602.5 701 c 128,-1,29
 613 712 613 712 633 712 c 256,30,31
 653 712 653 712 663.5 701 c 128,-1,32
 674 690 674 690 674 669 c 2,33,-1
 674 -10 l 2,34,35
 674 -71 674 -71 653 -110.5 c 128,-1,36
 632 -150 632 -150 591.5 -169.5 c 128,-1,37
 551 -189 551 -189 494 -191 c 0,0,1
EndSplineSet
EndChar

StartChar: uni04C9
Encoding: 1225 1225 615
Width: 779
GlyphClass: 1
Flags: W
LayerCount: 2
Fore
SplineSet
718 -138 m 2,0,1
 713 -151 713 -151 704 -157 c 128,-1,2
 695 -163 695 -163 684 -163.5 c 128,-1,3
 673 -164 673 -164 664.5 -158.5 c 128,-1,4
 656 -153 656 -153 652 -143 c 128,-1,5
 648 -133 648 -133 653 -118 c 2,6,-1
 698 17 l 1,7,-1
 708 0 l 1,8,-1
 633 0 l 2,9,10
 613 0 613 0 602.5 9.5 c 128,-1,11
 592 19 592 19 592 39 c 2,12,-1
 592 322 l 1,13,-1
 169 322 l 1,14,-1
 169 36 l 2,15,16
 169 16 169 16 159 4.5 c 128,-1,17
 149 -7 149 -7 128 -7 c 0,18,19
 108 -7 108 -7 97.5 4.5 c 128,-1,20
 87 16 87 16 87 36 c 2,21,-1
 87 669 l 2,22,23
 87 690 87 690 97.5 701 c 128,-1,24
 108 712 108 712 128 712 c 256,25,26
 148 712 148 712 158.5 701 c 128,-1,27
 169 690 169 690 169 669 c 2,28,-1
 169 393 l 1,29,-1
 592 393 l 1,30,-1
 592 669 l 2,31,32
 592 690 592 690 602.5 701 c 128,-1,33
 613 712 613 712 633 712 c 256,34,35
 653 712 653 712 663.5 701 c 128,-1,36
 674 690 674 690 674 669 c 2,37,-1
 674 32 l 1,38,-1
 637 69 l 1,39,-1
 732 69 l 2,40,41
 758 69 758 69 768.5 56.5 c 128,-1,42
 779 44 779 44 771 20 c 2,43,-1
 718 -138 l 2,0,1
EndSplineSet
EndChar

StartChar: uni04CB
Encoding: 1227 1227 616
Width: 683
GlyphClass: 1
Flags: W
LayerCount: 2
Fore
SplineSet
443 -164 m 0,0,1
 425 -164 425 -164 415.5 -154 c 128,-1,2
 406 -144 406 -144 406 -125 c 2,3,-1
 406 28 l 2,4,5
 406 48 406 48 417 58.5 c 128,-1,6
 428 69 428 69 448 69 c 2,7,-1
 544 69 l 1,8,-1
 506 32 l 1,9,-1
 506 298 l 1,10,11
 476 281 476 281 428.5 271.5 c 128,-1,12
 381 262 381 262 333 262 c 0,13,14
 244 262 244 262 182.5 294.5 c 128,-1,15
 121 327 121 327 89.5 391 c 128,-1,16
 58 455 58 455 58 551 c 2,17,-1
 58 669 l 2,18,19
 58 690 58 690 68.5 701 c 128,-1,20
 79 712 79 712 99 712 c 256,21,22
 119 712 119 712 129.5 701 c 128,-1,23
 140 690 140 690 140 669 c 2,24,-1
 140 557 l 2,25,26
 140 443 140 443 190.5 389 c 128,-1,27
 241 335 241 335 340 335 c 0,28,29
 384 335 384 335 426.5 344.5 c 128,-1,30
 469 354 469 354 506 375 c 1,31,-1
 506 669 l 2,32,33
 506 690 506 690 517 701 c 128,-1,34
 528 712 528 712 548 712 c 0,35,36
 567 712 567 712 578 701 c 128,-1,37
 589 690 589 690 589 669 c 2,38,-1
 589 43 l 2,39,40
 589 21 589 21 578 10.5 c 128,-1,41
 567 0 567 0 548 0 c 2,42,-1
 481 0 l 1,43,-1
 481 -125 l 2,44,45
 481 -144 481 -144 471.5 -154 c 128,-1,46
 462 -164 462 -164 443 -164 c 0,0,1
EndSplineSet
EndChar

StartChar: uni04CD
Encoding: 1229 1229 617
Width: 873
GlyphClass: 1
Flags: W
LayerCount: 2
Fore
SplineSet
810 -138 m 2,0,1
 806 -151 806 -151 796.5 -157 c 128,-1,2
 787 -163 787 -163 776.5 -163.5 c 128,-1,3
 766 -164 766 -164 757 -158.5 c 128,-1,4
 748 -153 748 -153 744 -143 c 128,-1,5
 740 -133 740 -133 745 -118 c 2,6,-1
 790 17 l 1,7,-1
 801 0 l 1,8,-1
 733 0 l 2,9,10
 713 0 713 0 702 9.5 c 128,-1,11
 691 19 691 19 691 39 c 2,12,-1
 691 595 l 1,13,-1
 715 595 l 1,14,-1
 465 126 l 2,15,16
 458 113 458 113 450.5 107.5 c 128,-1,17
 443 102 443 102 429 102 c 256,18,19
 415 102 415 102 407 108 c 128,-1,20
 399 114 399 114 393 126 c 2,21,-1
 140 596 l 1,22,-1
 164 596 l 1,23,-1
 164 33 l 2,24,25
 164 14 164 14 154.5 3.5 c 128,-1,26
 145 -7 145 -7 127 -7 c 256,27,28
 109 -7 109 -7 99 3.5 c 128,-1,29
 89 14 89 14 89 33 c 2,30,-1
 89 672 l 2,31,32
 89 692 89 692 99 702 c 128,-1,33
 109 712 109 712 127 712 c 0,34,35
 143 712 143 712 152.5 705.5 c 128,-1,36
 162 699 162 699 170 684 c 2,37,-1
 444 168 l 1,38,-1
 414 168 l 1,39,-1
 687 684 l 2,40,41
 695 699 695 699 704 705.5 c 128,-1,42
 713 712 713 712 730 712 c 256,43,44
 747 712 747 712 757 702 c 128,-1,45
 767 692 767 692 767 672 c 2,46,-1
 767 46 l 1,47,-1
 743 69 l 1,48,-1
 825 69 l 2,49,50
 850 69 850 69 860.5 56.5 c 128,-1,51
 871 44 871 44 863 20 c 2,52,-1
 810 -138 l 2,0,1
EndSplineSet
EndChar

StartChar: uni04E0
Encoding: 1248 1248 626
Width: 640
GlyphClass: 1
Flags: W
LayerCount: 2
Fore
SplineSet
312 -9 m 0,0,1
 233 -9 233 -9 168 10.5 c 128,-1,2
 103 30 103 30 60 66 c 0,3,4
 48 75 48 75 44.5 86.5 c 128,-1,5
 41 98 41 98 43 109 c 128,-1,6
 45 120 45 120 53 127 c 128,-1,7
 61 134 61 134 72 135.5 c 128,-1,8
 83 137 83 137 96 128 c 0,9,10
 141 96 141 96 192.5 80 c 128,-1,11
 244 64 244 64 307 64 c 0,12,13
 372 64 372 64 413.5 78.5 c 128,-1,14
 455 93 455 93 475 123 c 128,-1,15
 495 153 495 153 495 196 c 256,16,17
 495 239 495 239 476.5 267.5 c 128,-1,18
 458 296 458 296 418.5 309.5 c 128,-1,19
 379 323 379 323 315 323 c 2,20,-1
 237 323 l 2,21,22
 224 323 224 323 216.5 329 c 128,-1,23
 209 335 209 335 206 344.5 c 128,-1,24
 203 354 203 354 206.5 365.5 c 128,-1,25
 210 377 210 377 219 387 c 2,26,-1
 468 660 l 1,27,-1
 468 635 l 1,28,-1
 87 635 l 2,29,30
 68 635 68 635 58 644.5 c 128,-1,31
 48 654 48 654 48 670 c 0,32,33
 48 687 48 687 58 696 c 128,-1,34
 68 705 68 705 87 705 c 2,35,-1
 523 705 l 2,36,37
 536 705 536 705 544.5 699 c 128,-1,38
 553 693 553 693 555.5 683 c 128,-1,39
 558 673 558 673 554 660.5 c 128,-1,40
 550 648 550 648 539 636 c 2,41,-1
 293 367 l 1,42,-1
 281 390 l 1,43,-1
 338 390 l 2,44,45
 414 390 414 390 467.5 368.5 c 128,-1,46
 521 347 521 347 549.5 305 c 128,-1,47
 578 263 578 263 578 199 c 0,48,49
 578 134 578 134 549 87 c 128,-1,50
 520 40 520 40 461.5 15.5 c 128,-1,51
 403 -9 403 -9 312 -9 c 0,0,1
EndSplineSet
EndChar

StartChar: uni04E8
Encoding: 1256 1256 630
Width: 767
GlyphClass: 2
Flags: W
AnchorPoint: "Anchor-5" 384 353 basechar 0
AnchorPoint: "Anchor-3" 440 0 basechar 0
AnchorPoint: "Anchor-2" 383 0 basechar 0
AnchorPoint: "Anchor-1" 454 705 basechar 0
AnchorPoint: "Anchor-0" 383 705 basechar 0
LayerCount: 2
Fore
SplineSet
109 325 m 1,0,-1
 109 391 l 1,1,-1
 663 391 l 1,2,-1
 663 325 l 1,3,-1
 109 325 l 1,0,-1
383 -9 m 0,4,5
 285 -9 285 -9 212.5 35.5 c 128,-1,6
 140 80 140 80 100.5 161 c 128,-1,7
 61 242 61 242 61 353 c 0,8,9
 61 437 61 437 83.5 503.5 c 128,-1,10
 106 570 106 570 148 616.5 c 128,-1,11
 190 663 190 663 249.5 688.5 c 128,-1,12
 309 714 309 714 383 714 c 0,13,14
 483 714 483 714 555.5 670 c 128,-1,15
 628 626 628 626 667.5 545.5 c 128,-1,16
 707 465 707 465 707 354 c 0,17,18
 707 270 707 270 684 203 c 128,-1,19
 661 136 661 136 619 89 c 128,-1,20
 577 42 577 42 517.5 16.5 c 128,-1,21
 458 -9 458 -9 383 -9 c 0,4,5
383 64 m 0,22,23
 459 64 459 64 511.5 98 c 128,-1,24
 564 132 564 132 592 197 c 128,-1,25
 620 262 620 262 620 353 c 0,26,27
 620 490 620 490 558.5 565.5 c 128,-1,28
 497 641 497 641 383 641 c 0,29,30
 309 641 309 641 256.5 607 c 128,-1,31
 204 573 204 573 176 508.5 c 128,-1,32
 148 444 148 444 148 353 c 0,33,34
 148 217 148 217 210 140.5 c 128,-1,35
 272 64 272 64 383 64 c 0,22,23
EndSplineSet
EndChar

StartChar: uni04FA
Encoding: 1274 1274 638
Width: 578
GlyphClass: 1
Flags: W
LayerCount: 2
Fore
SplineSet
119 -180 m 2,0,1
 103 -181 103 -181 93 -174 c 128,-1,2
 83 -167 83 -167 82 -153 c 256,3,4
 81 -139 81 -139 88.5 -129.5 c 128,-1,5
 96 -120 96 -120 116 -119 c 2,6,-1
 128 -118 l 2,7,8
 184 -113 184 -113 207 -84.5 c 128,-1,9
 230 -56 230 -56 230 0 c 1,10,-1
 164 0 l 2,11,12
 145 0 145 0 134 10.5 c 128,-1,13
 123 21 123 21 123 41 c 2,14,-1
 123 321 l 1,15,-1
 61 321 l 2,16,17
 44 321 44 321 35 329.5 c 128,-1,18
 26 338 26 338 26 353 c 256,19,20
 26 368 26 368 35 376 c 128,-1,21
 44 384 44 384 61 384 c 2,22,-1
 123 384 l 1,23,-1
 123 662 l 2,24,25
 123 683 123 683 134.5 694 c 128,-1,26
 146 705 146 705 166 705 c 2,27,-1
 533 705 l 2,28,29
 552 705 552 705 561.5 696 c 128,-1,30
 571 687 571 687 571 669 c 0,31,32
 571 653 571 653 561.5 643.5 c 128,-1,33
 552 634 552 634 533 634 c 2,34,-1
 206 634 l 1,35,-1
 206 384 l 1,36,-1
 356 384 l 2,37,38
 373 384 373 384 382 376 c 128,-1,39
 391 368 391 368 391 353 c 256,40,41
 391 338 391 338 382 329.5 c 128,-1,42
 373 321 373 321 356 321 c 2,43,-1
 206 321 l 1,44,-1
 206 32 l 1,45,-1
 168 69 l 1,46,-1
 265 69 l 2,47,48
 285 69 285 69 295.5 58.5 c 128,-1,49
 306 48 306 48 306 28 c 2,50,-1
 306 12 l 2,51,52
 306 -50 306 -50 287.5 -91.5 c 128,-1,53
 269 -133 269 -133 231.5 -154.5 c 128,-1,54
 194 -176 194 -176 137 -179 c 2,55,-1
 119 -180 l 2,0,1
EndSplineSet
EndChar

StartChar: uni04FC
Encoding: 1276 1276 639
Width: 650
GlyphClass: 1
Flags: W
LayerCount: 2
Fore
SplineSet
446 -180 m 0,0,1
 427 -183 427 -183 413.5 -175.5 c 128,-1,2
 400 -168 400 -168 396 -152 c 0,3,4
 393 -136 393 -136 400.5 -126 c 128,-1,5
 408 -116 408 -116 424 -113 c 0,6,7
 475 -103 475 -103 496 -79 c 128,-1,8
 517 -55 517 -55 517 -11 c 0,9,10
 517 11 517 11 501.5 45 c 128,-1,11
 486 79 486 79 455 121 c 2,12,-1
 309 319 l 1,13,-1
 341 319 l 1,14,-1
 122 20 l 2,15,16
 112 6 112 6 101 -0.5 c 128,-1,17
 90 -7 90 -7 78 -7 c 0,18,19
 61 -7 61 -7 50.5 2 c 128,-1,20
 40 11 40 11 38.5 24 c 128,-1,21
 37 37 37 37 48 50 c 2,22,-1
 290 376 l 1,23,-1
 290 345 l 1,24,-1
 62 653 l 2,25,26
 51 668 51 668 52 681 c 128,-1,27
 53 694 53 694 63.5 703 c 128,-1,28
 74 712 74 712 89 712 c 0,29,30
 103 712 103 712 113 706 c 128,-1,31
 123 700 123 700 134 685 c 2,32,-1
 339 404 l 1,33,-1
 313 404 l 1,34,-1
 517 685 l 2,35,36
 527 700 527 700 537 706 c 128,-1,37
 547 712 547 712 561 712 c 0,38,39
 577 712 577 712 587.5 703.5 c 128,-1,40
 598 695 598 695 599 681.5 c 128,-1,41
 600 668 600 668 589 653 c 2,42,-1
 361 345 l 1,43,-1
 361 376 l 1,44,-1
 529 149 l 2,45,46
 567 98 567 98 583.5 56.5 c 128,-1,47
 600 15 600 15 600 -18 c 0,48,49
 600 -84 600 -84 562.5 -124 c 128,-1,50
 525 -164 525 -164 446 -180 c 0,0,1
EndSplineSet
EndChar

